<mxfile host="Electron" agent="Mozilla/5.0 (Windows NT 10.0; Win64; x64) AppleWebKit/537.36 (KHTML, like Gecko) draw.io/24.7.17 Chrome/128.0.6613.36 Electron/32.0.1 Safari/537.36" version="24.7.17">
  <diagram name="Página-1" id="XazFdlBHkPm9L1oJd0ow">
    <mxGraphModel dx="2812" dy="2151" grid="1" gridSize="10" guides="1" tooltips="1" connect="1" arrows="1" fold="1" page="1" pageScale="1" pageWidth="827" pageHeight="1169" math="0" shadow="0">
      <root>
        <mxCell id="0" />
        <mxCell id="1" parent="0" />
        <mxCell id="syM0QQwry6lKTLaRATjQ-1" value="" style="rounded=0;whiteSpace=wrap;html=1;" vertex="1" parent="1">
          <mxGeometry x="40" y="140" width="240" height="330" as="geometry" />
        </mxCell>
        <mxCell id="syM0QQwry6lKTLaRATjQ-2" value="" style="image;aspect=fixed;html=1;points=[];align=center;fontSize=12;image=img/lib/azure2/app_services/App_Services.svg;" vertex="1" parent="1">
          <mxGeometry x="128" y="250" width="64" height="64" as="geometry" />
        </mxCell>
        <mxCell id="syM0QQwry6lKTLaRATjQ-3" value="" style="image;aspect=fixed;html=1;points=[];align=center;fontSize=12;image=img/lib/azure2/app_services/App_Service_Plans.svg;" vertex="1" parent="1">
          <mxGeometry x="50" y="150" width="40" height="40" as="geometry" />
        </mxCell>
        <mxCell id="syM0QQwry6lKTLaRATjQ-4" value="Webserver: Portal" style="text;html=1;align=center;verticalAlign=middle;whiteSpace=wrap;rounded=0;" vertex="1" parent="1">
          <mxGeometry x="105" y="155" width="110" height="30" as="geometry" />
        </mxCell>
        <mxCell id="syM0QQwry6lKTLaRATjQ-6" value="SSR: Frontoffice" style="text;html=1;align=center;verticalAlign=middle;whiteSpace=wrap;rounded=0;" vertex="1" parent="1">
          <mxGeometry x="109" y="320" width="102" height="30" as="geometry" />
        </mxCell>
        <mxCell id="syM0QQwry6lKTLaRATjQ-7" value="" style="rounded=0;whiteSpace=wrap;html=1;" vertex="1" parent="1">
          <mxGeometry x="480" y="140" width="240" height="150" as="geometry" />
        </mxCell>
        <mxCell id="syM0QQwry6lKTLaRATjQ-40" style="edgeStyle=orthogonalEdgeStyle;rounded=0;orthogonalLoop=1;jettySize=auto;html=1;entryX=0;entryY=0.5;entryDx=0;entryDy=0;" edge="1" parent="1" source="syM0QQwry6lKTLaRATjQ-8" target="syM0QQwry6lKTLaRATjQ-33">
          <mxGeometry relative="1" as="geometry" />
        </mxCell>
        <mxCell id="syM0QQwry6lKTLaRATjQ-8" value="" style="image;aspect=fixed;html=1;points=[];align=center;fontSize=12;image=img/lib/azure2/app_services/App_Services.svg;" vertex="1" parent="1">
          <mxGeometry x="568" y="200" width="64" height="64" as="geometry" />
        </mxCell>
        <mxCell id="syM0QQwry6lKTLaRATjQ-9" value="" style="image;aspect=fixed;html=1;points=[];align=center;fontSize=12;image=img/lib/azure2/app_services/App_Service_Plans.svg;" vertex="1" parent="1">
          <mxGeometry x="490" y="150" width="40" height="40" as="geometry" />
        </mxCell>
        <mxCell id="syM0QQwry6lKTLaRATjQ-10" value="Webserver: Backoffice" style="text;html=1;align=center;verticalAlign=middle;whiteSpace=wrap;rounded=0;" vertex="1" parent="1">
          <mxGeometry x="545" y="155" width="125" height="30" as="geometry" />
        </mxCell>
        <mxCell id="syM0QQwry6lKTLaRATjQ-12" value="" style="rounded=0;whiteSpace=wrap;html=1;" vertex="1" parent="1">
          <mxGeometry x="480" y="320" width="240" height="150" as="geometry" />
        </mxCell>
        <mxCell id="syM0QQwry6lKTLaRATjQ-13" value="" style="image;aspect=fixed;html=1;points=[];align=center;fontSize=12;image=img/lib/azure2/app_services/App_Services.svg;" vertex="1" parent="1">
          <mxGeometry x="568" y="380" width="64" height="64" as="geometry" />
        </mxCell>
        <mxCell id="syM0QQwry6lKTLaRATjQ-14" value="" style="image;aspect=fixed;html=1;points=[];align=center;fontSize=12;image=img/lib/azure2/app_services/App_Service_Plans.svg;" vertex="1" parent="1">
          <mxGeometry x="490" y="330" width="40" height="40" as="geometry" />
        </mxCell>
        <mxCell id="syM0QQwry6lKTLaRATjQ-15" value="Restful API" style="text;html=1;align=center;verticalAlign=middle;whiteSpace=wrap;rounded=0;" vertex="1" parent="1">
          <mxGeometry x="545" y="335" width="125" height="30" as="geometry" />
        </mxCell>
        <mxCell id="syM0QQwry6lKTLaRATjQ-16" value="" style="endArrow=classic;html=1;rounded=0;exitX=0.006;exitY=0.559;exitDx=0;exitDy=0;exitPerimeter=0;entryX=0.5;entryY=1;entryDx=0;entryDy=0;" edge="1" parent="1" source="syM0QQwry6lKTLaRATjQ-13" target="syM0QQwry6lKTLaRATjQ-6">
          <mxGeometry width="50" height="50" relative="1" as="geometry">
            <mxPoint x="330" y="420" as="sourcePoint" />
            <mxPoint x="380" y="370" as="targetPoint" />
            <Array as="points">
              <mxPoint x="160" y="416" />
            </Array>
          </mxGeometry>
        </mxCell>
        <mxCell id="syM0QQwry6lKTLaRATjQ-17" value="" style="dashed=0;outlineConnect=0;html=1;align=center;labelPosition=center;verticalLabelPosition=bottom;verticalAlign=top;shape=mxgraph.weblogos.chrome" vertex="1" parent="1">
          <mxGeometry x="-210" y="250" width="74.8" height="75.4" as="geometry" />
        </mxCell>
        <mxCell id="syM0QQwry6lKTLaRATjQ-18" value="Client" style="text;html=1;align=center;verticalAlign=middle;whiteSpace=wrap;rounded=0;" vertex="1" parent="1">
          <mxGeometry x="-203" y="335" width="60" height="30" as="geometry" />
        </mxCell>
        <mxCell id="syM0QQwry6lKTLaRATjQ-19" value="" style="rounded=0;whiteSpace=wrap;html=1;" vertex="1" parent="1">
          <mxGeometry x="760" y="140" width="240" height="330" as="geometry" />
        </mxCell>
        <mxCell id="syM0QQwry6lKTLaRATjQ-20" value="" style="dashed=0;outlineConnect=0;html=1;align=center;labelPosition=center;verticalLabelPosition=bottom;verticalAlign=top;shape=mxgraph.weblogos.mongodb" vertex="1" parent="1">
          <mxGeometry x="860" y="264" width="41.2" height="86.2" as="geometry" />
        </mxCell>
        <mxCell id="syM0QQwry6lKTLaRATjQ-21" value="Database Server" style="text;html=1;align=center;verticalAlign=middle;whiteSpace=wrap;rounded=0;" vertex="1" parent="1">
          <mxGeometry x="850" y="200" width="60" height="30" as="geometry" />
        </mxCell>
        <mxCell id="syM0QQwry6lKTLaRATjQ-22" value="" style="endArrow=classic;html=1;rounded=0;entryX=-0.016;entryY=0.547;entryDx=0;entryDy=0;entryPerimeter=0;" edge="1" parent="1" target="syM0QQwry6lKTLaRATjQ-13">
          <mxGeometry width="50" height="50" relative="1" as="geometry">
            <mxPoint x="630" y="230" as="sourcePoint" />
            <mxPoint x="680" y="180" as="targetPoint" />
            <Array as="points">
              <mxPoint x="670" y="230" />
              <mxPoint x="670" y="415" />
            </Array>
          </mxGeometry>
        </mxCell>
        <mxCell id="syM0QQwry6lKTLaRATjQ-23" value="" style="dashed=0;outlineConnect=0;html=1;align=center;labelPosition=center;verticalLabelPosition=bottom;verticalAlign=top;shape=mxgraph.weblogos.chrome" vertex="1" parent="1">
          <mxGeometry x="562.6" y="-30" width="74.8" height="75.4" as="geometry" />
        </mxCell>
        <mxCell id="syM0QQwry6lKTLaRATjQ-24" value="Editores" style="text;html=1;align=center;verticalAlign=middle;whiteSpace=wrap;rounded=0;" vertex="1" parent="1">
          <mxGeometry x="569.6" y="55" width="60" height="30" as="geometry" />
        </mxCell>
        <mxCell id="syM0QQwry6lKTLaRATjQ-25" value="" style="endArrow=classic;html=1;rounded=0;exitX=0.5;exitY=1;exitDx=0;exitDy=0;entryX=0.472;entryY=0.006;entryDx=0;entryDy=0;entryPerimeter=0;" edge="1" parent="1" source="syM0QQwry6lKTLaRATjQ-24" target="syM0QQwry6lKTLaRATjQ-8">
          <mxGeometry width="50" height="50" relative="1" as="geometry">
            <mxPoint x="740" y="80" as="sourcePoint" />
            <mxPoint x="790" y="30" as="targetPoint" />
          </mxGeometry>
        </mxCell>
        <mxCell id="syM0QQwry6lKTLaRATjQ-26" value="" style="endArrow=classic;html=1;rounded=0;" edge="1" parent="1" target="syM0QQwry6lKTLaRATjQ-17">
          <mxGeometry width="50" height="50" relative="1" as="geometry">
            <mxPoint x="125" y="288" as="sourcePoint" />
            <mxPoint x="-10" y="320" as="targetPoint" />
          </mxGeometry>
        </mxCell>
        <mxCell id="syM0QQwry6lKTLaRATjQ-27" value="" style="endArrow=classic;html=1;rounded=0;" edge="1" parent="1" target="syM0QQwry6lKTLaRATjQ-20">
          <mxGeometry width="50" height="50" relative="1" as="geometry">
            <mxPoint x="670" y="307" as="sourcePoint" />
            <mxPoint x="750" y="490" as="targetPoint" />
          </mxGeometry>
        </mxCell>
        <mxCell id="syM0QQwry6lKTLaRATjQ-28" value="La aplicación está usando un CMS Headless, y el CMS tiene el Backtoffice y API de forma separada, y usa una base de datos NoSQL porque la data no necesita relaciones robustas" style="text;html=1;align=center;verticalAlign=middle;whiteSpace=wrap;rounded=0;" vertex="1" parent="1">
          <mxGeometry y="-22" width="330" height="107" as="geometry" />
        </mxCell>
        <mxCell id="syM0QQwry6lKTLaRATjQ-30" value="" style="image;aspect=fixed;html=1;points=[];align=center;fontSize=12;image=img/lib/azure2/app_services/Search_Services.svg;" vertex="1" parent="1">
          <mxGeometry x="574" y="585" width="68" height="49.120000000000005" as="geometry" />
        </mxCell>
        <mxCell id="syM0QQwry6lKTLaRATjQ-31" value="" style="endArrow=classic;html=1;rounded=0;entryX=0.5;entryY=1;entryDx=0;entryDy=0;exitX=-0.059;exitY=0.595;exitDx=0;exitDy=0;exitPerimeter=0;" edge="1" parent="1" source="syM0QQwry6lKTLaRATjQ-30" target="syM0QQwry6lKTLaRATjQ-6">
          <mxGeometry width="50" height="50" relative="1" as="geometry">
            <mxPoint x="200" y="650" as="sourcePoint" />
            <mxPoint x="250" y="600" as="targetPoint" />
            <Array as="points">
              <mxPoint x="160" y="614" />
            </Array>
          </mxGeometry>
        </mxCell>
        <mxCell id="syM0QQwry6lKTLaRATjQ-32" value="El search y la base de datos mongo están en servidores distintos" style="text;html=1;align=center;verticalAlign=middle;whiteSpace=wrap;rounded=0;" vertex="1" parent="1">
          <mxGeometry x="370" y="600" width="213" height="90" as="geometry" />
        </mxCell>
        <mxCell id="syM0QQwry6lKTLaRATjQ-39" style="edgeStyle=orthogonalEdgeStyle;rounded=0;orthogonalLoop=1;jettySize=auto;html=1;entryX=0;entryY=0;entryDx=0;entryDy=0;" edge="1" parent="1" source="syM0QQwry6lKTLaRATjQ-33" target="syM0QQwry6lKTLaRATjQ-37">
          <mxGeometry relative="1" as="geometry" />
        </mxCell>
        <mxCell id="syM0QQwry6lKTLaRATjQ-33" value="" style="shape=image;verticalLabelPosition=bottom;labelBackgroundColor=default;verticalAlign=top;aspect=fixed;imageAspect=0;image=data:image/png,iVBORw0KGgoAAAANSUhEUgAAAb8AAAGPCAIAAABDC0mIAAAgAElEQVR4AexdBXgc17VeyRyzE8cBh8nBuoEmadJgXxuGpk3aUJOmzQs0iS1pQcySJZlkRpltmZllZsYdWGZm3qF9b2btjWxJS1pJu9rrbz9rdmZ2d+a/9/5z7rnn/Id19z33gxdAACAAEAAIxIoAK9YPgPMBAgABgABA4O577mcFwD+AAEAAIAAQiBEBFosF2DNGzCKdbnEREqNfpPcJdeAFEOh6BAQ6H6r1Ki1+q5vwYWSk/guOR4sAYM9okYr+vHNyz9Kj5oaDpjn7jOAFEOhyBGbtNU5rMmw8a7uk9BgcePQ9GZwZHgHAnuHxie2ox0+anPiCI5bPGxR/nyf/21zwAgh0PQIfzZF9OEv2Y6O6drfhuMwdW58GZ7eNAGDPtrGJ/Yjejp2Tu79brh6UBQ3iwANzEfACCHQ9Ajx4AAe+vRh9rEY0/7g19n4NPtE6AoA9W8clvr1HxO7y7fo/TJawxvBZ2RCLDV4AgeRAIAfqw4EH58J5W3QCnc/qJuLr4eBTzREA7NkcjfZuzz9meaxKOLwQZXFgFhdm8cALIJA0CORAGWP4ny5UrD1tFel97e3r4POBAGDPxPQCq5sQ6HyFW/Q35cL9eIA6k4YywAMshAAHZuVAj9WKvlii3A45cTJAUonp/Gn7LYA9E9P0YoN/wznbZwuVrJ/5rBwIWJ0AgSRFgA0NKUDrD5qdPhIjAH22a/gD9mwXfKEPb0ecnyxWjaoR0dTJAZYXQCBZEWBDA3KRH1dpmvgOtRULdWCwEQcCgD3jAO2aj+Ak5faTUw5bhhShwNeZpAZXaPYKNjhwXy78x6nSii26s3IPSQWA/XnNeI7lDWDPWNBq7VytDduPOH9aoxnAQ+hFdjA+AQLJjAAX7sGFby9B/zxdtv6C3ekjceD+bG1cR7MPsGc0KLV+DkUFCJI6q/BUbdP/aZq0LxsCHk/w8EgNBHKgkSWCuj1GVOdzeEHuZusDPOJewJ4RIWrzBIyg7F5yzXn769OktxajPbhgqT1ZnX3JbAx2ybWxoWEFyOeLlIuOWmQmf5tdHBwIiwBgz7DwhD1o8xCX1N6qXYbbi1FgdaaGzdUlVJWEP8qBb8iFn6wR/dyoPi5x+3AKTN/DjvXWDwL2bB2XaPZKjP75h0x/b1AMywceT2B1phQCjPdzMBd+eZJk1Rmbzo75cbB6FM2gv+YcwJ7XwBHlG4IMePzkEZHrh+Wq0eOEdHg8iFJKQgsLXFIYBLgwKwu6t1SQu0m3B3GaQe5mlIO/2WmAPZuBEfWmD6c0Nmz5Kevvx4v7s6FMkJQZZpSCQ0mLAAceWoC8OElSslUvNgLvZ9Tj/+qJgD2vIhHLX5MT33nZwV6nubtUQKuBAPZMWoIAFxYGAS7cJxe+rQj9pEGxF3GaXTiIXoqFBkCee0xoXT1ZZPCVbNS+OF40tAABc3awXpS6CGRw4J5Z0LPjxbMPmi+pvF6gPH91jEfzF9ie0aD06zk4QRkc+C6+4+/z5CMLkb65IEoppVZLwhhi6XmIC7OyoTtKBR8vVM47bjG5gHLdr4M94hZgz4gQXXOCx0+eV3im7TM9VSvOGAtS2gF1pj4CHLgnDx5QgPxzpVpmAZnv14z38G8Ae4bH5/qjBicx7bD5nbnyW0sEdIwn8Himp8nWne6aC2dw4Z4c+M3Z8q0X7AqTnwDBn9eP+9bfA/ZsHZdW9xIkJTT6P1uh7puH9AAint2JQdL8XjgQK4v/VK2ocrP2IOzwgdjPVsd/i52APVtA0sYOgqQket/6s7Y/zZT1ZEMZIC8zzRmnO90+F2axoRHF6AuTJRP2miweggC5723wQPPdgD2bo9HmNhUIeDFy92V7wTrN6BoRKwt4PFPf39ed6C8h98KIz3+xXC3Q+50+QJ9tskHoAGDPEBThNnCSMrqIyp2G39aIbixEWBzg8QTs2e0QYNjzjzNkDYfNF5SecOMBHGMQAOwZVUcwu4izCu8/FilZWXwg4pm64Y3gysMhwKULHz1SLfx6oWLtGRtOAOmQCOQA2DMCQMHDJ6XuyU3Gl6ZI6cwikNKekHki+JIkRIALD8pD7ikRlG83WNyEFwPSIeH4AbBnOHQCgQBOUl6MXHrC+tEc+f0VQtrwBFFKSTjswSUlCgE2xBrD/2KJ6rDIpQKFj8LSA2DPsPAEAk4fqbFheZv0t+QjN+QigDrDTf0SNYDB93QhAhw6++j5SZK8ddoDAleE4ZHehwF7Rmh/ocG36YL9rw0K1lgIeDwBdXZ/BJjopTtLBS9PFDccsdg8BJD+bIsjAHu2hcyV/Tv5jv9dqhxdJ2KxQUp7t1tl7kITL5l/mgv35sCD2HDuRh2i8VqA9GcbJAHYsw1gmABPkxOffsD0VLXwFlBtOJlHO7i2hCPAhjLGQh/Mlc89ZOZrvG0OkvQ+ANizzfY3OfGLSk/WWm2fLKgHKDWc8PEJvjCZEaDn7/ADlcK/zJZtvexoc5Ck9wHAnm22/ym5p3yH/rXpUjqzCLBnMg91cG0JR4BJRB6ajzxWKazfZ5KZQPZRK0QB2LMVUIK7lp+xPVYrGhzUPwZRSgkfn+ALkx+BbGggG/7vSnUT5NCA6KUWVAHYswUkgYDNTcAab/kO/e3FaB+gBpL8gxxcYQchwIZ6c+FnJ0vGbtCekIPczeu5ArDn9YgEAgGJ0b/ylOXLxcr+TOZv9w9S6aCxB7429RHI4MG98+DHJohXXbBjIHfzWrYA7HktHsy7A2L3F8tVD9eIenFBqWEQpZTuCPTgwHeVC8q2609L3SB6qTlfAPZsjkYAJyinl1x0ynbvOBFIKwJGN0CARiAHGpaHfDxfPuegSWTwUyD3/SpnAPa8igTz1+DA98MOzgbtraUCoAYCuAMgQCPAgfvw4HsrhJ8uUR0Uu3040F66QhqAPa8AQVEBgqT4Gm/NDv0bM6SD80Gp4XSfsQLq/BUBJn3z8TrxwpNWpRUDpTuCrAHY8wp7EiTl8JE7Yed7c+S3FKG9QNmi1F/x+HXwg3tpJwIMe95VLhyzRrPlgt3oxK8Mm/T+A9jzSvs7feQltXfyPtOoahEt4gkCPNs53sDHuxMCzPLpsAL01XpJ+VY9ovP5CQo4QAF7XmFPtRWbf9j8jwbFrcUoEPEEVhtA4HoEuHAvLjyMB38wW74XdVncBChcDNgzQFIBl488I/f8vFL9eJVwYB7weAKPJ0CgNQQ4MCsLGl0rmrjHeErmdvvTvXIcYM8ARlBKs3/dWdvr9dJ+OVAPUHijO005wb0kEAFm/j6yVPDhHNnsgyZT2ns/AXsG7F5y+2UHd712VKUQlBq+fr6WwLEHvqobIMCFB+YjoyoEY1ZrLqm8Di+Rzt5PwJ4BrR0v36b/XZ1oWCFKx3iC9aJuMMjBLXQYAhkcuGcW9OZM2daLdoXZn87ez7RmT5IK6B34IaHry8XKWwqQvrmAOlvzdnXYOAR2bkoiwBQ+enSc6Oc1mk0X7V48fXOP0po9MYK6oPDMPWR+cZKENQYUagfUCRCIAgHG+zkoH7mvTFC8Te/wpe/aUVqzp9tPzjpmeWOufGS5gJUDYjyjGDnADgUIMIkkvbnwEB78r2Wqk1K33pGmwfPpy544Semd+H/WalNy9gTGMECgaxFgyr6/PlU697D5vDJNpT/Tlz3FBt/mC/Z358lpqxNEKXXtUAS/nnIIMLmbd1QIX5slazhpTc+MzXRkT4qiI+R3Qw7uOs3TdWJWFp/FgYAFChAACMSDABfO2qyzuYk0lA5JR/bESMqNURP3mh6vFt1ERykBjyfweAIE4kKAA7Gyob8tUGw+bxPpfelmgaYjexqdxGWN9z8rNPQ6ew6wOuMaNik30wQX3BEIsCFWFvTMePHYVeom2EmQgbQKnk9H9jwpdY/fqX99Kig1DHgTINA+BILaS4XoQ1XC6YctbozCyTQK/0wv9sQJyu0nV5y0vjtden+5AGgpxePn6ggTBnxnSiPAgTNzoDEbdJfUXpOLSJ/5e3qxp8NLyEz+sm364blIP1BqOKVHLLj45EGAA2fkQO/Okc/cb7qk8gL27J4ICA3+VWdt/1ikzBgL0YZn8vQ/cCUAgdRFgANnsKFHq0WfNSg2X3R4/GSazN/Ty/ZsQl1fL1M9USfOYIOU9vY5vFJ3qIMr7wgEuHBfDnxXETp5n0lrxz1YWqRvpgt7ejHS4MDnHrE8M148vAilhZSAllJHjCLwnWmLQA40gAt/vUy99rxdZsa65+z12rtKF/Y0OfGzMnfeRt0wHpIJopTSdoSDG+84BLhwbx7yRJ34PyvURyTua3mme75LF/a8oPZW7zL8aaasLwcGHk/g8AUIJB4BLtyDBw8vRF+aLFl60qqzYz6sm0cvpQV7UlRgC9/54hTJkAIkE8zZO876AN+c5ghwYdZY/sgCpGyr/ozMbXV38+il7s+eDg8BqTwTm4yjqoR9uHAGcHem+QgHt99xCHBhVg40JA95a5ZsfJNRYOjmuZvdnD2pQEBp9q8+Yfn3EuXwfASIeCZ+vtZxQxF8cyoiwIV78eBbi9AP58kPilxYty773p3Zk6ICOBk4Kfd826h+ZJyoXy4MlOgAewIEOhqBTC58Aw/+3QTx7ENmWOPtxoWLuzN7YgRlchKrzttHT5SApMyOHjPg+wECVxDgwqxs6M5SwfeNqjVnbYbuqzzfndnT4ib2wo78Tbr7KoWAPcHYBgh0HgIcuH8+8tA40U/rtKjB3z3jlQKB7smeVCBAkJTE6J+wy/DWdOnwQhSwZ+eNnFT01oFrTjgCjPj8KzNkuxCnxUV0y8LF3ZM9SSrg9JHHJO5/NChuyUf6MHWsAH0ABAACnYcAs/7+RK2ocpv+kMDp6o6lN7sne3ox6rLaO+cwnZfJGgsKb4CUdoBApyPA2J63l6DvzZJN22fU2LDuJx3SPdnT4iYWH7N8vkBxVxkoNdzpwybhc0DwhSmKABfukwvflI98vUx1Ue11+chupjzf3diTogIuHwlpvZx12serhIPzETpKCUTIp+jwA5ed6ghwYFYW9MpU6dITVljr62bmZ3djT4KklBb/jsv292bL++ZAPUCp4VQffuD6UxoBxvv5cJXwu6XK9Wdt3Szzvbuxpw+ndkAOzgbtE7UiVjYo1A6m7QCBLkWAKXw0vBB9pkZUtV2vsmLdSfqzu7Gny09W7jQ8UiUcUgDm7F06bFLaYgIXn1AEMtlQz7HQ54tVp+UeoxPvNuGf3Yo9jU78rMLz7Qr1sFwYRCl1XmxKQkcauOxuiACHzj56frKkbJv+oNAF2DMZEeCrvUuPW96YIWP9wgcint1wEAKaTlEEmPn7iCJ6/j7zoJmiAt1D+LNb2Z5LTtveniO/p0JIaymB9aIUHWngsrslAly4fy58Sz7C3aCTGHy2biH92U3YE2MKtXM268FKETA5AQJJikAOxPqF/3GDYstFu7hbJL93E/aUGv07L9n/vlDJygJzdrBYBBBISgQY7+ejNaLPFyu38B3J6PuL8ZpSnj0pihYE2Yc6c9dpnp8oBuyZpHZHt5yNgpuKCQHG+9k/D7m1GJ243+TwEhiR2v7PlGdPP07ZPMSMQ+YnxonoUsMcCGQWAQIFCCQpAly4Jwe+gQP/tFpzVOjS2lK7cHHKs6fRiZ9TeH5Zq83MgujFopgehuBkgABAoJMRYEMZ2dCfZkhrdxlOyz1kKq+/pzx7nld46ncb3popy8yGQJQSeHgABJIdAWb+fnMJ+vwUSeM5u5+gyJSdvqcwe+Ik5faTG8/bP5krG1UpyGCDKKWkXCvoZNMG/FxKIMCBhhaipTsNAp3P7knVwsUpzJ4uH6kw+yfuMd5XjN4AhJRSYsyAiwQIBBFgQwNykU8XKpYcNYtTtnBxCrOnzORfc9b21VLVQKYKVbJPWMCwAQgABEIIcOhc6idrRd8vUx0Uunx4Ss7fU5g9j4jd/16qenycqDcPlBoGc3aAQIohkMGF+7KhJ6qES0/aLO6UjF5KSfb0YqTWhi05Yf3DJMlNBUgPLtA/TrGRAyYKAAE6sjAbuq0I5W7Q7Uedqai9lJLsaXERx8Wu4s26O4rQjCwQ4AmoEyCQmgiwocH5yJ+nScdt16M6X4yZPl1/ekqyJ6L3le8yvDZDNigPATGewIoBCKQqAlza+3lvqeDT+Yom2GnzEKlVuiPF2JMKBEgysE/sfmmmrE8ekgnm7CE3PNgACKQiAhyYNYb/eJVw/hGLxOj3YmTXm5RRX0GKsafLR15SeabuNz1eJ+rBgTMAe6bigAHXDBAIIcAUPrq9RPDlYuXi4xatPZWU51OJPalAQGfHV5y0fLNUObIYpcXoQLHMUC8EGwCBFEWAC/fPQx6qEPzYqL6s8WIElSqFi1OGPSkqgBHUZa3vv2s0o8aJBuQhtCBIinYXcNkAAYBACAEu3JMHD+HBb82QrT9nl5v9qaK9lDLsiZOUwYFv5Ttfmi6jV4qA1RnqfGADIJDqCDBl3x+tFhVt0e1FnE5fang/U4Y9nT5yH+Is3qJ/rEYE2BMY3QCBboUAIx0ytAh9arKkbLdRlyJ1N1ODPXGCUtuwKXtNb02X3VaC0lpKwPZMdXMDXD9A4FoEMnlwn1z4kyWqcwqPw0skv/czBdiTogJ2D3FO6flmqermPKQvD2QWpWZo9LVDpVuZTuDWEoFABhfOzIFemypdfNjMV3qSP/YzBdgTJ6lLau+Co5aXp0hZY0HZIkCdAIFuigBT+OihKuE3S5WrzthcfjLJpT9TgD29GNV4yvrFAsUDlUIWGxie3XTkJMJ4AfZsyiPAhfvlIyNKBZwteoMz2aVDkp093X5axLNki/6JKuGwQhS4O1N+eACWBAiER4ALs9jwXxcq9yJOpTmpCx8lO3tqbNgRofOzhco+2VAPDjC7AAIAge6OAAdm5UC/nyQp36Q9hDqjTpvsghOTnT2bUCdno/ZputQwKLzR3YdNeJMEHE0TBJjopTtLBa9Plsw9bHb7yaQNnk929hy/z3RnmWBgPsICtTfSZPCA2wQI8OCMHKjHz/ysdVqdA3f7kzR4PnnZ0+DALyo9/12jGciDewM1EDCiAAJphQAbYo3hvzNbvuCI5ZLa2wXT8ih+MnnZ85LKs/CI6Z3ZMhClBFaKAAJphwDj/RxVKfx4tmzDeTtd9j35ChcnI3uSjCDIynP2t+bI760SgsyitBs5aWVkgZttFQHG+zksHxlVKpjQZFRbMVfyJb8nI3t6McrkJEp3GXvxEBCiBKgTIJC+CGRDPX/hf7dCfUjg1NiSLnopGdlTZvJvvWD/apmKDlECUUqtPpnBToBAOiDAhjJzoD/US/I2ao9J3FG4Ijv1lORiT4oK4CR1ROTKX6/5w2RJJhtEKYEoJYBAGiPApetH3FaMvjJZsuKU1ekjcSKJ3J/JxZ4YQdm95OKT1ucmiIcXoaDwRvpO2dLBsAL3GA0CXLgfF767WFC6TX9e4bG4iE41L8P+WHKxp9lFnJV7cjfrh4JimdF0LHAOQCAdEMiB+nPhvzQoZh02o/okKlycXOwJabyTdhvemSXrz4PppfZ06BngHgECAIHwCHDhHjz4lnLBG/MVu4WusOZgpx5MFvbEScrpJXfyHZ/OVzxUIejFxCsA9gQIAAQAAlcQ4MD3VotmHbWorViSFC5OFvZ0+0mpwTfzgOmxSmE/NkR7PMM/jsBRgABAIH0QYAoX31qEjlmj2X7JrkuOwsXJwp5qK7bmjO3bFaoRBaDUMHhyAAQAAi0QYEOD8pCXpkiKtuguabwE2fXJR8nCnhdU3p9XqUfXiPrTpYZbAJc+z1hwpwABgEAbCGTy4H658MvTZbtRlxejulx5vuvZ049TGhu27pz9zemymwuQXqBsURtdB7gyAALpjgAtnAw9XCOasNd0TuHp8sLFXc+edi9xXOyq3mEYVSHMGAuKZQK7GyAAEGgDAYY9bysRfLZAseCIWWvDO3WJvcWPdT17yq1Y7V7jH2fJbipqX6nh4DI9G6KrvYMXQAAgkDwIBEuIJ2QpmAMPzEMerRL+tFJzVuHp2spxXcmeVIDOyzyn9r6/UNk3H8nMbeOBE8VMNpML9+DSMqB9uXBfDtyPDfVjQzeAF0AAINClCARHYm823IND51wmxvPAhli/8F+aLNl40a6xYV2Yu9mV7OnDKUjjbThq+X29pAcn9igl2thkzMwsaFgeMqpc8Eq95JMGxVdLVd83qn9aqR6zCrwAAgCBrkTgv43qfy9VvjFDdne5YFAekpEQ3R8uzMqGRlUJs9dqtl6yO7xdpjzfZexJUQGrm1h7xvbDCtUDFQJWdoyCIFy4J5degBuWj9xeiD5fJ/5sjqx4g3bxEfOGs7YmvuMQ7DiGOMELIAAQ6EIE9vMdW87banfp358jf3ScaFAu0jshy8JceHgR+sIEUfV2vdqK4V20+t5l7OknKKkZ423QPVIhHEyXLYplvYhDP3xuzEeeqhX9c4lq0j7TytO2vbDztMwt0PlkJr/KgmmtmN4GXgABgEBXIqCxYnKT/4LKswt2lm3Xvz5Fcldp0FRqXx42F+7Lg0fkIV8vVh4Tu4xOvEuCP7uGPUkqoLPje1HXO7PlrF/4saW0c2jgbilAX5wg/mmFevkJq8KCuZK1blSLZTqwAyCQpggcl7jLNuv+PE06hAf3aX+lMqbw0R8mS2YdpKOXusT87Br2xAhqL+ws2qh9si7GUsMcmJXFv6MI/Wy+fEqT8bDQJTf73X6yS7BL00EAbhsgEBcCJhdxWe2t22X4wwTxyJL2BdgEp/850J1lgrdnyeYftfjwLtD97AL2xAjK7CKm7TP+T70kNhC5cB8efHsh+tY06ex9xnMytzv5Sp3E1a/AhwAC6YLAQYGrZJPulSnSfszSRbtW4blw/1zktiI0Z4NWYcE6v3BxF7CnxU1AGu+PKzU35iJ9o3chMzIBwwuQj+bKp+wxXlR6HB6C6CJvcbr0dHCfAIFEI2BxE6jOx96gvaMEHZDX3sJlPThwHzb08QLFTr5DavIn+mIjfF8XsOcFlXfBMcufZspYYyEWO9oQsB48eGg+8ux4ce0uw3Gxy+pOIonpCBiDwwABgEAzBEgqsPqc/cslqofGiWgGaE8cKLOA/OREcdYG7S7E2exHOmOzC9hz5VnbR/MVD1THAhwX7puLPDFO+O1S5X7U6fKRwOrsjN4BfgMg0AEIUIGA0ortRl3vNyjptMD2sCczeb2hELmlQlCz39QBFxvuKzuVPV0+UmfHKncaHqwQDi1EY0CNDQ3JQ/6xkE5ulRg72z4Phx84BhAACMSOgBejFFasusn4whTpzcVoezmUyX//bo0GUntNzs5Lfu9U9tRYseNi1zfLVL3GQnS9zChSMOlzuDBrLP/WfKR2t1Fk8He5sErsXQV8AiAAELgGAYoKeDDyqNg9frfh6VpRzGGL11EHG2KN5b8zSzb/oOmi0nPNL3Xkm05lz4MiF2+T7vnJElZWDB7PTC58Yy78XI1o2Umr3UtgyVSStCObBnw3QKA7I0CQlNqKNcHOb5Yo7y8V9M9th7AvB2blQA9VCT+aK1973u4nqM4hiU5lzznHLPdWCAbRmUVRu4oZ+Y9R5YJP58j2wJ3tFe7OnRfcG0AgCRDQ2vFpe43vzpDeWtTe+XtGDtQnB6rabbT7SH+n0GcnsafJiV+Uu3kbtUPzkN4xpRlwaOWkV+olxRu0p2Xu8M1NkJTHT6I63wHUuZvv2H4JvAACAIHORmDnZccB1HlR6bF7IgfGOH3kCal7/B7j6Ininjw447opeUxv2VDPHOiLJaoN52ydszrSSeyJaLwLD5r+OlfeM4tRRYoeFDbUlwt/0qBYfMQs0IUr5UwFAnYvKTXT9ZHKNmm5azRjGtXgBRAACHQyAtmrNaWbtIuP0gu8EasPUVTAT1BHZZ73FiqHFKM92yFTyeLAmTnQ7+pEv6xQHRK4SCrQ0elHHc6eJBXACGoL3/nhfMX9VcJMToxaSjlQPw78r6Wqzeds8rajYYO/svqi46tVmrfmyJ+bIH6qTjy6VgReAAGAQCcj8GSt6Nk68RcLlZsu2NVWLHwOJRUIkFRAasZmH7V8skh5c3vm71w4gwOPKERfmCBecsJqdRP+Dk7f7HD29GKUwUlMPmgeXiqIIUQpZJzm0DrH/12lOYg6tTasrZm7x08ancTYTTr6J7LpBTj6/+TR1gZXAhBIHwSyIdYY/v2lgqItugMCl8Ud2Qfp8pGwxjt9v2n0OFE/DpzZngjQbGhYLlK8TX9J7bVG4Tpoi1Ki2d/h7KmyYFsv2L9bqR5cENeaWg50AxvOXqc9I3UbHW1GcslN/r18x2eLlVdIk81YuEEpVvA/QAAg0MkIsKFB+chvJ4hzNulgvR8nI0yicYKyuQl6/X2x8vFqIZ3AHXdhXTad/P7WHPn4PUa+NpyvLxp+DH9OB7InRdGFN07LPIUbtK/US/rFh0gO1J8N527S8dVeS9vZmZcUngUHjO/Q2Z8x6t2FjFywARAACCQQASaC/cVpso2XHFobHk2gocjgm3vA9PF8+ZB8JDbVyuaXzYV78ZB7yoUfzVPsgJwefwfmJXYge+IkZfeS68/bX6uXDM9HesS01B6CI5tmz/zNOlTrtbVth5+Xe2btNb4xQ8Zo1Ecdhx/6FbABEAAIJBYBRtbnoWphzlrN1ot2uzfy+rvDSyI6X/Vu4y2lAlouPd7ryeTC/bnw6GrRzINmkd7n6jAltg5kT5uHOKvwVOww3FmMsrL48Tg9ebQTs38OXLhFL9T7wgRAnJW7p+0x/PkKe0arPBJ384APAgQAAhEQYGzP4YXoSxPFldv0EqPfi0WQRAuu/W667PzzbPnt5QLa+xmfA5QLs7KgEQXI/zaq156zqdteLwk/MY94tAPZU2TwT24yvDtLNjRoh8cHBGDPeJ/AETo3+FqAQEcjwJS5HcqD/96g2I86dbh5uacAACAASURBVLYI9EkFAhQVgLS+uUfMf5mv6BNcZ4vvIjlwv1zkkRrRd6vU59XeiDwY3wkdwp4ESTm9xAGB65+LlA+WC+L0eAZRA+wZX+8BnwIIJAMCdDEI6Mnx4tJt+n0CVzQpQGYXfkHpKdqiH1mI3tAO87MHFx6QC78yTbr+gt3giMrxGiuHdgh7ejFSavQtOm55dry4LxtqZ/wBmLkDKxIgkKoI0GXD4aGF6OO1ouomYzT1x3AmY3DJCesLE8S3FqMxZHVf+7TI4NLB849UC6t36I+LXWH8frGSZuj8DmFPoxPfcN720yr13WVM/bz45uxBLIDteW2fSNVRBO4ibRHgwr158KBc+OvlqhMSt87eZtxhiJUCgcAxibt4i+6lKVJGUSiuFSTG8XpzMfr2XPmk/Sa5JYLfoPmvR7ndIewpMflzN2qfrBUxpYbbt4YD2DNtRx248e6CQAYHysjivzpFUt9kOCmJoFYRZC6DAz+n8HzfqGb9dJkOpIkXisxcuG8B8sFi5RmVFyOoxBYuTjB74iSls2M7Icff5itGFCB9oi9b1BY6gD3bQgbsBwikCgJM9NLdZYK3pksbjlpcfjJi+KfHTxoc+NR9pmdrRe2Zv9Or9mzo+SnSBccsiMYbPm00SpMzdFqC2dODkWdk7vq9xqdrxawx/PgTBkLdArBnCAqwARBIaQSyIdZPl39Zo9Xa8ShjMPfATvZqze8miJk47rhmsUwN84cqBD+vUG08a3NEEXYaIseIGwlmT5ObTml/fabslhIBnS3QHo9nsKMA9kzpAQMuHiAQQoANsbKgN2bKZh0wnY9OAV5i9O+47PjrAiYDO77cTcb2HJaPPDVOVLxZJzH5fXjCpu+JZE+MoEQm/z+WqeNeJmvFu9FV7Bl3qESor4CNiAgEQU4g1KEvjPjT4IS4EYi7vZj19wcqhe9Nl645Y8NJKkL0fCCAkwGHj2Rv1vfPRXrGfcE8evLO+oX/wRz5EbHb5CISRZ8JY0+CpGCNd/kJ6+vTg+mScZnZLQHqEvZkypzSk4Wg2khoTIKNRCHAYTp0UA0rixHEakdmHv3QZUYm3WRZEGg4Go2OeDEFMGh4g0MjjpklFx6Sj9xXjFbtMIgN4bIHg7Nmkgr4cKrxjO2zRcoHq4W0alp8FiiH7hi/myCu3q4/JHThEWk74qSdOSEx7ElSAS9Gbjxv/+8K1WPVQroHt3MwhGi0K9jzhjzktiL07jLhfdWi+8eJ7q8Rg1eCERgnur9adF+F8J4Swcgi9JYCZEAe0srMI9QNwm5k8OAeXPiGXGREIXpXieC+cuH9VaL7a0DDJbrfjhPdXym8p0xwezE6JB/pEbZR2mzNHChzDPTFYtXGC/ZoFOBJKnBZ5VlyzPznGbJeOVBmfOzJzN/vKhO8M10695DZmaCS5olhTy9Gae14yTbDw1XCobQSXSI8nsG26Qr2/M0kScFW/dyjlpXn7asvOsCrQxC44Fh2xjb/mHXcLsOY1ern6iVXTMhYLRou3IMHD8xHflMn/mWNZtoB8/IzttUXQMN1TL+9YJ9/zFK6Tf/+PHmcmpMcOCMHerxW9NUyVRPqimjkUYGA1U2cV3r+t1E9ogDpmxt/8vuAXPiOAiR7rVYUhdkb8cICgUBi2FNtw46I3J8sVCZeIK4z2ZML98lDbi4VfL5cdUjsMjoTZeBH0xDpeI4Ppyxugq/x7rxsZ2/Wja6X3lwmYLFjHB4cuH8e8lit6N8rVFsv2VUWf0criqdjUzW7Z4ubOCNz1+w2jK4TDylAMmONSmR8LAPykIeqhDMPm01OPJooIquHmLTP+FK9ZEQxGnMPCdnIObT3873Z8o3nbUJ9AqQ/E8OehwSu8i2630+S0A6R+Ezr0B1et9Fp7MnY9reVCt6fI5u63ygz04Owo+uiNOuT6bhJMjVt7F5CZ8fOqLxrLznena+Ize3DBBLeXiL4ea1m4wW71OT3+MkEObXSsUWiuWc/QVndxB7YmbNW88JkCV3kMdYhz4V7cqDh+cjPqzW7+Q6Ntc2aEaHr8WLkEZFr3E7Dk7Ui2kSLzzHI+G0fHyf6drFiywV76Mvj3mgve2IE5fKRDUfMb0yR0HmZCYlSak6gncmeOdADlcIxK+kaSta2lZjjxhp8MAwCGEGZ3UT2Bt0gRpinTa9Z874RtHqyoQcqhNMPmqVGv9tPhvkJcCiBCAh0voWHTJ/Ml/cLLgBe1y4R37LpemWvTpGWbNadkXsIklZXCvOPICmtDdsFOT6YIx/EhXvF6t4JXg+zkja8ABldIZiw22By4h6sXR2mvexp8xBSo5+7QXcjD+4bXOaLCFxMJ3Quez5cLSxYr2m6bO8ITYEwnQMcoqiAByOrdxkeqRDQrvMohwej5DiqUrT0lM3iJiJmsACcE4WAwuzfct7272WqG4IL8TENauaxl8mFh+YhL06SrL/gcGMUEZbH6NKbOIXofGPXaR+pFg2Mvoe0uLDeHHhgDvTdcvVRkSsaszcMYu1lT77Gu+S45f25CtZYJr6nxbVGa0S09cHOZc9HqoUlG7X7+Q5H2zr2YdAEh9qDgB+n6veZflcnujl6ZR0uzBoLPVwpWnnW7qJrMLTn98FnY0BAZcV28x3fN6rjZM+r84aRxYLS7YZTMk80sz2DE1980vrlUtWdZQI6einKR+x13MIE7b8wRVqwVX84uqT7tnBpL3tuuGD/cLbsgUph/K7c6+7turedyZ5Z0COVwpINGsCebXWXDt3vJ6ipB8wvTJLQiWqc6NaOaPbkP1whBOzZoU3T8ssTwJ5MEPuQfOTtmbIJuwzRLON4MUpk9C84bn2yPYngzBS5fyFyR5Vw9glry1uLfk/87OnykSoLNqHJ+FCZgFaP74hpe2dW5mBkXAF7Rt91En6mn6CmHTS/OFnClLWJmj3HAPZMeFNE/sLEsCcX7psLP1Au+GKhci/itHuI8GEuBEk5vOQhES27fl+ZoF/c0UtMhcrePDhvi16kixy03xYc8bOnxoodQJw/NKr7ZkGZOfFLSEWY2nea7QnYs60+0ln7AXt2FtIJ+J3EsCcPzuDCPbKh39aIG45YJAZfxGUcigpIjP6pe40fzJbfVIjGv0ydA/XKhr5YqFh30iKJN3opfvY8KnVnb9Q+N1nSI5i2dd2MO1FvAXsmoKunxlcA9kyNdmKuMlHsSc9Zc6A7SgX/Wa5qPGXVOyJrJ1vcxGGRq3ir/u7ydng/OVAmG/pNneib5ao9qIuuOB920b/VpomHPYPFm5actd07TtQ7F4nWRRUfnwL2bLXduuNOwJ4p1KoJY09m+WhAHvJIpXDMag2q90UkMYIMuPzUmguOx2tEGXGvHQXpiAuPKBPOOW71RFr0b7Vp4mFPsws/I3MXbtWPKEZ7ROndj486k9XvSVG0+gtGUODVKgJ+gvLhFBFj2HpHsycVCBBMq/lxyo+DtrsGARoTpj9HGbeQWPbszYNvzEPemy3fdMGutGDhI88oih56x6WeX1Zrnh4vpotOsuP1HDI1l7LWaw8gzihLhjSn0ZjZkwoEBDrfnIOmv82TD2Ss7giOy7h5M/jBpLQ9g9Ivdi+pcxAqG66wgtc1COgcuNVDeLGIZkTzrhjocPZkUpucPtLkJDQ2XGnFFZZrLjtN29FCQ6Gy4gYn4fKT/uj02xLJnswaDmss9MQ4UeUOWgMpmuJxSrN/3Rnrv5ephuUhdPRSfDzDhvrz4DdnSGu36y+pvDE+7mPMcw+m1u0RuD5ZqLyvUkhH/MeapBXrTSYle+LM2t8ZpXfSPtMva7RfL1V/uVT95XL1lyvS+LVc/eUy5rVcPfWgma/2mpyRfVjN6bNz2FNjw7dedIzfZfhvo+bLJSrQal8uUX3fqCnaql99zq6x41EmKCeYPZk86RuL0WenSKv2GPVR9BynjxQbfLV7jLeUMfFtsRJL8Hwu3IsH31UqeH+2fNtlh8tHhl/0b95dY1YJ8eGUzo7PO269v0oUv7Uc030mK3vaPOQ+gev7lepn6kQjcuF+2VBGUFkyB6KfhGn1YgQfM7OhPjnQjfnIPZXCn9dpT0ndOnvk/OXm3bHD2TNAz/jkZmzBEfO/FimfKBcOZcM9g2qV2WnWZMH+mQ31zIYG58CjSgUfzJHXM4Unu4Y9Q5zAhf+6RHVR43X7yWiWcdZecjw1RTKoCM2IO2KSSVe7t0w45YBZbPRHY/aGOm1sM3edHd960f7zas2twcIboXvuuI2kZM+gDa6148ek7mn7TR/PkT1aIegVZE8OY4+n1f9M8kZ/Dnx3Mfq3BsWcY9ajUo8x9iTijmbPQCBAUgGXjxTqfdsu2cs3696ZJh3KxNvTT7u0arJgcvpY/o1c+PXJEt5azfrzdkjnc0WtsZJg2zNIIEzS50tTpfMOmy8qPdGYgacVntLt+lenS3ux4811ZNyPNxei/1ysXHLcorTE8MiPlj2DntpLam/pZt2r9ZIElBqOknCTkj1DD59AIIBovbP3G79apHykQnhjfgdHIEQJWmeexqGrdQ8vQH5bI/p7g2L2YbPOgeNxZUx2AnuGGs7sxI+izrod+tcmS0YWoz3jtlw6E+pE/RZzs7148O1F6CuTJSWbtLsu281RTJZD6AUCgY5iz2zooUrh14uVjaesjIZx899sZTsYdf7zas0QHtwzbi8iBx6QCz9ZIxqzUn1K5vFi0cp0RcueOElLMW7nO96ZKRueh/QKpqkmqjnDfE/Ss6fDS0qM/s3nbcUbtK9OltCVRONeAQyDQ3Ie4sKsbFpq7I1ptFjOLsh5pepWbMtFV0ZFZ7KnH6fMTvyc3LP0hOWfy1SDCtErtmd8qdPJ2TqtXlVwrSIHGpaPfL5IOfeQ+aTErWfcna2QU9u7OoQ9r0p/3lUq4G3SKa1YxOB5L0YanfjUA6aHKgS0SRffU5AL9+TCQ3jwH6fQBZfUVixKidho2dPpI0/LPXVNxkeqmMIbndbJkp49gx1MZfbvhxzFm3W/nyi5vVQQZyu22t2TcyfT0fvy4PsrhO/Oktds1++FHdEIPbQ9Hjt8zb3lTzt9pNToW3TK+pfFqkfHiwfmI72DZkGnde/ObFyGWTIZCfBR40R/ma+Yf9QCqb3xyYl1CHsG0aAdQfwP5yt28h0yk79lq7Xcs/Wy4+8LFA9Xi654YOJAlfF+PlguLNys24c4o+zJ0bKnxobNPGD6yxz5rSXt0HaO465ShD19OC0Ze1rmXn7S8u48Od2KQY307joOmcTWEQXodyvUjaesl9Veq5vAibhszqujoTNtz+BvEiTlxUilDTuh8BZs0z9QIRiSz4S/xD0HjKOHd9pHGK9iLx48vFSQtUm3T+CSmGhF1FjDcoPQdSB7MjUZnxkv5q3V7IEcV3tHuL+QxrvomOWDuXJ65hdf9BK96A/fWIi+Ui+p3mFQROf9jMyeJBWwe4iTUvcPjepRFYIBQfO405o8Rdgz2LZWNyE2+KYdMn+4QPlorXhAZ7o4OqdFGJOzFw8eUog+M1HyzXL1ytM2oc7n8sXl6bx2RHQ+ewZ/HycDHoxqQl3cjbq3Z8vvLWPmgAnX+e6cBmr1V5h4oEF5yB0l6GszZT+u126BnGYXEU1JjGub6Nd3HciezNWOLEFfmSCeecBk90S+TqMTv6T0sNdpb+LBdPB8fCYLLVmCjCxCv1ykPCxyWd1ExOdKZPbECEps8DWesr42RdonB8qM78pabdRodqYUexIkncSiseMn5N4fVmvuKkEH8Og03jibMxp8OvkcpqTXwDxkVLWwcpfhjMKjY1xmsYYZ/zoKm211FXtSzFq800dq7XjDEfNfZ8seKBN0K/81G2KN5d9bir45VTL3iFltxx1MUcloQoKatc81mx3Ingz99WJD/bOgMWs0Qr0v4jw6OIeYedD822rhiCLGhR0XTWVw4F7Z0B8mSxYctUAab0TvZ2T2dHjJ1eds3zaqaRHPhJctijj4U4o9g/0LIymrh9h40cHdqHtzpuy+csGAXCaZLK4WjTOJIiKwsZ7AzPtuLEAerhR+vFBZudt4UOy2egh/+2brzUdkV7Fn82u4oPQsOmr5qVH94kTxLUVoyj/5mFYbUYg8Uyf6drlq7iHTBaWn+f3Gvd2x7BlMvhzLf3OWfM5h8wWVN5rr3IM42Ws1z0wQM6Wx4HgGDhO9dE+F8LMlqiWnrDZvhBlVZPbUO/CsjbqRpYIb8roiHCcF2TMQoPVa/ASlsGDT9hrfnyG9rQChtfdT2pvG1CN8tEL4+Tz5+nN2D0ZiBNUe46XleEgG9iRIuk7XQdhRs0X3bI2I9UuKR1DkQKyf+U9VC3lr1Dsu2eMQH2jZTME9Hc6ejI/ovirhO7Pla89HVcFNZcEOCZz/aFCwfrocp/eTMSl65SGDi9Dv1mm1kQSfwrEnSQU0Vmwf6vzbAkV/Hr2o3wUz0NRkz2APc/vJU1J3w2Hz98tVz48XD+YhtPGechYoB2JlQ3eWCP5nqjR3g3bdWZtAl4Bqri2HZTKwZzCiXmn2H0KdNTsNH86Vjyy/KnSfQg3HUE9Q+e3tmbLSLbpdlx0SQyJbrcPZk5m/DylAHywX1jUZVRYsom/d6SXkZn/hJt39JeiV6KVYJ1jM+ZlcuBcH/mC+oglyqC3+MF6pcOyJk9QJiau+yfDCJAkrK94qoHHdwK9WdyqzZ5AgTE686ZKdt1p9fyHaYww/I9Us0Ew21HMM/7XJkkm7DCfirQNDUrS+UXhbNUnYM9hqfpySGHyNp60vTZP25MCZHFrH99du2c5e3dEf58KZbLhnFvRyvXTeIfMFpSe8alHLJxlFtxcVhjg6gz0ZibWeY6DvG9WHBU6NLXIWEE5Si45a3pshpaU/45Z/49AhU89PEE/YrjsmdIZJeWqTPQkq4PKT0w+ZX50uva0jSg1H2YGSmD1JRikLjzSB9fpJudG/67KjYpv+7dnywYVXHSBJPhqD9gsHHlUj+vdy1eyD5lNStzaKHtxyKPpw6pzCsxdxqqxYGBnajmZPKhDACVqHLQwphC6eICmbh+BrvQ0nrP+7WvNEnXhwPtIjiEmUXbdLTuPAGRy4Jw9+sEb0n0bNvKOW80qPwRGGAUJ3fM2G2ODbcdEu1PuwNuDqJPZkw5k50Av1ktyN2mNRPLlJKnBK5p6yz/hivTT+RRpm0f+2Ejp6adoBE11tsI1IvDbZ0+0nlVb8P6s1Xew4T2L29GCU0oZrHbgPjzwgHV4C0Xrr95ueGC8eVID24sGdHb0Q/WDm0nZWTx58Qx5yYxH698XKXZBDGXYKc83Iu/omuJbt9pNyMzbvkLlsi/603BOGvDqaPXGS0jtxhRVz+uhUvDZGxNWrZ/7izALgPoHrX8tUj40TDs1HejPgJKf7hW41DjwgD7mtXPDXJardqNPkxGMiTooKeDE6cnnLBXvOSvUuvsOLUa3m3XYSe3Lph8FNhcjvxotXnLb5Iw00KhCwuolzSs9ni5R9cyBafTj6bn/dmUygwn8aNQoL1pZ0SJvsCWu8q05a35nDBH635yKuu6ZY3yYxe17S+Qp2GeoOmBG9z+mLIAmDEXSnPKPwzDtu/WqF+u5ywcA8JP6qLLHCGP35zIO3Lxe+vRj94wxZ6S7jFsgpt/hdkW7wGta5Sj1uP7mL7yjbrPtgluy9WfI9qItom7Y6mj3NbmLGEUvOZv0BkdvmiSq2n5aDwSmVDdsrcNU1Gd+fLXuwQtiLToWIV1Ay+oaI9Uw21IsD314ieGWarGiHYQvsVFix6FO2A4EAQQV8OHVa5p7SZPhqkXL0ONHcI5YuZk/G+9mXS4vIVe40QBqvLVKpcB9OKS1YxTb9s3Wim0LzvFjBpCVHIVYW9MZM+aKjlottLPq3wp4kLZxObb1o/2m5anRtO5Kf4rjilh9JYvbcLXQ9PUX60kzZ4lPWi2qv3UtE9C75cMrsJladtf11vuKJGtHgPKRPMLg3SWbxXLgHB+7Phe8uQf88TVq53QDrfF485rX1YPydwoodl3vyNmifqRLenAs/XCXaeClc6khHs6fShn2+VH1PhbBil/GEzK2x4Z6o9SACgQCk8U7ebfh4rvzuYsHAji5I03IghNnDGGgDePCdJeifZ8iKtunPKb1hbPyWz7mgD8rgxC9qffX7TK9PFN9VhGRk8St3G7uePZmI6YE8+PMlymUnrZIocjedPnLtGev3y5QPVgrjnzozwV6PjhN9tUi57py9VQ9GK+xJJx16iLom40MVgmEF8Sbeh2nsmA4lM3uirqcniEcUoC/US4q26hlFywh6wEFbRmbGDohcZdv1r0yS3FGM0uFpyWDLMJIf/dnQk+OE3zA99ZLaa/OS9GpPywEXdo/NQ0gMvulHzG82KB6rE9+Yh/TlwA/XijfynWE+1+HsacU+X6QakAOPrhX/e4V69VkbqvN5sQgxfaELtnkIWONbcdL6yyr1cxPEmWPjTQqMqf9Hc3IO1DsLeqZW9O1S5aLjlvMqr9lNp8lE32pejNTZ8fWXHF+u1DwzWXJLIdKfR0+ZK/eYkoI9GQ3je6qFf1ui2i92h1qkrQ0/QSFa3+IT1hcmS9sV+8mFhxQg95UJqnYZ9A7c7b++q7TCnlo7fkLq/maFmjU2CYLdkpk9EdfTdWI6JHAs/8V6yfjdht2QU2uLHFoRbPVDQlfpJt27M2V3XbFlujSYiQv34MJ0WHWN6MflqqXHzApzVAIN1/VgL0aaHPhJqXvxMcuHCxS014l5hrPY8MPjk4A9FypZ/73MGsO/p1zww0r10hOWy2qv2YVHzMkL3aaU0dPKXqMZXS26uQilHaBdOG9gVrGGF6K/qRL+1KheecIiMcTWajjjUII13s0X7T+v0w4PLlUzaqcZuXDl3uRgz+AjhAvfXyNadMpqceHhJ3kkFQiqGn2+SDU8/+r0LprnUMtzGO/nP5epDgpcKuv1i/6tsOcxsbt0s+6legmzaNXV/p1kZk/U9fR4cfAZM6wAebRS+P0K9drTVlQbVWCd2UUgWt/Co5bvlqkeqxJ2WWrg1djA/lz4vdmy8bsMe2Gn0hJZHCxEKM031BZsH99etFH7u1oxLSgT8ktwkoM9FynpUOps6IZc5J5SwXszZf8v8XkQdUZUQgvdo9tPam3YIaFr7mHz26FVgc7n0OAv5tCxNX+eKRu/29AEO1UWrKV9FLryVjdsbuKkyDWtyfjuDNm9ZcI+eUioyZKLPZksoJElaNEm3TGBM7waKR1cQVIyMzZ+l/FP06T0Qy5u1QIm2PmFyZL89drDQtd1GF7DnhhBObzE0hPWP9VL7i4VxP+TLSk87j1Jzp4TmGcMs9LCGsMfPU70v8tUC48GLRriOqxbfQtpvKtPWX9Yof5tjejGzrdlmEGYwYXvqxL+fzTVpD3GExKXMUah3OB92b0EqvOtO2srWK95dbKkZ9a1E1tu0rDnz8yFcejU75GF6NvTpWVb9XtQl9SM4WS0Hl6LmxDovBP2mV6bKb+/WnRDHtIz+JyIu5/H9EFm3b8HD76rQvjyVOm4XYbTUlqjs9UO1tZOP07JTP49MC0R/dFs2c15TDpcMzs6udiTyd0cmo+8N1s2uckg0Psihp1ZPcQuvoO3QfdgVTu8n8zQvrMEfW2SePFxi+PatY1r2NPmIQQ6X8kW/c08uG/csaYx9YOIJ6cKezIW3AAefGs++v4sWdU2/WlZZAdNIBAI2jL7EGftbsMzkyS0k7vTkA+SPgfukYv8a6V6O9+B6HzX9Y+2xl7L/ajON32v8bMGxYNlgiF5CJ0U0GwospKNPRmXQh8uPCwPeapO/Pli5bLTNpe/9eicljeLE5THTwoM/u2w85sV6jtK0M6TMmBarScX7puPfLJEufGC/ZLa6/DSibMtrzPMHoubWHnS+sNy1e9qxTflIS0rPCYdezJRdDcWoe/MUxwQuyMmCvsJWq9n1Tn7MxOvmjgR2abVE7hwHw40nAuXbNELdL7mi/7XsCeq8y0+Zvm4QUGX6IlPJq/Vn2/PzlRhz+A9MhV+7i0T/HmatGKHYTfilFsiWzQESWlt2FGxu3iH4X9my++oEPbJZaJBm7NPezBs+VlmBN6Qi4woRp+bKv18pWb5ObvWFvO8j6TDA0mVFdsjcI3fa/zLXPmoSmEfNiMrdd2PJiF7XvXJDslHHqwSfrFcPeeE9ZjcY/cQEcV1gqzkxSiDE1951vbf1ZqXp0hvL0H75TKRLh3UcPQTGurLg28uQJ6ZJPlshXr+SavKijkjiVk051CMoOxe8qTc03Dc+s0y1ZO1oqF5rScQJx17Bq17NvR4nXjuEYtQ7/O0WMZpfqcUE4B1Uu75aqnq3nIB3TRxt0sO1CsL+rhBsfiYBW2WpnwNezYhzk8bFA9XCTOvMxyuGwmd+Ta12JNp4F5ceGAu8nC18OMGxTbIGY1Fg5MUXWHV5F91zv7GbPmwAqRXsG5X3O0dvo0Y+e5bi9DnJkpq95gkZszsJvCwmXnN+2VoGycooxPfjTi/WKp6sDpsMHlysifTXj24cG8uPLgQvbVSWLDDINL7rJGCCoMIBNMZ7V4S0fnG7dC/Xi8ZUcAwUQfFRzOK1Dflws9UCws36i5pfEYXHbUacQ4baq9AgF5OEZv8+Vv1j9eKRhSjfZnVwlZpJWnZ8+5ywc8r1RvP2iK6mCgqIDP5Z+83/m2efHgh4/0MPy7aOsqlU3UfrhJ+2qBoQn6NG7nCnk4fKTH6pu83PVkjGpaPxF/es62fj3t/yrEnY9FkcuBBebRF86+VmrnHrWeVHksk6XWSCngwEjX45x23frtS/dxEyW3FKDOfSujCHeN9v6kQeapW9NUS1aR9piMSehIU0wikI6tJmjcvKD3zjlq+Xal5pFbUPw+hUzvaIo6kZc+gRcO54jB5abqscIt+w3m7SO+LvmSFy0ceErrq9xg/X6gcXSsalPA8CGauMCgPeaxK+PE8+bjt0ukA3gAAIABJREFU+j2wM5qiac150+YhZEb/ugv2/K36P0yTDsy/Oltv4wmdjOzJDK6hBcjzE8WFm3Wo3k+7qpvfZIttq5s4JnKVbNPfXSGMPy6QcTQPy0eerBFN32+SGOnsmF/ruaut2LaLth8b1cN4SEZ2Qodr3LwZ/GAqsidz5RlcevbdmwuPniCeddgs0NElqls07jU7gqmNfoI6LfNw12peGC/uz1QpiD/brCX4bIg1hv94lTBrpWrzeZvDS8aUyRe6XD9OXVZ5Gw6bX54s7Z0N9WBHEtFIZvYMosR4rnvmwIM48L+Xqjads0VZVIcWJGQWeTVWbM1p6w8rVHcWobQgYRusFE9rcmDWWOjuYvTrhYqlR81aG+MOCjVGdBtSWmzBTqcwsqGeQdGTsFeYpOzJY9KIc6A3ZsmPSj0eLMKDPzirW3ne/kidOH72DI7obGgYD/mxUb3tIl057lf2VFmwLedt3y1XDWGqI8XTwC0HakL2pCx70oOHGZDDi9G3ZsvLttH2gtzkj8anprfje2Dn+N2Gj+crHqsW9mx/aiBzJSw2dFuJ4O1Z8pIt+m0XafMq+jjH0AglqQBdD/2ivXSr/t3Z8pGlgqhWupKfPa+61XqyodG1oi8XKWccMB0Tu01RRyC4/SSi9W44b8vbpPufGbLBwTqd7QlmCrZaDjQ0H3llijR7rXbVKetllTe8vy/UUqENtZUWvqzfY/xsofLRcVezB8NSJ4sHJy170sMqG3pqgnjqftNZhSd8tFmwlPpRifu7lerf1In60tZrvNZhFjSUC/93pXrnZbumOXsC25OecmZBj1QKSzZo9vMdjig8X7vpXKMolvMYw+HRSmHJZt1e2GGJol5KsN+L9L6lR82fNygG50A0gbbjaZTBpGD2ZsO/nySZfdB8UUkXrQ6Nrig3ghaW209uOm8bs0L1REwxqinBniGEs6CBbPit6bK6HYaLKm9Mng2Hl4A13gl7jQ9Ui3oz84/4pe24cAYb7pUFjSoXVG7THxPTxXaibKzgaQRJ5+kfFbnKN2lfmyxhBaO1QrcZdiOp2TMHuqdc8OVC5dLjlmgwkZn8K09avl6sHJJLM298QykjG7oxF8laq92POHVMfBjwe15VYek49mScVjcWor+fKPluhWr+IfNpGe1qjDgMrG4C0ngbT1lz1mp/P5mh6TiCfjl06vrgfOSJOvF3qzTzj1nPKTxGR2zSOwF6Zhrw4tRhsXtCk/HLxcr/dwANL2TKT0YyYa701NRiTzbUmwPfUyb441Qpe7228bRNZsb8kaQIgw1KV4p34cel7ikHzf9Yorq7XDAgDjcobXXSc//BRegH8xXjm4wHhS6NDYu+jhvJrDhDWt+So5Yxq9R/mCS+o4QpNNKWY7oFkyYvezLez8H5yCOVwtyNOpkZizia7B5a4axyl4GuehRHVvRVv+dTNaJZh8zKq1kJYM2949kz2C8ZC/SuIvTDmdIZ+4207FV0Oml6O35K6s5Zrx1RiA7MQ3oy5kxUD0+myXtz4WH5yOM1om+Wq/YJXFYPvbYekbibnxCUkDC6CNTor95lfHKccEQ+EnMWb2qxZ3AWnw31Y0MPlAk+X6TcctmpsOK01GN06NFyMC5ixRnbO7NlD1YK+/NgegEw6icNHc7Jg4cVo7+dIp19zCI306WDmzdKmG2KUfmxe0mpBVt20vqXmdIHStCe2THHICY1ewYLH/3C/3Cu4qTcY/UQERaPGLxWnrc/Wie+IY9ZFW/xtAg3psKvuQcbA8R7dsjMPdhOjAU6MBe+pwR9a6Ysf5NuB+R00+KJEbjM4ycNDny/0DXloPnDBsWIIvSGKGvMsaFeOdBDFcIP5sgn7DHuF7rUNjyiQmLLYen0kXKTf9kZ2xeNmmfrpTcVIHTR11it4JRjT8bA6cmlzfYHqkVvzlWU7jSckLoNjqiS4gmSVnsTGv3bIWfhFv0rkyV3lgiikoNhUgNvLkJ/O1788wbdivP2y1p6hTdiPwk1nB+ndHasCXVmb9a/Pkt+T5lgcB6cGQwqiIUykp09mcni7ydJJu8xnZS6o8HnhMyTu0n34hRJT3aMujzRxHuCXKMOZM8rFigtGngjE3rC3aQ7JvfIrfR0LKJFQ3OoE59+0PzGTNmoKuGg8JXimdWGwbnI/aWCv8+T1zcZIU1UVQlDIzC4gRG0vvpltXf9OdvXK9R0EnTcUaipyJ6hxx4jdPL0JMnEPcaDTImI6C3BQCDw//nRxRu1b02X3ZKP3MCQcutGKNNq/XjwTXnIH+qlP67W7EZcdN+I8Hj9tdFIKuBiHnV7YGfhVv1940RX2iuudZJkZ0/GHLmvQvjJPMWS41aXn1a8Dv9PZcH2QI7vGtV9cmKxxLl04uXNvEi5RiDPvcPZk/Fn9eHBQ/KRR+vEbzQo5p6g00UiVryiFTNxCtX7tvIdWWs1z9aJh+cjbapv5UAZY/gvTRLnrtWsOW1FtNekl4XvYc2P6h34AYQujkbXVa4U9gjOZ6OfgTa3dFKXPa/e9Y1F6FO1oh9WqFeetPLV3mimikEwDQ46MHbOIfO/FisfrRK26fRggskeLBd8NEc+ea/ppNyjtdMWVfQ/5PGTlxSeJUfNXy1SPj5ONCAkLxmlx6B5eyXzmnvoOrnwwHzkrlJB7iadmlZrjUCfwazo8l2GK5On0PeE2WA4+u5SwZ/qJUtPWK/LY77G7xlsbKCxlOA195ZtwzQJiwNn8OC/L1U1nradU3qs7qgSBN1+cvMFO3uN5rV66cgilO4HoXWAIK9x4VuK0afGifLXa/dctivjEprzYKTc7N/Jd5Rt0b0xXTqQibEP5xhqeY/X7Ulp9gzeC8Nuj1YKv12qWnDEDGm8JlcMK+CXVd7lxy3fLFE9XCEcEuK14DczVueQfOShcsHnC5Qz95nOymOruk5SAZ0dPy3zzDlg+tcixT0lKM3RoY5xXVtE9zbZbc9Qo2TxP2pQ7kGcCvP1CnLNTYHQ9vzj1nsrBAPzGeXiiFAwjpSX6iWlm3XHWkiLtsKeQN+zw9kzaM4wLXdbieCFCZKanYZTUnfEzLNgko/Ojp+SuaftM37aoLgirhzkTTaTMMOB352vWHjUclzsNjrwOCKTAoGAwoLNO0zbSk+OEw0vQBNQjLobsCczbxiYi9xZjL4zQ1a8UXdQcL1kWWiIttxweEmF2b/9sqNiu/7piRLacRxMzQrqn46FnpkgLt6s23jeLjX5m0tRtPyqlnu8GLWFeab+sV56RzHK+AfaG66fGuwZdKqMF3PWapqgX3MoW0IU2rP1kv2TefKHq5nUo4hWOaPv+c0K9QmpW9tCxaoV9gTa8p3BnqGHXg7ULwd6e6Zs3E7DLr5DZopqddXlI0/L3HMOmT9doHy0ms6SpDO185BRNaI/zVVMPmgWG3y2GGMDqQAdG2h0EScUnjnHLJ8uVDxaKaSTnXLaOw5po7UbsOevxg50RzH68iRx6Tb9fiEtbeenPdeh4dnmBkkFNIw2KHez/oWp0lvLBL2Z4oDDiwXPTZRwNuj20QZUDPLGOEG5/SSk82267Bi7VvPc+LD+nFCXi24jNdgzOLMuE7w5VbLkhLVN6JsdOIg62StVz00QX8nyaAsNxiIZVoA8VCGoazJaPUTLcLFW2BPUNepU9mQikIbmI49Xif67Qr3qpCWauTZB0nIPEqN/2yUHZ732rhLBEB78SIVgzFrtAbFbaqHLgUWzCtmsUwVIKmBxEyfknh/WaR8ZLx7BmDB04c+Iz+e2+l/z/d2GPRlA+vBoHYMnakQfzZM3nrGZ3a0MrebYBreDzyerh7is8S0+ZfvTbPnQAqQXD/79NNmcI5bTcloMoeUQbfk9oT1OHy1wNWGf6cWp0nsrhANzmdT1hLRXSvg9g3M4uugm+kS1cPpBcwiZMBt02vsGzcvBAOowzg3GbhhdK/ppuWrrRdoD3XJVqhX2DP4wqKkZpgGCh6LNNWpOIm1t50D9ufAzdaL/LFU2HKYrp1uZ0jThr8GLkUqzf8slx0+rNf9eri7crNt80WH1xCz1GKzjKtD71py3czfrRk+S9MqlRWXoqWWChmL3sT2DLciYPAPzkLvKBF8uU809ajkh85icdEBY+CYLBOinlNtPwnpf/UHzd2s0XzZqqveaLqi90bR46MtdPlJjxXYjzvF7TW/PlQ8pYOpPxBpG1lZvZPanhu3JcBxdu22pcsMFewifMBvb+I5PFyoeqRFFiLpjmvidufJVJ61wGyErbbInqOcepgGChxLJnowF2pcD316IvD5JXLZZh+h8EfVf6bhogjK5iEtqL6T16Rx4lBH4190aRQUQrW/VaetH8xXDmDowiRfZ6ja2ZzPGyWSqlQ3KQx6tFtXsNlxklv6uw7bVt0HpSb2TkFowoQlT2en14pamTaufDe5UW7GDqHPMGs3NBUj/XCSTyYxo17Jes/sKfk9qsCezlPf+HPnmCzaRIaqKOPNOWO+qEvYvYGqQtLjrXzFklvL+s0artLZSDy7YCm2yJ0EFXH5y+iHzq9Olt5V1XZWO1FUJCdMwrR5innV9ufDIIuS1qVLOVv3aSw6VjZ6Dh7dnglGZTiZzKcx4a+uQwowdQF0Tm4yfLlBcqWGQQJMzdKfdkT1pw/yqEfqnGbKizbpN5+2o1hcx/oyWZaIzggJ+gg5EizIHNNiCRid+SuZpOGL5aaX62YlMMYKEmpwh+kh29mTAH5iH3FuCstdp0WtV31vt7S4fPVcr32UYnI/0CDOpYtr0tjLBqzNk0w+b6QSzNkZgm+zJpDZTJySu+ibDC5MkrCx+/NokoSEUx0b6sGcQHFoYAurBgXvlIR8sVh6WuE2uiKH0MdSebdmr9iFO3lrN83Xinr/wM9unRRIaeK1sdEv2vNqfaRGWLOjOAvT7ZarVp6xaW1ShMy3bIpo9l1TeCTsN70yXDcyGMuMVvGilga7eS+hQCrAnG7qzFH1rmnTeIbMnkpERCAQ0Vmw/4vxhZaRoeQ5da++FSZL6JsMJiSvM+kE49qSXCK3YPtT5twWK/jw4AWErLVoo1FRtbqQbe151hLO48AM1on8uV88+Yrms8kavkxbNCCQYCYnzKm/DUcuPK9XPTxDfVoR2bAnVbs2etAWaAw3kwb+tFX2xSFm/13hI6HLEUjAjfKtRFG2lSk3Y2nP2vE26N6bL7isXJEC3MOx4THb2ZOr6PT9JMrHJeFwSVabmIYn7x3XapyZLwst49+bBQ/PgTxcp96NOjTUcK4djz2CL6h141kbdyFLBDcFEvTAWb9jGaJMfw38qDdkzRKA5dN3HP8+QLTtuuRSjTlpbozEowOz2kzonMe+o5eVJ4pFFaGcUQ+7e7Bnsw4w27k158EsTxBXbdCIjreVKJwu11RjR7Q86SU1uYgfk/GyB4oEyQd8ciH7UdfBITHL2zGBDPcfwP56vOKuki+KFz8gKKqcsPGO7vUoYjogYX+egfOShSkH+Zp0hkrRrZPZ0eMnV52zfNqofqBQy5slVUaLwrJeoo+nJniECZUN3lQvenC4r36rfCznkphiCAVsdmx6MXqvdynfkbNb/zyz5yFAxyDChGwlpyjRhTw7UjwffXoy+PFX68zrtynN2rQP3RrEQ32pjBb1nJsbROW6P6cMFylHVwiH5SA9a8iNOkcpw3HFtQycvezIcd1Mh+tx4cfk2vZwRD2wLwOB+sws/LXXnb9END69Qx5RyGFUl+mWNZtNFe7D8RphvjsyeGEGJDb7GU9bXpkj75EB0AOC1KHfs27RlzxDIORDr58svThAXbdDu4jusMYYEhtqeIOkiunKzfx/izNmoHV7MqD0GCyCHfqvjNtKBPYPoXV39u6kQ+XKZaq/AJTNjntjDb6lAwIfRxaNOSd3TDpieDC4Q0e3V4bwZHNFJzZ450INVwp9Wqjees9u9EfJlKSqA6nyzDpj+Ok8+iNdawder3T6TA/fJgf44TbrunE1u8keUDY3MniQVsHuIk1L3D43qURWCAVHmh169oPZyK2BPJqLtliL0qRrRjyvUi49ZEG1UkRkh3gxu2DzEKal79kHTFwuVv6kV9c1j8nwTFQwfsbnThz2ZeUMPLtw3F3lwnOiduYq6PcZzco++RZ7fdQ103VucoCC1d/Vp6y+rNC9MktxUjF5Z4u8s8yWp2ZMNPT9FuuyUTWSIUOomqBK9R+D6eKHyngph7+a6ENd1Wg48IA8ZVSH4sVF9Ru6JJoglMnsGG1Vjw2YeMP1ljvzWEpTFTlwQ9XU30PItYM8gJoxs0mNVws8bFEtPWCUmv91LS3JF41PDCMrgwE9K3VP3Gj+ZJ785D6EjKDprEF55fKYVewYdL0FplSz+H6fLpu0zHRS4TM5oZQdsHkJk8C05bvlhOa0q0hmO6RZDL0nZkwv3zoVvLkY/W6o6r2Zioq977Fz71otRSis255j1wXFhw+OZxrq1CP3LHNnMAyZNdFET0bKn00eelnvqmoyPVAlpYbROG3uAPYPdmpkPDs5H7i0XvDlLlrdZd1Tq9mJRiT+aXcSaM7as1ZpX62mN3r6M2kV75wQtBluEL0w39gy1Gge6pQh9ukaUvUaz6ZxNHF1E90GBq3Kr/sPZ8gfKBImvbxxd2yUjewY5rhj9ZL58ziGTKuyCeJBFdXZ803n7T6s0t5eGDVqnSz/wH6kS1jUZTzOG57Uk3Pq7aNkTJymLm9jOd7wzUzY8vDRvdG0TYbCFvgSwZwgKZtKRyYaGFSBPTxCX7zYekLiVVszThi6sn6DsXgLS+dZfcnzfqH6qRjSEx5TE6rQnX/MrT0/2DCKQA7F+4T87XjxmpbrxlLWtuG6CpHw4JbdgR6Wesu36VydL6HCIsTGqoDfHvH3bScieGVy4Fxt6Ypxowi7DGYnLEdbjGZyzX1R5izfpXp4sGZLPaHu3igmTMzY8D3lnpmw7n67bGCbGszmPRsuewcKel9Te0s26V+slg8NcSqvXF/dOwJ7NoWMS8nrx4MGF6IO14k+WqtZfoBU8fa3pwppdxEW1t2in4ffTpPdUCgfnMRISHb223vxqm2+nM3sy84Yh+cj9ZYKP5srH7dBfULYi30mHkdnxhSet781T/KZOfGMBwpTP7UQvWfP2SkKVEC7cgymU8scZsm18hy0Sx2EEpbfjmy/a35ouGxZeP4Upm/gqI+J5SU2XUA0f/xQi0GjZM/gBnR3fetH+82rNrSWMGXwt3NGakzF9CrBnS7iCSz1c+M5K4ferNQuO/V975wEeR3Xu/bXlDsbGYGNKCMUEOxd4CCG0AMmFGz5CTULoJTch3BCabUm7q2rZyJJ7E+5FrrjhboO7jYtcMC6yrZnZ3ne1ve/szu7MfJkZELK0O7uSdrXtfZ597Gk6O+d/zvntKe95X8cxme+iLoAY8CYDftmAn1EHvpX61n3vmrTP+sQ8dR/O5Udq9vMlWuj5TE+uBIVIQTFy+wTJH+ep5n5rO6XwN+oCiBFHjPhFXeA7lf+by56lJxxvr9FfXynpn2DoqvZ1I3lXMq7vKWRWdR6epRTtaL6cwMKpG48ck/qqvzGPqmEnG3n6DULkxvHS0ZuMX1/0cKGGW/jIf9AxegaZgFPhpaecI2rZKdjkFVXMRgj0jC1ynzLshnGSR2cqPlmnr9llmr3PPGufZfoeS+FXxteWah6dofhZlXQgG0Ew+V4/Yr9V9KIEerLjhr4l6LBKyf/MUX60Wjdxp6luv6Vuv6V2V/PYDYaXF6rvrpZdXyHpxTr97L6lhRhFmVn0FDOTTjdVSoq3mg6gXosnzM81mqYNTmLGXsszdcph4yRxvIUJkRGT5PWnnRZPuEMeAjtGT5LdMXZQ6nt9he7OGhkTZJWH6DFKJXrrivUw0DOWMtzCbjEypBx7cJr8D18oX1ygfmGB+rn56odnKO6slg5m1taRbjWQ4H3VUdMV25v4vH+HItTco/bHZyuHT5DGqe4tXyRGBWOaRk2UbTjnZsMF87UpnZN4Z6VO8FkT4xa3JYVuPhAxoYlvqZL8arLsf75QvrRQ/dJC9R/mqh6ervj5BHbzJeeLOi1z01dKkVH07FmCDi7DHp6hXHbCobWHArzxmUmSdvgiJxX+f67W3V4lGVAaOwiHCO1Tgt5dK3tnle5bmT9MdiCKFE3THaMn4xuGpqXNwcVHba8u1SQh3M2VBRalTgM940nUU4z2LUH7l6ADfvz0LUF7Z0b/5acChb7nj+XYowTtVXJFkfUvQfuWYr1a7Jx+fPIn9dJxJYPoyazqYHfVyt5coTssZdx28M9LhsKMqeyKE44nZyt7FSI9eHp4xcg1Jei7y7VfNtiVlmAi9n+tf587TE+apu2+8Fm1v/Jr8w1VEma/fUp/J4GecVsONwIQsYuzXKDqVBdK3Fdq/wDQs7Um3Mw1F96ZC3DUbdsWWr8G73EG0VOIXF2Kvbpct+SEQ2qJv1nZg5MrzzjfXKW7baKML66MGO0rRm+dIK3Zbb6csG/WrtKTYr0Trj7numOyvE8paweQOoACPXmreHq7Jx34dqBntpVjBtGzCLmuFJu836p1ED7eMTuHNrM38uEW09UVWK+y2NvKxWgPdqn9/unyDefd/J3Z1sRsfdyZvif39ydU/qLtpkdmKwuKUmmSBvTMtlYXHalAz2wrx4ygJ8u4O6plLy5Qbzrn9uBxos5QFK20hnY2ul9couklQvmccgiRgiLk93NVVd+Yz3Qw/nMLQDtPT6OTOIJ5P1pv6FeIpNCrLtAz21od0DO6AtlWjhlBTxHasxj5wzz1lN3mRGLch0lqf5OndIvxgalyfofuPYuRfkXImE3GM0p/Iiv4LcRsfdB5evqCpN5BzDhgvftz6bWc65BUjN+BntnW6qKzA/qe2VaOGULPXmL0482mkwp/XEvMMEl5guTMg7bfTFUwVkqxDJzZKeZry7G7P5fOPmRrdof5V/Bb47LNcefpySW0rdH950VqxvVnilyHAD2zrdUBPaMrkG3lmGZ6sowbUIHdVC2rO+4IhqkI2YZdbU+dgYjUEnp/nSGOUxVm6xd6V43sz4vU2xMLw9n2m3487yo9m4z46lOOl5doU7UhF+iZba0uOjug75lt5ZhmegoRQSHyyGyleEfzYZkvkoAl5ncq/+wD1qfmqhgzZx4vqEJEMBZ5eYl29SlHU4xQwz/iMc7/XaWnKxBRWUPibc3XlaCM856kD96BntnW6oCe0RXItnJMLz17i9ABxcj7a/RHJF6dI06UvXCE8fz95WnnS/NVIyby+lISM5i6rgQVb2tWWUOuQBzPyvz47Co9iQjlC5L1DfZn65S3pSJwMdAz21pddHZA3zPbyjFt9OTmJSuYecnavRaLJ2Y49Ra0uQIRhSU4bqf55grJ1Tw7i1h3Lbd9Ln22TlnfYPcF46zgt6Qf66Cr9OTSZXbj72p+bJYy+YGPgJ7Z1uqAntEVyLZyTCc9i9FRk+TvrtBuOe+ORa7W17Hm4Lozzr8u0wrGIHzbcNmwRb+draz9uvm4zNc6hc4dJ4eeBhfRIPe/vkInGNvELHUlsaIAPZMoZhqTgr5nGsXv1FenjZ7svOQLizSbzrkkzQkFodl5yfOXpZpf1MoExbyeN5iUm95apf9eEzAn4GckLlKTQ0+coEzu8PhvLKNqZddWYMyUbbImQIGenar6yfwBS8oLAD2TImM3JpIeeorRa8qxOyZIRVubpeagO968pD9IGpzEzEPWOzkn/LGWXth4CtdWYKNqZdV7LHZ/JG7Et7jo7IyXkKiJkhSNE+T2C+5P1unvmcR500tSDxTo2Y0NJoXMBXpmWzmmgZ5s4I0RE2Vv1WvXnHJ6cDJCxnHcoXeE9l12/3u9YaAYLeAZ9YqYFfx7Jsk+WafffsEdDMfxMxKVcu0vJqfvSdN0hKRQI772tPPpeepkzn4CPbOt1UVHMNAz28oxXfT8bZ1q3re2s5pAOMKHToqiIyR9QukXbjU9NlvZi3G2ErvHxs54Pj1Pvfa0EzXicaHcHpRRrySNnjRNExFKbgu9+aUhUeeMidQnoGciKmX+M0DPzC+jK98wXfR8ZaWu0RD0h0h+zx1c2KLVZ1y/qJH1jTVgb8kR26t9c41ebo0fpT0qKKNeTCY9aZq2+SOzj9qfXqAezoXu6PrsZ4bTc7qCWSjjPMJxRQj/RlVAhI6algHekVfoBJ+y3pGjviRcbKVAjxK05pANJ6hwtE0+eiexv4mJNjhAhPItc7fwi/+AtSUaOk7y5BeqKQesRnc47s4imzdySuEv3dE8tFLC9wJsysPHS5+er559xGbzdcnAsw1Dk0zPAEGeVfvnHLI+OFXB7Jfi8UvKr2bL3UymJ+Zjsjm6idmlKoIPrwJCZNTUzKDnJ03sXhTet4XSFKH/CWBZc7C76MkGBL5vkrz2G/NxqdcXjAbsK9GFmYKz91tfXKi+phTjs/MRMdEHHpyqmHPIelbtDxDxU77ye/jOkkzPMEk1u4m9iOfVZdobKrC+nLvsFhR24iCD6XlE5vvDXNVNFdid4yV3fS6FTywFRnwuvX2C5Kl5qv1YOiNzGFzhf683DC/DbquC8kqgulZL5x2zd0ffkw2OcEMF9pfFmp0X3XoHwb8gTkQopz+y+7LnjXrtiGpZHx7I/Jjyq8u0exFPs5tIMNQwHzJb3UsyPbmUlbZQ6XbTA1PlSQhcnMH0PK0OvLda9+RMxYt1yj/PhU9MBf70hfK5L5Tvr9GdUPpb1b22h6mOa2T2hMd9bX5shuKPUF781fULtijnKTeeceIx3HMkc+QuYqyUHpgqL9lmklvju473BUlJc7DuW9td1ax5D8/0IOv/+IGp8tLtJqUtfspta2S885TQ0+oNb7vg+nSjgdm7WdQ1288MpmezJ7wP824679p5wb2rET58Cmy/4D6AeU1uvlCIqaZngCBPqfxfnXNth/JKrLrKzMFY7jmSRk82WOZtn8tpKM4NAAAgAElEQVTGbjbtuuROZF5S4yAWHbO/Vq/lc0PHdUiLkNs+l3660bDtgsvq5at78TgZ/X5K6IkTpMoaXHnK8fB0RT8hwufhOe5YPoPpGV1RuNpZBVJNz86+F/xdFAWSRc+eYvQqMfr4LOWGsy6Dk+APCMzZlZ9W+f++WndntbQ/z5Z2NipiPyH68HTFylMOlTWIJ3XGk1MkJfSMkJQXjxyR+v62UveLamn/EnaGPi4ooz4A9IxSdXPzEtAzi8o1OfQUoVeXYQ9NVxRuMp5W+f0hkn+pPRAiEQO+9Lj9yTnKa0rRgqjE4C6K0P6l6MiJ0n+s0h2V+bx4JFk2nq3LKCX05L5AbgnNPmB5caGa8Twfy88zT/65W0DP1sWV08dAzywq3mTRc1iV5J9r9RvOOPXx3NBRFG31hjd+7/zXOv3tcacEhciQCuzlRZq6g1ZFAnOpnVM+hfR0BSLntIGJeyy3VkmYGCM8k7s8DAV6dq5gs/CvgJ5ZVGjJoacYvW2yfH6DQ+cg+MNjUDQdJmmJJfTJV8Y7qqVXlbGhfGNxg51LvXW8tGav5Zw20EUnnjyFkkJ6hknKjZNbL7ifmqMcWo4VcIa4sTIc63q30ZNVfFSNrHKr8eBld1z3BDyawq3OKRAKU7O/tf1mhmJYlSTR7WpiVDC2adRE2bqzbk+QTK49SudykSd/1VV6itBeYvTWWtmfVuoOyfksMTg9wySltRPbGt3/PVf9g7luLGKI0QIxOrRC8lSdamuj242nsFakkJ4URYdJ6nt1oHKb6fdzlJ2c/exOehYjd9fKxFuMey65U/d7lSetqxPZDIapyfuto2o4N12JxSlg6ImMnChbc8blSJLjnE68eR7+SVfpWYRcLUTfWqFbfdqZyMjaFyJ3XnCP2WgYNUnG7CziGciK0P4l6O/nKCu3mb5XB8JkchyCRC3iFNKT+z69g/i60f3hBsMgxnNd7OD0sX5JupOeQmREjezTDYZt55imGFUvuJgiBcIk5QpEynaah1dgA0oTQydnlVKI3FUtW3DMrraF+Ed/KXrz/ExWaQ1tPON8b5Wuvwjl2+rTvl2zY9Bry7B7J8qm7bMgRjxuT8UXJOWW4MRvzL+drhhWGTtYJvddInRQBfbhBsPXjYzhfUpLJ+X0xAnK4mU2vw+dIOX7xWivMnele+l5W7X076t0a087E7E7S2nB5Fvi/hCpcxIfbjD2LkR68rgaa1NP2PmW2ydIa/ZYzqr9cdthvqmauvxe0uOz9lmeX6hmPHTwODdqU16s+U0PIeMs7r167TeXPDgRxw0dRdFae2hfk+e1ZdqrhMx4Pw5GxOjQCdLZR+0WbwQn+Lw0dV2clNOTpBjfS183ef9Srx1RK2MaRod6oN1GT7Zch4yTPDJbWb3XYnAl37a266WVkymQzAwPfU6LL21wPLNAE2dWq01rZH3nDK2UvLFcu7TBrrGntq+Rk/p3NFNhkvKHyD2I952Vul9OlsfHWZsiE6E9hcgr9dqVJxyoKb7r+AhF72ryfLrFeN9URZy6IUJ7ipC7JstfWaH7GvESESqed9COZr3t8ymnJ/eFmBFfcdT21yWaXoW8gUfaCF2CCrqTniVoz1K0Tzn25lqD3AbtsG1dSdF5mKRxgqo/4XhqjvJnn0sTXS9qqSoitF8pdke19B9f6i/o8RS9JCTbogBOkCY3saDBcWeNjEFnS0EkeCBi3BiP22MxeyKBBPqGBElV7bMMnSDpz62z83xjMdKrEHmtXrvmpD3BkB4tmercQTfR0+YNX9T4i7eZBpSgBZw/twS17l56MlVBjD76hWr+Uftppd/qDfuCZDBMwSe5CvhCpMMf0TlCqBHffslTc8j2p+W6n02QDizH4ozL2lcbMdqrBB1Uhj0ySzlxn2Uf6lVYQw4f0zKT+86QmidI6h3EEZlvymHbS8t1gypZ04j2JRLrCuvL7q5a2Z+WajaeZxy889vG0zQzZj+Met9erestQpktizzoFKN9xOi1ZVjpjubL+oDd1x1jx26iJ4f2LxocQ8ZL+pSyy0c8QrRWv5vpyXoDvGW85I9zVdP2Wi4bcIMr7AiQ8EmuAkZ3WNIcPCb1bjjtePdLXR8Omh36WW1dSdhSG1yOPTBN8clG4zeX3JLmoNUXSe47Q2paB3Fc5pu413LnFDkDso6WVzEiGN30p0WadafsqDGhUcK3mLdis/FRzosuz2w4+zJMQKSJ0sUnHZ3rSHbir7qVnodkvrHbTA/NUjLzF8LE+vzdTE+27zmQLYb/nqv6x1rDRxuNozeZ4JNcBT7eaPxgreGtlbqXFmn+a6q8oJStDAn+oLbmZsuxCO1bit0wXvrADMWr9doP1hk+/QpKLakKbDb9e6Px7ZW6J75QDa6ScKM0vs5gS9FwB2J0EBvurXRHM2LAbfF8dgRCpMUTnvut7dGp8pvGxVtnF6KCQuTR2cqSHc1H5UkINZwgSbuVnkYncUrhe/9Lfe+xCa+rdj89OTsYNhAK4/n4sybBp5fhk3wFPmti5B3Denpv09I6fcouIjHe/kdDqSW70raUVye8prF9w9tqZM8t1Kw+40yETc2e8Pdq/4frDUzFK4odsIitKj2FSO+xyPtf6k8pfEZn961YdCs9fUGy2U3U7LX8YqLs2kpJQj9caaFnC0CL2TWuIoQpP/gkUQFO2GKEMRXskA0GP1i5qTEhlFoKqitXZFzwtY6OEti+yB8WapaddDYaEhqzH5X7iraaHvlhnMpLTzF6baXkFxNlNXstzW4iEb/0ieA7kWe6lZ7cC20453plmfauSXJm8B63GNJFT/5WCndBAVAgQQXEaL9S9PoKbPRmk8pG+EJxYmOEwsy+iUXH7fdOkg3httjwUIKZ8kbvmiR/ZZl2wzlXIshL4jNpoGejHl9+0vHMArVgbAKzn0DPBOsoPAYKZKACbK/zFzWyf6zRrf/e6QpE4voi0NpDuy+6P1pvGFqOxQ+WKWS26j6zQL38pKOx2+3V0kBPhz+CGPGPNxivK8X6cWNknlJn6Vmx0yxpDvLsJDmvCSw4ZHl2PhdKnrefz/NdcAsUAAWSqIAY7S1GB4nR5xeo15xyNBlwfnRyQYYb5L6yLcYnZyl6cxM7PO8jZra0DyvHPtloRIx49++uTgM9iQhl90XmHrb+YY7ylvHxVtNYepZuZ9bpeNS5pA0s/9b6AtOfberYrluesoFboAAo0GkFWDOyIeXYg1PkZdtMlw24B4/wh2gPEKTRRSw74XhkmuL6cqwnv0UUm/5tn0tfXqhecsyeFh8xaaAnTTN7Nw+h3nHbTQ9Mi7f7qggZUIyKtpoatQF7bCsHhTn49XnX60u1zGJrMfQ9E7MG63TDgD8EBeIqwNJtRK3so/WGzedcPAPHlolIg4vYecnz743MqDTuOjuz2FiEPDxTOXmP5bjMF46kdkt7y0u2PkgPPUmKbnaHD0l8LyzSMLzjsYMtRgYI0cItpjMqv8UTc/+Awx+RNgf/vc4g+CS+fUOH95bFrSjwACgACrRWgLOlF6GPz1NvvegxuML8QYY5JJ3WBP6+zjByspyJZB7XEkOICMYiLy3RHpMzewJTvaW9NTRbjtNDT5qmQxFKZSdKtjX/cqKMDVwcw2dfMdJfhP5rvWF/k4fH31SQXaebc8j20BT58EoJ88PFTZoIWZsY+BcUAAW6TQHWtmlwheSROlX5bgtmCYVJmr9n6A+RcnNwcYPjNzOVV5VhcTdlCkTIoHLsl7Wy0u3Nmnjx31tgl/SDtNGTominP7L5rOujdfq7JrKBi6P+2giRfmL0zeXaL0/aZeaYHlkoio6Q9HGZb8pu8+MzFEwPlDPu5eyxx7JW2aNZI+o2/45pYqZKx0S71ebJWKf8KfDfbZNmhx5u87fcKU8KLbe6klmeb2lJP+qLtbnI/zD/3TZJRT3lSWEMW9wJFjr/w1G/JerFqC+Z05VzZI18+iHbOV3Ag8fvFxqcxJennP9Yo79lgjTOdCfXLS1C7poo/WidfvNZlzOQjkE7S+K00ZOm6WCYQox4/QnHY3OUBSKkR1SrLhGz+f/3dcqqHYynaP5fDz27D3fqPsvbK3Rv1OteXab94VOvfbX+x+OWi9wBdyvW3TYPRz3lT4H/bpsEO/Rwm7/lTvlT4O5G/cMOXYz6LVEvxkqW/2H+u7HSbH2dPwXubuvneY55Ho71LTx/0v6LeB6OlX77RGJd4U+B/26bNBN++LV67VsrdWU7zcflfocvwj9mD5OUwxc5JvN9ttH4wFTFQP6ARezkQA8xWiBCHpujrD/hQIw4fxBjfmJ08W466clGeqLOG/CXV+j6lWM9uc3OrWdPWHumAjE6YqL0r0s0+1Evf245iwe9k7iox08r/celXviAAqBANytwQu47pw3IrSFPkIzb7QwQJGpkggw/NF3RqyhGF+pKJvQsRfuVYy+v0J1nTaD45wT4idHFu+mkJ/fqGicx9ZD1fxaqr4/qC0DMeKa6tgx7aKp89Wmn0x8J8fbTKYr2h0i7L2J2h41OAj6gACjQzQqYXITNG/bgJP86ONd50jqJL47YX16iuXG8NE7AIs42XIhcP07y/xZpph+2abtxS3tUzqafnm48ckrhm7THMnKirMfYaGtHbNzEG8uwKfssckvQG4yz0ytqPuEiKAAKZJQCFEX7QuR3Gvz5xRomYnnUZY8re50CMdpjLDKKDYj0vcrvwdOMgvTTMxSmjC5iy3n3H+eph1VgvaPuPipGBpdhry3XLWlwJBKBL6NqCbwMKAAKtFfAHyJ3XPKM3mIaNUUev9fJYqF3CTqsAvvjfPW2C+5mdzgUTuOonclQ+unJydqoxz/baLh/ijx6nHsx473x7knyv63WH5X7Q+GURyxpX9hwBRQABZKlQDBMaexE8TbTzydIri5LLKCACL2qDLt/qnz0RsPFbt/SHjXjmUJPg5PYdNb1f+v0N1Sw1prt1t8LStDB5dijM5XzDlsvaQNeHCIGRy1QuAgKZLoCFEV/r/bPP2x9doF6YCkafbjZbswuKEJuqJR8tMGw7YLb6Oo+J548amYKPf0hUmUJLjhiu6dG1l8YbemNdXx74zjJP1ZqVzfYZc3BQCj+ih5PzuEWKAAKdL8C/hBpdocXH7X9eYHqjuoEVopYjPYQo/2FyH21sqUNDr2DCBBpnvHkdMsUeoZJyouTe5s8by3T3j1R2pvb6dXm90eE9i9FR1RLX1uqXXWScdkSiOcrsPsrB3wjKAAK8ChwUY+vaHC8vVx7a5WEse5sN8qMspFahPYpQX9ZK/vbCu0B1OsPxQkBz/Ptyb2VKfTkcoUY8Vn7LS8sVF9Vgkbf/C5mApjcNkH6wZf65Q32C9qA2R3GEwjOl1zVIDVQABToqAJenNQ5iFUnHe/Ua39ZK2ODsyfm0EeIXFWKvrxY88VBayIh4Dv6Yp1+PrPoafdFzmkCpTvN15ZhMV0lidABpehtbNjL/3hp2nHBZXARfuiEdroKwB+CAt2iQJMBrz9uf3el7mdcr5PfAV3rcWcxcm0ZVr7LfF4bsPsyaMEjs+hJRCg3Tq76zvnIDMXQcRJm72bUjr0IEYxtGl6O/W6W4tONhmUnnXsQ73ltQGYOGpyEyUU0u8PwAQVAgbQrYHIxO1YkzcEGpX/uEdvb9dp7JsnZkLqJ9TrFaA8RMrRS8sgMxarvnG6c5N/32S2/Aj99SWbRk6LoMEk1yH3lW41PzFb2jBUyjJ0V7VOCDi7Dbh4vubtW9uJCdclm48JvrV83uvY3eQ6jXviAAqBA2hU4gHh2X3TPOWR9a4X2oRmK4RXYVaVslyhqr6h1f5M7FiI9C5EnZinKtxr/g4UwSfH7V/4JbN1ylFn05LKssYX2XHT/fa2+QMTr5o91v8oM8IuQm6skv52h+OsSzcfrDaO/MhZuhg8oAAqkX4Exm4yfbDC8vFgzYqJ0UBnWI26wjTYAFSIFxcj/rtF/3ehW20LdgsQOfEkm0pOIMOvvNQdtvUsSWJJjR/e9S9ABJeg1peiQMuw6+IACoEDGKDCkDBtYivUpQQtiTcS1IWbrUzFjDTphn9XmjeBEmncWtcdqJtKTe8tNje7nFmvuqJUxi+9x+/nMWJ51hJzEmOOQFCgACiRFAW4KLm4rvpKbAiFyR63sucWaDefdRCQTtxdmLj0v6QMrGmwvLIJAbxCkCBTIPwWYwBtNLyxSr2iwXdLHcezbvlfYPVcyl54WT/iiLvDJJuPAEsZBcvzuZ+sfLjgGBUCB7FVAzDT5gSXoJ5uMF3UBnoBm3UPJWN+SufTk3nj6Ydutn0sHlmOMA6sO9fyzt+rAm4MC+awAa1EzsBy79XPp9MO2WOTKhOuZTs8DEq9ou+nBmfECF+dzbYO8gwK5pICI2U/44EyFaLvpgCROOIn0MjTT6Wl0EQ0y79srdH2LEMaAKZdqCeQFFAAF2ilQIEL7FiFvr9A1yLwZ4kspFqMznZ7+EKm1h8bvMt9XKxtSKYHBO/x+gAK5rIAYHVIpua9WNn6XWWsPZfgO7EynJ03TOEGtP+N8d7n2rhqZQAizn9ABBwVyVAFm/wt6V43s3eXa9WecGWjg2aYTmgX0DJPUJQO+/ITjd3UqJva6MLEdsu1GBLn8iw2ZBQVyQAHWSul3darlJxyX2HiZbWiVaadZQE+Kot2ByHld4P01+mFlWL+ogY9yoOpAFkCBfFZAjPYrQYeVYe+v0Z/XBdyBSEZtaY8K7iygJ03T4QhlcBF1h2zPzVPfNF6S0O6jfK6IkHdQILsUYH1W3DRe8tw8dd0hm8FF8Eczjsqy7r+YHfSkadobJA9j3qpd5nsSjMCXXbUH3hYUyGcF2Lg790xVjN9lPox5syXqeNbQM0xSFk/46ybvk/PUCcUvzee6CHkHBbJLAZaev5un3o16rd5ImMw4hyBRO7ZZQ0+KookIddkU/GSTceRkORPFVATLRzm69ppdLR/etosKiJCB5dg9U+Rjt5iQ5mCYpLODnZkTzz0q2ttcpGi62R1e953j/TW6W6qiBy6GhXVQABTIJgXEqKAI+fl4yafr9NvOOi2ecLagk84uetI07QuSl/SBuUdsv56u6CdGe4L3kC7+7MOfgwJpVIBtwv3E6G9mKBYfs0mMeIabx7fpz2XNyJ17b4qmSZI+pvQ/v1gzpALrBfRMY9WHrwYFuqiAGO3FbC7Cnl+sOa70k1TWjNk5HGUZPbmXllpCUw9Yn12oHswTerOL5Qp/DgqAAqlWoBgZXIY9u1A99YBVasm4wBtteprtT7OSng5f5JTCV7Wz+WfjJD0KE/A8n+pKAOmDAqBARxUQoz0KkZ+Nk1TtMp9S+ByZFGq4PSijXslKeuIEaXIRq087n5ilvL4C60y8lI6WNDwPCoACSVRAzIQ5ur4Ce2KWcvVpp8lF4AQZlVCZfDEr6ckJ2qDw/3ON/t7J8j4lvKE3k1jkkBQoAAokRQER2qcEvXey/J9r9CcU/kxGJM+7ZTE91bbQpnOu/12jH8gaPWSTlUZS6h8kAgpkrwJFyEAx+r9r9P9pwmp79s14ckjNYnr6gozrz5kHrXdWSQZA3I7sbUjw5vmmgBgdIELvrJLMPGjV2kO+YPaN2bOenmGS8ofI7Rfcry9Rj6yR9uCinuZbRYT8ggLZpYAI7SFERtZIX1+i3n7B7Q+R2bIvs/0QPov7nlxmLmgDc/Zbnlug7lnExnPPrpoEbwsK5JsCQqRnEfL8QvUXBy2NugwNNdwelFGvZD09rd7weW1g9GZTz0KE8R6Sb3UR8gsKZJcCxUjPQqRwW3OTMWjPQiul1hjNenqGwpQrEJl/zH7fZPnQcRLGdQgELs6u5gRvmycKMKGGkaHjJPdNli9qcPgJKnvH7BxDs56eFEVHSOqwxFu6xfgoE7gYQneA4yVQICMVECKCwqZHZypKtxi/lXizbl9m615njtCTy4bKGtp7yf3GCh3QE+YuQIEMVYCl5xsrdHsvuVXWbLVSas3QrO97cpkhIsz6u2iXmZn6hLDveTIShGxmlwIiVFCMiHaZ/SGSiGSRI7rWwLziOEfoyeVp9feu5xdrbq+RAUMztPeRXa0d3jZZCrDcvL1G9vxizervXVcQKJtPcoqeTQZ8zSnHs/PVgtEw+5mRM1/Jao2QTnYpIEQEo5uena9ec8rRZMCzGZhXvHtO0ZOzXvp4g+GmCmxAKQaL79ADBQXSr4AYHVCK3VSBfbzBcF4bsHrDVxAom09yip40TftD5KyD1kemy4cx1ksoADT9jSe7eknwtslVgLFSQoeNkzwyXT7roDW7XMfHBXuu0TMUpg6g3oodzb+aphAUwQoSjN9BgbQqIEIFhcivpsordpgOoN5QNkUtigtPOtfoGSEpnSO057L7pUWafsVIAay/J7crAamBAh1RoECE9CtEXlqo3nPZrXOEIlkSajg+ONknco2eFMVEjkNMuGiL6d5a2aByDMbvMHgHBdKgADtmH1SO3VsjE20xISbcFySpXLBT+gmtuUZPLmcOf2TVScc7y7U//1zKWC/B3s2O9BfS0NLg9XJPATFj3fnzz6XvLNeuOulw+CM/USdXjnKTnjhBXTbgi487fjNdIRjbxGx+z73aCTkCBTJZAREiGNv0m+mKxccdlw04TuRWt5P9AchNepIU7Q2SJ5X+N+u1w8uxviWw+J7WpYNMbuTwbqlQQIz2LUGHl2Nv1mtPKv3eIJlbE54/dJ5zk54UzbgOUVpDM/ZZnpunGlopEQhh/A4ABQW6RQExKhAiQyslz81TzdhnUVqZxaIc7HnSObfm3npGxeGPHEI95Tua76yRAT1h7gIU6CYFGHqid9bIync0H0I9OTnjyXEmN/ueXN6ICGXzRjZecN8/Uwn07KaWk4phIKSZdQqI0PtnKTdecNu8kdxwCNK6W9ZynMv0pCg6TNLfaQL/t97wy8ny/qUQuLhbBm5Z19ThhZOogAjtX4b91zT5v74yfqfFwySdm4N2lqC5TE+apima1tlDX512/HO1bmg5BtZL0AMFBVKoAGulNKwC+9c6/ZZzTr0zFxfaW3qeuT3vyWXTE4gg+sDMA9aRtbK+YrQH2H4msaMBSYECrRToIUb7itGRtbJZh6yYCffiOWjj2QqeOb1q1JJPiqJ3NXkfr1MOrsB6isF6CcbvoEAKFBCjPcXo4Ars8TrlriZvDg/YW8CS4yP3lnw2GvBJ+yzPLFD3Z80pUjh4afVTDN8CCuSRAsVIfxH6zHz1pH2Wxhxy4tnCkPYH+UJPmzd8Tu0v2958XSnWEwIXA+JBgWQr0LMIuU6Mlm1vPqf223LIiWd7aLZcyRd64gRp8YSXNDgemq5gAhfD+D3ZjSePOlkgXRsF2NY0tFLy0DTFkgaHxRPGCbIFMTl8kC/05IrwoMT3/lr9fdMUPYQw+5mCma82jQpO80QBMdpDiN43TfH+Wv1BiS+Hcdkma/lFT6UttO2i+53V+h5jEcZ+Pk8qN2QTFEipAkKkx1jkndX6bRfdSlsuhBpuQ8lYp/lFT3+INLnDNXstw0oxZvkIrJdS2qgg8XxQQIz2F6PDSrGavRaTO5xjsTdicZO7nl/0jJAUTpDrzzhfnKcaUS2F7ZvQ+wYFuqQAa8Eyolr64jzV+jNOnCBzzHs80LOtAt+p/NP3mp/+QiUohPE7zH6CAl1QQIQIipCn56qm7zV/p/K3bWm5fp5ffU+uNK3eyGUj/sE6o2BME7N3Mx+GV5BHUCAVCggZF8gfrDdeNuJWb47vLGr/W5CP9CRIyk9QMw/Z7p0kv75SwniehwnQVDQtSDOHFWDCFiHXV0runSyfedjmJygiJx0gt0dmqyv5SE+KokmK3o94xFuMD05TCAohdEcXxm45DAjIGo8CIkRQ2PTgNIV4i3E/4iGpXPal1AqYVxzmIz05ARSW4M5G94tLNczgHQIX87QTuAUKtFOghxjtJUT+tEy7s9GtsASvgErenOQvPcMkZfaGP9hsgnlPUAAU6KgCBaVo/3Ls460mizcczr8xO/cDkb/0pGnaHyIXnnQ8u0RzSzUELobBOyiQmAKsE89bq2UvLtMuPeXw58emzKj96bymJxGhGrWBJcfsj89SMuvvsPuo3QCto10SeD73FRAigjFNj89SLjlmb9QGcjjwRlRitr6Y1/QkKdrsCR+T+d5bpRtegfUrhd1HifU+ALJ5q4AY7VeKDq/A3lulOybzmT15O2pnKJrX9OR+RkzucPU35oemyYcw1ksAUAAoKBBDAcZKCR3C+FKSV39jNrnDrTtieXgM9KTdOLn7ske81TSyRsbsPoL197ztWEHG+RUQoYJCZGSNTLzVtPuyx43nhRs6nl8FoCdNRCidPbTlnOvpOlX/YqQA6MnfhOBuvipQIEL7FyNP16m2nHPp7KF8nvHkkAr0ZCznfUHyrCbw2QbDvbWygWUYdD9zf+kjXwnY+ZIVoQPLsHtrZZ9tMJzVBHxBMl/tlH7qjAI9f9DC4CSWHbe/Wa+9sUoCvpc638aASjmpAOtL6cYqyZv12mXH7QYn8RNC8vgI6PlD4XuD5CUDPvuwbeQkuaAIdr7HWDfISTRApuIqIEYFRcjISfLZh22XDLg3mO8znhw1gJ4/0DNCUp4guRf1vrRYM3ycpHcJLL4DQEEBVgEx2rsEHT5O8tJizV7U6wnmlxNPnr410PMHcSiKjpBUkxGfssf87HzVoHKY/QR2gAKsAiJ0UDn27HzVlD3mJiMeIal8iNXOA82WW0DPFimYA4sn/C3qEW0z3ThBCmtHMPsJCjAKiNDhE6TFW00HEY857208W/MC6NlaDTocobw4ufKM647JcnD6CewABTgFbp8sX3raafNFQmHqigaT3ydAzyjlf0Thf3etftQUeW92cwU0IVAgTxUQob3F6Kip8nfX6g/JfGEyH514RgHEj5eAnj8q0ep/pTW04YzjvVW6q0QohF6iHKMAAAc0SURBVO7IU3DEXYbOhweKkatE6HurdP9pDkprHoUabgUDvkOgZxR1XP4IasSr95hvrpL0hcDF+YAJyGN7BcRoXzF6c5Wkeo8ZNeIuf96FLYqChisvAT2v1KPV2dqzrnumygdVsIvvEPiofeuCKzmsADtnNagCu2eqfO1ZV6tmAYc/KQD0/EmLNkdnNIHqPean5kHgYjDcyT8FhIigEHlqnqp6j/mMJtCmacAppwDQM2ZNsHnDF3WBws2mvoVIAThOzuF+FmStnQIFQqRvIVK42XRRF7B5890TXSxGAD1jKUPjBGnzhucdsf16kmz4OAkYMMHyUV4owIYaHj5O8utJsnlHbDZvGM/j2Bsx6cDeAHry60PvbfL8a43u/mlygRD2bubfALZdpyz3ASpitrTfP1X+rzW6vU2eOM0jv28DPeOUv8wS3NHo/mu9VjAWgcBHuc+OPMRlmyyzYYv+Wq/d0eiW5Wuo4ThQ+PE20PNHJWL87w2SRhdRtsM8vBwbUIrB+B0AmssKiNEBpdjwcqxsh9noIsCXUgwq/HAZ6MmvDx0mKZwg15x2vrJYM2KiDFx/5jI72vTC8u2UdeI5YqLsP1V9zWknTpB5HfItDhiY20DPBESi6e9U/tkHrE/WqRjXnxC6I9+wkif5ZWc8n6xTzTlo/U7lT6hh5PdDQM+Eyt/ui5zT4m+u1AkKIew7rB3lqAKMjWfTW6v0jXrcATuLEgAD0DMBkWhm/G71RWr2Wn41RX5dJSYQgfP5HCVInnQz22STtVK6rhL71RR57V6L3R+JgPP4BMAA9ExAJJqmaMb8c/9ld8UW4/1T5BC4GGY/c0oBNtTw/VPkFVuM+y+7cQICviWEBaBnQjLRNON5XmkObj3nemaBupcQ6QHeQ9r0X+A0SxUQowVitL8YfX6hets5l9IcjAA8E6MC0DMxndinIiQls4beXmfoV4YVQOCjLIUFvHYbBcRo31J0aCX2wQaDwhYCdCZOBKBn4loxT1q8kbnH7S8s0dw4Xsq4/gTfS22aIpxmlwJixoPtLROkryzTLm6wW33ghq4DQAB6dkAsmqYDIfKCNjD3sO3XUxU9xoL1EqwdZbkCIrTHWOTXUxXzDtsuaAOBEKwWdQAIQM8OiEXTTOAjiye8r8nzxlLNLZVYv1LY/J7l+MiurmJy31aM9ilBb6jAXlmi2Yd4LZ5wOAJhizoABKBnB8RqeVRuCY7fbnp8uvxazndycus0pAYKdI8CIvSacuzBafKSbSaZBQJvtLTvRA+Anokq1fo5mze897JHuMV42wQps/sIZj+7p7XDtyRRATHjS+nnE6RjNxu/ueyxghPP1i08sWOgZ2I6XflUMEwZXcTaM87HpiuuEiI9gZ5JbNWQVLco0FOMXiVEHpuuWHvGaXQRQQg1fGUbT+QM6JmISm2fiZDM8lGD3PfRWv39k2X9S1DY/J5T1uPdwq90KiZC+5eg90+WfbRW3yD3BUIkbC5q28gTOAd6JiBSjEeU1tCyY7Y36rVDyjFw/ZlOFuQ87JKeQSEypBx7o1677JgNQg3HaN/xLwM942sU6wlXIHLJgNfus9xcJYGw70DPbFKgGLm5SlK7z3LJgLsCYOMZq4nHuQ70jCMQz20iQrlxctN593/XqW4YJymAvZtJ7yJBgklXgN2XeWOV5Om5qk0X3G6cJMBKiaeR894CevLKw3uTopjN79+rAxN2mp6qU/YVItADzab+V9LBlBUJFiP9hMgzc1W135jPaQMRkqLAxJO3mfPcBHryiJPQLYOTONDk+Xij4eoSFGY/gZ6ZrkAxcnUJ+ulXxm8xr8lFJFTF4aEYCgA9YwiT8OVwhPIFybpj9sEQtTgrOl95/pIiZHAFVnfM7g9B4I2EG3mMB4GeMYTp4OXdmPf1VfqRU+TM4B1Cd+Q5oTIz+yLGIcjIKfLXV+p2o94OVnB4PIoCQM8oonTiksIS2nbe9fYKneCzJpj9zPTRa2bSLdVvVYwIPmt6e4Vu23mXAvZldqKRt/sToGc7STp1wemPSJuDlbvM15cydsiwdxMAmlkKiJlqeX0pWrnLLG0OOiFsUaeaeZs/Anq2EaRLp8tOOu6plQ2tlDCDd9i+merOFKSfoAJM2CJ0aKXknlrZspOOLlVx+ONWCgA9W4nR5cMGhb96t/mJ2UrBmCbGe4gQPqBABihQhAjGND0xW1m929yggFDDXW7nPyYA9PxRiWT8b3YT5zX+D9carilErhGhA0sx+IACaVfgGhF6TSHy4VrDeY3f7AYrpWQ0dTYNoGfSpOQ8z9u84eUNjnfqtW8s1by6BD6gQPoVeGOp5p167fIGh80bBu/xSWzwQM8kivlDUuc1gTUn7PVHbYsPW+EDCqRdgfqjtjUn7Oc1geTX9fxOEeiZ/PJ3+CJKa0huDsqa4QMKpF8BuTmotIYcEPEt2W0d6JlsRSE9UAAUyA8FBALB/wdS82gqFNe58QAAAABJRU5ErkJggg==;" vertex="1" parent="1">
          <mxGeometry x="860" y="585" width="62.6" height="55.88" as="geometry" />
        </mxCell>
        <mxCell id="syM0QQwry6lKTLaRATjQ-34" value="" style="rounded=0;whiteSpace=wrap;html=1;" vertex="1" parent="1">
          <mxGeometry x="760" y="720" width="280" height="200" as="geometry" />
        </mxCell>
        <mxCell id="syM0QQwry6lKTLaRATjQ-35" value="Serverless Worker" style="text;html=1;align=center;verticalAlign=middle;whiteSpace=wrap;rounded=0;" vertex="1" parent="1">
          <mxGeometry x="820" y="890" width="160" height="30" as="geometry" />
        </mxCell>
        <mxCell id="syM0QQwry6lKTLaRATjQ-36" value="Queue Storage Azure" style="text;html=1;align=center;verticalAlign=middle;whiteSpace=wrap;rounded=0;" vertex="1" parent="1">
          <mxGeometry x="930" y="598" width="60" height="30" as="geometry" />
        </mxCell>
        <mxCell id="syM0QQwry6lKTLaRATjQ-37" value="" style="shape=image;verticalLabelPosition=bottom;labelBackgroundColor=default;verticalAlign=top;aspect=fixed;imageAspect=0;image=data:image/png,iVBORw0KGgoAAAANSUhEUgAAASEAAAEhCAIAAAC/f4FMAAAgAElEQVR4Aex9h58cxZX/7z84B62kVQIRjX0Ym2TA2NgGHMA2CDAmBwOHIw4Yn+1zuPOdfT+fz7ZWAiSBhIRyRDnnjCLKWkm7mtk0eTpMTt31+/XUTk111auantme3dm19JmP9tWreq/f+1Z9p3q6q6v/z+Xjr7r0uYTAJQTqh8D/wf9QpX+qs3+V3CBnblS5H1ecIOROMI3m5xI4/TB4qgL5EscqwyXvs0sck+NTGd9iC7mTQQ3yJY5VHgNDuPslqVXGZRBywy2uVgXOJY5VhksyEHFVZRf9OBwbKhi3xnSj+akK5EscqwzXJY5JMBpc4LjFVQkgdBUG5xLHaExgeXANIzgHTju4knKLG2754eCEFZc4dum6ooxo8KjhtDIXxTrOAlYMLj9wDpwWJ3VpHuOA4RRDuPslqXEwwAqJB1wFm3HaweWHCx9W4KQucQxGh9YO4e6XpEYjIJElHnCVxJauGlx+6MglMk7qEsckEPVWDeHul6RWGZdiC4kHXDUk/VSVVMNxTNM0Vb20zgPuxEvgwLhQ2r5z3nWQezlGBQmLFUPPZrOwpV1b0U8ikbBbAKWKThBCuq5jsAD7ksqJn4pOKn4jIITy+XzpmLK/FeNJpVIy+2JdRScIoVgsVjEvJ34qOnECjmEYFZNy4ieTybjix/UR6BrHHI4kJz2XyWTknefECb5K65Yfeec5iadQKMidOBlGCKFsNutWUm75keflBBwnNHPiJ5fLyYNxCHJFujoJhoxANzlGnEryrCo4kR/nTlRVlYykqvyIgnHYbU7uzDiPx62k3PLTUOBIgnGrs5z3lKqq7nPMxWEtGgFVZSiJp1o/os4bED+XwAFhF/UR0YNWvJK0BwW+PajBtnXhmIvDGhxJYD68kkbHLT+0TyLzhwY1pL1IAK14Zck8oqs9WvSCFj1Pf1A+6ORDm+gK60SLnnfiBOWDtB9QrsZPu6b0lLJj//I4gBpiBvZ4DfMY6Ac8NK/EwdSLYyKa8XGAGoIU6Ac04ZW0Exf9MG5r6DbeA9bwKYAaq7ES1iOnEv4Fmc7fZjp+SX9Q8PdOPrSJJXfanGQ6funECQr+nvVjD6YqP+mu/0oElmpKl6oqPEQgFLySNuw7PbA33g9/XFCDzevIMReHNZMkmA+vpOEGweJNQA3vh9GAVrySseKLvAmoUVU14V+eb/uGeWYEOtM0lD7m2TH5tq9qykWeZiAUvJJBlRk5NX8hMn7444IaHEx9OcbTDAyFVzJIMX749qCGd+KiH9o5eHReSZuAMm8CamKh3VnPC+aZkej0Pw25z4eM1o8le6arSoiBCISCVzJWTI/XzDHGD39cUIODqTvH+hIcgxf5LgHz4ZWMOSm65Yc45A8Nakh7kQBa8cpU11+M1uvRqX8akh/zzLiM9xVN8TMo8TiAGsYKF0mP94Vj9EgGD80r8dH7g2M1B8fjhcHikwE1vDnRuOUHOwSPzivJ0RmBjADeBNBkzubaH0enm4YkwdCpfzLOXp3smaoqQQYlAApIxViRYnUgi/d6qWHk9BPHCM0gWAAdgYYXNE0zTROw4VS8La1xy08fvxpxSI57zkThFqP1hqFKMPPMZdmLz+qR06oapTurf0G2RhJzdLpY7chxyrFsNsuNYUBBh8LLmqblcjnAjFPxtrQmkUgUCgXOiFXQJqCcSqWc0BW0pZWZTIY9NlSmTXjZEThZL/I+gk4NzUnMPD0yf+H+eHA9CE6jjUDDMKBOtulwIk45pqpqPp+3OYAKPDqMRtd1V+gRj8crJskcGiym02koD5sONGSUTr47GBO+qGmaFBwTRd5E525AJ/9pKH4+Umi9I9n9Bn9FkQDVUCMwkUhU/ILGkfdyzDamoALJUy5ApjYdOWnsix9sS86wRa5sB4YKIkNGD5nadEx7UdFmAxWk4Cia4smfv9uaxIYkx85ei4J/RGYSAsbSScEpQy4yJ3pX/ODjORyB1XHMoVOSDy9UFRxvjjUEUXk8InOiJ37kAmkvEuTmpFZkTvS4JZyUEkj2TDFPX41OfGgofj6Kel5FuQ4CBS/IwCEQV3oqivzQgkF27Ic0lPvBWVTHsYrfATw0jKaq4BhbUiRO5PGQ9iKB9iORReZEL7Glq0h7kUAacz2naEp7ofU2dLJpKBLsQ7kLj6LELmTKfmOLwSE1liDCluhJaw5kUlPZD91U4gcftGqOuTisKwZHcGEEOkNJPIwVX2T8iIq8IaMRGTJ6xoov0u1pcLRoR7LnLfPkaHT8w+j4h4bYp3D2tmTPbGTEeUBojQgcWl8VxyQjp6If5qB0Z9FVOP5aOCYJjgYFlOkIavbDOBH5AQOglbwfUEObgDJjJUcc9ICVAj+KHj6aP3cvOv6RIcYudPxD5snLU51/1SOtElik4DCYVTGPYcvaOos9quARKhx5jRxzcViDScoR5zME45E7IafmoDdaWYOfGpIC49E0TYt6kt1vmyeaLYIdG2Kfj2Qu/lgPH1HV6MCCTHc3luXx8O0lI7B2jkmcSuKrKjiRH9AJH4/InOhFfhg9aS8SmPa4yNNMZE70kB8lHtqTO//wkGPXh9DxpvzZr8aCu/CSDgKCSIDAAR7AFZkTvSt+QCeiEdgnjomcknx4oargeHOsETlh4hGZE73ED11F2osEujEtMzQTmRM9bYtl65dY9zTzxJihxrHjw4zTNyZ8S8kDYwQEkcCD0wtRcZMlUisyJ3rSkhGq6izGli7SfvBB+8oxF4c1HxzBhRHolHiZ+GGs+CJvC2p4Q0YDWmElCabiz2joXFGJB7bmzj8+1Ah27CPGyY+lvb9XlTCBjoGUL5KWvNA3kMv+nPsp20AS8YOzcIFjNM14aBgNFFJZxwTH2JJi2UAgYT+kvUgQWLNqkTnRswb2ssOkeI5pij/VOdE8Ngp98KGh9DGPj82de5JZWU/AFAl2UNlSzSAzjhz6Yaz4Ij0C3eEYoZkIIKLno2E0uq5X/MpnTMCipmnkoCIBNGSUrvihERcFw3OsOIk9OZTYVczlo/mz98dChwjOtYFDzInglh/XR2Avx0igIkEyMnBVLpfDwYk8YH1FP+l0GoMl8VPRCUIokUi44icWi0kicZhUoVCoGhwzjwIt6MQ16OiHh9Tn3JeRugKZ5aXhpmlWDQ40Ahp2BLrGMYRQoVBwZVjncjm5HwhhQNd3bmCnrvgxDEOeFDt7Jw+hi0+jo8OGFMFO34yCLaigML1lmqYrIDfmCHSTY/hsRz6SGHBFRXLyCUIvsmL0oC2tZNqLirQJKIsMGb08KTvH8sj/v+jkJ9GRDw+dz/HxqPvXKHOegQUXQWBpJWjFK6sBmbcua+R+yu2kEo7ffY65GJyIrtK8ypV0D4FyualUAm1ppdS6XIlNREnZOJY+idq+jY42DR2CHR2OLj6P4vsQgh+7ovEE5TKOUqkKkPvgR2parsTB1IVjEpqVjy+VCMrgiJSaliuJE5FQbiqVROZEL7UuV5L2YFIUx/LI/z/o5KeGDsGOfBidvRepa5Ehe3SF4AMKZRylErGtBLLUC/UcNOingnGpGgdTL46JaFY6eoW/BCnQTwXjUjXtBJRLDSv8BW1pZQX7UjVtIuu5rAe13oeONKHDHx4in+PXovBslA+XkAD+0uCAMmADqWhbGciQLa2T+6FbSmTspI4cc5EeDFiSrOgqGiZQphtLZNCWVkps6SraRAyOgfwT0Yl/HiLsOvwRdGQE6vwVynbSUPAyAw5f5E1ADWPIjBzqZAG0LivlfsrtpBJ2Ul+O8SNJGlK5ksmQ8VNuJ5V4J4xGal2uZKz4YrmpVOINmRGAkInMGDp9BzoybIhw7MhwdOYulO2yUpP+48FhNFLrciVjxYycmjnG+CkfTyrhYOrOsb4Ex+BFRqQ0r3IlY84Xy02lEm/IaKTW5UrGChdJUlb3G0kUmoI+uBId+vBQ+BweZhz/JEoeQ2blDZdAcGhlGUepRJsQ2Qay1JxUEltaIH5IM7mAbfuDYzTN5DGRWjoxWsZJkmZygTYEZbk5qQVtaSVpKRdoE1ou9VwU5bqsSezw8KFAsEMfNo5dn+ychsxMxUmMX+NC44NlObakljfEmhLIlR8ww67kfsjh5AJ20k8cIzSTx0RqRRliP9LNm4gP2RZ52L/pxj6NfTn9IGlqmqZFPCj0DjrcjA59BB0c9B/j6McyF36mRdr6DrJbX6wu+qlqBDrimKZpiUSiPHjFEhk0oKDrupO91ip+q+m67spea7FYrOIGchWDsd7w4AI40XjwfeP0V9DBjw4BgpmHx+bOPBEL7FZVNR6vsIkAHk3ggCFKTdOSSeF1f3o8EhNQcHEEOt+IzhHHcLhOduoEE6OVjnbqpO5O0La0HIvFKn6X0O1FsvNd8kQesN7Jd4fEgxZpT3rfRIdGDgGCoYPD8ye/muiaR/b6TaVSNA1AWQIOqWq0EVjxCxpH3ssxMG1aSU72SMKgQJuAsit+8KHJGTYYiZNTOHf9iMIgehCQotJA8YPo3LfQgY8Mhc+J21BgGir0Tl8kfbkgBqe3xpWR42S5H45THg9u43AEVsExJ0nKIyPnXQ6DE3kjvSX3IzInetf9EIegQI7LCgUNBWegg6OGAsGOjEfdf0LZbpIjCAWvJO1FAjaR93i/fbGS+OXx4Fyq41hFmokAIvqqgiNWjECcyONhrPhiPfzQPhmZD6CoMVFsLzr3xFAg2MHhqO27KHGUzpQBQVSkTUCZGDoZ1qAHrHTFD3HiZARWzTEnTp1k2Bc/dIYSP5IwGLgZh0yxvn6MDPK9iQ6ORe9/ZNB/Tt6F9B0I2bYipcGU0KMqkAfcD51UxRFYC8cqOpXgVVVwIj+ME1E8InOi5/2AGtJeJIBWvBI2j+1G555E73900BPs8JUouhwVdCZNBgcRPRgrvthQfphg5COwRo7JnfIAEU1VwRErRuCdgPEwVnwR9MMreUNGw5uAGsbKKhop1P2/6PDH0P6PDO7PgSbk+zvK+vhHV3goQJoB4NhVDeWHD0YyAmvnmMSpHRxbqargbJZUAXTCx0NZwKLID6OHjSkt015UpCxKYmw/an0c7W8a5AQbg84/j9Jt9A4CpQzhlQA8zUh7kQCiOlB+wGBEI7BPHBM5FcFErivyITJgSTxInDDxyJ3I/dAR1suPkUGdf0JHrh/kBBuFTn0ZxfaBBJOAXFWPN5ofengwMp0XHjl95ZiLw5oPTjS4mayYIvEjMid6xlBUJO1FgsiQ0bPmiWPo9AS0rwnt++hg/ewfjo7djgLvSFYkMiDQRdJTzq+50+ZE7n8/5NCgQOLBPe4Cx2iascOIK4MxESUTHGfdqyDtRQL2IzInepE5oyftRQLTXlS0mZt51PFHdPiTg5Vdxe8F4+DHkfe31q9K8T8RGljvsMcl89iA+JEnRRiBUenlWEUbMYZWjWmaiUSiopOKX1e17JEGRVZxZyscKmRq02Wz2b4nZZpmMplk/Oihk4UjX0R7m9Dejw7Wz/6x2ZPP68HjTGpM0QYoVEin04wJWIRMyzrDMOLxOGjIKMs2kOTiCCTHdYdjeOM3J0lCedl0uVyu4paGNgNBIZPJkO9Iki0jCExt6lQqxVjxRZsBVDAMw/4dFE2f/71x4GODlV3W98IwdPqRTAB4PzqDD4SHTefwC9pmAxXy+bwrIzCbzVbc7xE6PqsjO4W6xjHrQnS1WwiyUfWWK+6SJ7Bj1WTKZnqdFFkDQZm0FwkCO5ua2kIwqkUuFg7divYOH8Qc++CzKDAbGZXneRsKggIFjghjR899NeYIdJNj+KRZPnsIQGbVcnqwrQVl3F2SeAR2rFrY7aUK1kBQ7o0n2pm68Gdz/3i056OD9XPgStT1N5QNVvyZVPHXAYGqhKXwL2kpF+Qjp6p43Bo57nNMnqQcIFLbOxztr70h8JNmcoG0F4ElNye1xI9IIC3lQtE8EgsdKU5iIwYrwfY2ofbXUPI0Mq2dEkWYEL0cE1JL2osE0lIuYHNRj1fFMclIlsdAanEwdeGYW8GJ/JAc5ALdWyDocnNSS/sBZdJSLljphNtS7X9De5osgu0enJ/TjyBtNzLSOFkQEFopx4TU0iagTFrKBWIL9ni1HHNlBNaLY64Eh/HiwZKjTGoJ3O76YdxW022RmG9H/sjdg5Vdu5vQ4ZtQ+D2UL/864tFgNKQ75AJjxRfl5qSWNuRHTjWdVfbE+yGHkwvYRR05BtJMHhOpLedXlJgkSTO5wDjh45Gbk1reD6MhLeVCcRJrMfcMH5wca0L7r0Kdf0Y521akDBR8UY4JqeUNGQ1pKRcYK2bk1MaxPo6c+nKsj8HReNFgyVEmtbQ5kd3yQxw67TbTiHdvzB39urlr2KD87L0cnX4G5SPMkg4aB1Am3SESDBNlCmYwqioK6KBXKTJn9LwLuseddhb0O5P2wxxUVMTB1J1jDM1E0TB6HinaD9NYVFRVNRxVu0OKJ6BcDChdISUctTkWGTJ6mw1UYNrDxbyWuvB3c/eIQUmw3aPQ0XtRqh1f56AThPCw6ejGvJwpmD0J46A/u6stet6vhOwdRDvibUENbULkmulBPGCB+AEPzSuxVX9wrDZ6MOnRSfLJgBpVVfe2RX66wXfLjM5PT+94aXXP7vYI7Ra04pW0CSjzJoBG3ZE7+uCgJNiuYebhO1F4NTOD4RxBQGglAAWlWt2W+MJ836jJ3tGTPQ8t6drYWn5DNO2kL/MP9lMbPZgYyEimMpCJ2LyfOFZbcHyG2I+Tjd8ME00/FPzy/K7xb3pHTvKMaPFc/ob383O6ph0IBUpEq7ivEMYPDINWymDGdYUY6vibuecyc+ewwfc5cKPp/b+oAG/+R+MAyqZgE8tMwVx4Jn7nnO5Rk73DJnqGTfSMfd17/8KuladgmlUGudgCjAErMc1c8eNk4zdyY8Mpx3Sdfb4VjFWSIaaHG1sRqpqmybcByxnmuvbk3XM7x5T6D/di8yTvrTM7Zx8JdQatc39N0ypuIEeQkqRWGRxlu3ny2+bOpsFHsL1XoPM/RmkP2N1OwNE0jaeZljEWnol/dnZ386ReguEOGve6976FXStOhZmzek3TYrGYKAZaL+kmVVV1XXdln0ZN07JZpxuM93KMjhKUyVQrzwG0pZWu+MH0EEXSHVKWngh9dUHXmNdt/Yd7cXiL554FviVnE5GUIfdD/NPxgzJpCQpatCd99rfG3msGH8F2jcwdeyzetZ7slMgnCAJCK3mTNr8y41Dw87M7h7dY0xfzGfu694Gl/u0d6WTO9hoKV0YOQsgVP1WNHKccq8opDTEj84iDGsaKKWITEKyOoLLkeOgbi7pGQP1HuvP+xf65p+PnesQ/samwmKPzRaotIMa7NuSOPGDuGDboPvlD9yQ972rRHiCrkopHg9GUGvb+be1Rph4I3juvk/QFL4yc5H1sRXCLNx3Lll+66eIIBEcOEyeTBVPEjSv6wVZVcMxJkkwofJHJRFTkDWkNsWKS9AYsgj20pJvvNl7z1UW+qQeCTmhGHxqUSTy8oEX96dO/MvZ+fNARrLDvk6nzf9XDrXxStAYEhFbSjc90R1/fH/zS3C6+O1hNi/fp1aEtnrSe6aUZ9sP0OO0cy/ShQZk3ATWgLVESE3k8uH11HKtIMxKESCDByQWROdbTtiTJzqCy5ETo4aWOCIZ79O65nVMPBNv80vsyanlNgygqOh5Gjvl25w99xdzRNMg4tmtc+tTPdP8hJh2+KMKE6InJOV+0ZV/g87NlM5iNaS3eZ9eEyGxG/JAeJxpaIMcVCXRjiSwyx3raUBIPblw1x+Q0k0fm5Ccyjl7uh84Qx+MLW7/BHM5gdEd+YY5Fs66QjGbyYGRJKeH06V8U9lw3yAi2czj64Juxnl2Sn2GkCxyC0xFU/ro3cPusDhr8ynJxNtvmTafyJjliY45AOjwiY3Bq4ZgkSYeIkyBEgtwPYxVV1OWnwt9Y5OAMhPuFPWyi5/ZZndMOBCNilsmDEXNM0QPHCvtuM7c3mduHDZ5PE9p7DdL2adEAgzNYdAJOOKr+Za//pneqJBjurBbvt1cEd3amo/YOEs0eTuIBE2GUcj9MYxEjsJMaOSZ3KomPDw7USDzwY3rtmcg3F3U3T2KvUFX+miz24ogWz2dmdr7+fhCMxMndT9hQCaVP/9LYffXgYVfxi2DX5SiwGOV1VbUPajhJRyfSf9wZuHFGh/wqlKSzRk32PvxecO2Z0m3NUiQgzeQjhx88JWfsX7kftnWxzMeDndTOMZBm8sjqkeHaM5EHFnWPgy7TS7qNqWqe5LllZsdf9vi7oZPGWpJSwnrgmLH3RnPHiMHEsd1XmedeRbkIMq0bG07+ycFJ5Iz/3WMRbGSt34C4py57o+Obi7qd0EweTz1GoAQlHEyfOMbTrD8zDEXV9WcjDyzuvuwN4D4Yw6KKxZGTPDe907HsZIinWQ1JaWFP6swfzB1jzW3DBs1n5zj0wcMocQbv9SsZOnSVBBw9a6y6kLzpnb4SrEQz7wOLu9efjTBrGpnZQxIPrqKDl8hyPxJDugo76SvHGJrJI3PxW6QnrKw9E3loSQ+zkqMilyQNmiZ6vr+u51Q3e9Os6qSUUKxnb2Hvreb2EYOGYNtHokP3otAqspk2PVYksgQcr5b/l/XhJug3sKQXJFVjXvdOWNKzsTXsC9vOY2maSeLBVZJc6Cq5H7qlRMZOXOAYTTN5ZG5xrCukrD4dfmxZz/AWF2YwulPvmNX5/kX2vL/apLTQ+VTr/wwadhVnWvT+7ajjDXpRomTo0FUScE6Hs3fMruJWCt0RInl4i/ep5d1rz4SZS8GEZpJ4cBUdvESW+5EY0lXYSS/H6ApQlh/SNE0ne6RVvH5gmmbFjd+6Qso2b/r5NaGmiS4TbNhEz5fm9ZyJlNehFQoFEA1GaQPHzCN1v3nonkHEMWPXtZlTP9eDp+m8bElBhYrgHPJE7p5X48VeEcew/oV1oR2d6Ti1CgTcxJJOh8hQKmWdYRgVN36rOIyZPdrc4RgqbmPqZDPKcjYCiduKkIBjCT1hZc3p8PNrQvI+qKG2aaJnzOvevx/Ugknb67NyuZwtAqhgSyUbRB1voq3Dza1Ng+OzfUz26DOx7s1MZrakBAU5zc75lH/fHhg12evi6SLp2RfXhXZ1pZP58ppGh1/0glTKavkIxCiVW4slAo5rHMPHYvqJL4pDKteYpkmmftpDKKquOxN5/L0e12cwTLAvL/R1xgpGudd6Q6JjAOVy6MhA0e3m4fsGB7usb4Hhhf1fSHjm81fqqaRkIggIVkYV9VS38rk5PeTpFcKQvgtNE73fWRva153O2TtMEg+ukiVTqhONQOK81LDCX9y+ETmGf7bxNNtwNvLIEvd/gw2b6Gme7L1rnu9MNMd0GIaQICsSykjno6hjojmIJrEdVyUvTNOi3Xxq5aSkEm9Ia0JR9Xgod/u7PSPtz7D0nWPDJnpGtHifWhU84MvQAdJHB2W6sUSmrzLwfiSGdBU2bFyOMUmuK15FHNu3+2Bg146e7P36Ev/7vkzOgB8n5CFmNGVYI5vQkQfMLU2D4oO2DE+f+S89eIqfxJz85MBZM1AwRUVVswVzd1fmKwv9zKNiYF9Uqxz3RscTK4Pv95RpxgTAF8udJZV4Q1ojNS1XYpOG5hjJav1Z6zL95W7cB2N6cczr3m8tD2zrSKWpM/sySEWJhCESetvnFNT+3+aO8YOCYOaWpuyR52I9e1UlBObFgCAqgra0EiGUzJubPOkHlwZG1WE2u+JNG83oQ4OyKBFGD9oSJdNYVMTtG51jwYi6qTXycN0I9vjK4IaLqYT9cUAGMoKsSOhtH96Ejjw0OAi2tbmw98545zrJs2EMCKKiCBOix4bxnLm6LfXIe8F6/DYb/2bHk6uCh3yZbMG2dJjEQAuiRBg9bcLLTGNRERs2NMd6wsr6s5FHl7p5o5nMY2Mme59YGVzbnoznyg8CgmDxEDMayyqvo/P/bu78mLm5qdE/W0ai3TckL7wF/gwjqYFQ8ErSXiQQk1jWXHE++a3lwXrMZmNf73h2deiAL+ODdwMpR0fikQtlA0iS25JabNq4HOsKKevOhJ9a7v5VxGETPaMnex9a0u2EYE7um1uYKjvNww80OruK/Ec7r0Pnfq1FfeDPMDKiyECRC6S9SKDN9ay58nxywrJAPX6bNU30fm9jZPO5SI99FQgTGB2PRGasmKLEkK7CVg3Kse4iwZ5d4XP9Mr11FXGS9/6F3ctPhROVZjCMF4MvX0SFJGr9pbnz44OAY9uvQMefRmkPnwWjoceKRGas+CJjG8ua69pTX1vkr8eVxqYW77+s8W0+F5HMZkw8oiKfCK0RWTF6bNKIHEvnzfVnI8+scH8GayoS7Atzuta3hn0RhUFEVKTBBWWkHTQP3DMICLZllHnoGyi8yenkLEKE0oOA0Eqqba+YyJnbOtJ3zqnLBf2mFu9La3xbz0fIDn90MG5dL+WTAjX40A3HMcNE+7ozT9ThRjOewW6Z2bmrPRIsrvt1svGbg+EYRWdeNXdca25qauzPcHPPbcg7BY8GZuTxxaq2EOTNicaEboik8+YBX/bTM7rrNJs9v8q380KUeawThwSSgVeS+EHBycZvZOQ45ZimaXwcvAYMiCid7JK3tzvz5MpQPX4WN0/y3jWna2eRYGTZtpPtUEn8gKBEYv5DhV23mpuGNzbBmtC2q9D5P6B8bz8CuXAq+SaWuPc5I0DB08xE1h73B3zZO2fXZTYb/br3qRU9Oy+wj1BomhaPx/lxy2uANOyqVEr2pnkanF6O8cdgNHb/whJjxReFlsWKDWcj31ra48rzYOT6IRZGT/Z+Y4l/V1c6Uyh/r8qDIbV8FmVNIYVaf2lsvbLBCWZuHpH94Huxnv3kOkc5BYFE0pcLAuuyWmSuqGogoq48HblnXlc9LoFcMaXj2bWhw4HyCm8ckygeRl9OAHfs3VIAACAASURBVJKYxqIiNm0UjkUVdWOrdZl+/Jvur6Yf87r3keWBjZ4UvYSUTOUigIgeArmoM7IoftrcdZO5aaS5samRP7kDExLe5fQWHcKkShUkfblQai78KzfvCauLjofvW9DVxwelma9UXLxqaudza0NHA1l6SaM8HlIrzKdYQZrJBeykITgWjKi72qKPLavXSo5vrwiubgPug8kBIrVCuLMhdOGP5ubRjcwuc2NTYeetyfNva+GLJCMnP/3pxhJZCE6pQmKLq7pC6uyjoQeW+utBsyumdLywLvxBMJsp9K71rhgPblAKH/5blZOB55gvrG47H3lhVc9o+9704DdTtcoxr3sfXRFYdSEZgy7TV4UUC7aRQer7aM9t5qYRDcyx4caWK1Kn/qAHTjHJsulwZaa9qMjZsQqRIa33BpXFZ+PfrA/Nxrze8d2NkaOBDF4uRx9XIrNp2MsSQ7oKGw0wx3xh9f9fZv3uWt9w955IJzwcNdk7YVlgDTSD4eRpOCSyHd5SKd2N2v5ibhze0J9No3KHntX9R/idEktpCP9KAKGrhPalCrqxTM4YS1sTX1vkq8ds1tTi/dnWyBF/htmnURJPKXz4r8SQrsLGA8kxf8Sawb5XH4KNaPF8dZF/kycludFMwyGRAZjNPIrsRHvuMjcMb9zPxtGFXXfGuveoUWBbOyApu0oCCF1lNwJKdGOJjBDCe+zcNa+75l3iyNcrLwxv8fx8a+RIIBOQ7KRJxQdkQqmohjIRWwwYx8JRdeeFyMtr6jKDjWjx3Di9c1eXtb8shQwryuCh6lgzhFC6B7X/rXHZtWG4uXFkYfunEu2L6OscVE6O9kWk24tkABy7SmTI6LFRPGdu8qQ+/U5nnWj20y3hPe0R5sVLTCS4aE+CLYEmvBKbDRjH9rRHv7Oqpx5QjmjxXP9W58bWsJxgfbquGNqE9t3TyBwztn48feJX5Eq9qPvZsUOVeRNQQ1nAImjFK4lxKm/u7U7/89vwm5P4CaoqzYgWz0ure/htkSTxkMBogW8ParDJwHBsV1v02ZV1uQ82ssVzx6zOVaet7cFkU1gxexAXXkmDa8mZALrwZ3PjGHP98Mb8GJvG5w48rYXO87kQDZsUVyYt5QJnxyrk5qSWmJkIpfLm1o7UZ2d3j+jbzqcg/S5/w/udVd377G8tJmEQgcQDCqSZXMC2A8CxXW3RZ1b0XDXF/ftgzZO8d8/tWng81BNWlL69b4XGjkU5sAa9f39jsqsYVXN+34Pxzs38dQ5ZUmySiG4skTk7ViGxpatoMxOhRM5c1Za8d0FPPS6BXDXF+/zKCjSj4+FlOnKJjA37lWMFE+1ut2awOhHsawu6Zh8NdZb20+ahYTQSdOgqm1UmgFp/b26+smE5lt99d/L8jOKjK3QSrGxLCiqwBoIyZGrTCexYtc2mWNCzxpLWxP2L63Kl8eop1my2/2IEXNNY8f4hG72gjJPq5ZigTVnNQ8BoMplMuTUkBSLq7rbodzeEr5hS0/s7pBf3myd5v7nUv/BsQi29Es6VXfL432yJtgX53V8x1w1vzE9h26fNtr+ijJ/pHaYYi8X4LYmYTmNMwGJFJxUHK96KkDk0KXqDyozDwa/VZxXIlVM6frAxfCqczZZuT+Mc4/E4CUAkgGgwSjICXeMYQkiyFaE/rO64YN0Hq8eN5uZJ1qY3C88klLTtiWYRQETPgCIqkvZa2JM58mNj41WNSTBj4/jMkVeQflKUCK1ntiQiORKBbiyRSXuRILElVYYhfIWFp0izr8zvrMdJ4+jJ3p9tDZ8IZZndXCruFEoilwsYEzc5xn/r42P4IxbBfrjOB75jG/xh6lw5cpL33gW+pa3lGYykLep1oict5QJpn2hflt91b2MSzFzfnNs7Ie5dSzasd5KUZCKSm5NaAo5IIC3lgshcVVVvUJl1NHjPgrpchR7e4vn1jujxYDZjv80jicfJ5IyTxU7qzrFgxLoPVieCjWjxfHZ2z6oLSZ3alpn0pRymapHSov7soZcbdxLbdnPxbpiPpC8XCDgimsnNSS3xIxJIS7kgMsf6zpCy8kLytne76vE1PaJIs5Mh20kjPq4r4NSXY1FF3dsetVZytNT4Aj7JhDaixfOJt7o2e4W7Ssm7rVqOxb0b89vvNNcOb8TPulHJ1qlauL3apCQjSU4JUusuyBJviZy52Zv62LSOOo2lf90eaY2W97CVRFItyHXkmKZpe9qjL67uGTO5HgTzfnpG9/bOdCJXfh6MdDwW5DBVi1T2wAvWJNaAHFs3KnPoB8VVv9ajpwwIoiIDDv+FLTJk9Iwfvsi0FxV5Q0aDL+hv70zfMKMut6fHveH96ZZwazSHI6SP3kdw6six3W3WSo4r6/A82MhJ3s/P7VnbnrQIJr7TTMMEyqL+ZvSqEo517SxsvdlcN7LhOLZ+TGHnF/Weg2QrUiZ4UZEHhBlJIkNGz/thNEx7UZGx4ovIem+Jdd9sbXvyzjnu355umui5ZmrHK5vCZyMWzZgA+gJOvTiGl0pdM9X9G80jJ3m/stC37FwiBv0Go7uQgYkv0o0lshbpzB76vrF+vLlmeGN91jYXtn4m0b6MXvUrSYSu4tFgrjTSjSUy6IdWSmzpKtoElEnjWNZaoV+P29NNEz3XvdX5yiZrNuNjoGlGgpEL2In7HAtH1X0XrVPEq+uzkuMr87sWnImT+2CSJHmYGI3EtlxlpOOdW43NnzTXNptrRjTUx9hyY+rUX7SItVMiGQHlyKUSAwUpuuWHOJRGUa4k7UVCuSlCasaYdzr+1To8CFOkWcdPNoePeCP8Av3awHGZY4GIuqc9+t01vvF12Ju+eZL3K/O73j4UZO6D0ejTsqi3iJ5uLJTTPZmjP29Egm28LnP4h3rgDEkHjwBhIvYKYsULbvnBnu2HFZb4MBgNYxlNG7NP1otmV03peGV9z0FP7/5ldCQ1gOMmxzIFc1975Efr67L4ZeQkzz3zLIJ5AorsRxjVFTQ0oEy1FYhGGoV3GZtvMNeMbKgZzFx3WXbfYzHvRiYvTdNcAcctPzVfg2HyAv1EUsacU3Hrvlkdlg6PmuT5+SbfAU8kyL66WK0WHKccq7jbXrZgng5n/3VzvS7T3/lu56wjIW/QunSWTCYNw7akA6QI30+MJp1Og4ZlZdKLzv5nY7HLOl8dld/xpeS56eCjK4lEwsm+kQwUfDGVSrkCclVbEfJhEA04AqNpY8GZ+J1zuut0Qf/ftvoPeCIhdgu56kagU46pqirpubxhno3kfrdLqccmXsNbPJ+a3rngWHmxr6qqiUSi4hc26R6JINtC0Cyg4Ga07RZz9YiG+hgbrk+d/F8tAryYD2cai8Uq0kOCCalKpVKugNzXTSxLAYEjUMsYy88nb5jR2VSHe7DNk7y/3uo/7I3yv82cj8BejpW/uQVSKU3479GO6M82+urx2pvhLZ6rpnQyN5rhIDitIJWymrOwKfTAyfSx3zUUu8zVI9DqkejMf6FUVzkNu2TLQVywGwElsamtBrC0q2ytxQW7EVASm6rdIWXZyfDlb3jqQbPRkzt+s0u5qOXpmCTB0FXYxAWOHfZGXlnvu2pKh+uv1h7R4r15ZvcmTyqWtb3ikk5DItOggLLE1poq2xYWtt3ZaBzL7nsGRQ8i0/ZieDo7khS5CEY0tECbgDLdWCKDtrRSYktX0SagTDdmZEVRO0PK0pPhG6a7vwqkaaLn6qmdv9gebVN7b0/zd8+YeEgRJ9JXjh3yWmsRr5vmPsFGTvLeNbdn+flknLvRTHJQVesHKF2kZbCraCXdmJGtSezoL80148xVIxrnU9j6uUT7MpRP0FkwMp1IncChD8EcnS/SjSUyb8hoJLaqqiqKNZvNPhqqy+3pFs8n3u76+bbohRLN6GAqgtwnjh32WlcRP/FWh+tzdPMk75cX+haciWul58FoxOkMJTSjTUCZ8UMXk+dn57d/qXHYZa4aaa67Onl2mhZqB3MhSjqLOoFDH4IcVyTQjSWyyJzoaVvRsPYGlbmn43fX4enpphbP9dO7XtsWbS/SjA6mIsg1ciwcVT/oiP5kQ3EGc/u35shJ3q8t8s85FRfdB2MyFCVJukck8H6wRg+czRz+qbl2fANxbO1lmSO/0ANnVSUqSgfr+aTAESl3Uu3pkMQbHw+okXgA8wKTUlU1mjZmnYh9eaH7N5CairPZr3ZEPVqevwQCxoMjr4Vjwah6yBN5bZPvyjr8Bhs5yXvPvK53T8aj9gcu6T4AO4lPkjYBZdCPdW/g3Jz8tnsbh2DGmsvzux/SfUdVxXoTK5gLUYJJuQgO458cVyQw7UVFkTnR84Z8UhiccMqYeSJ27wKf6/fNmlo8V03t/P1u5UhHlL+gz8eDg6+aY8GIesAT+fUWf/Mkbx0ucnjumtP11qGghGCSr1gmSdI9IoHvNmtKDHmy73/PWHOFuXJEQ3xWj81v+1Kifbmq9N4NFaWD9WBS/FQvdyIBmfE/sH6YHidfQJGU8e7J2F3z3H+ss2miZ9Rk72+3+Q95o/gtdjQgTDwYnOo4FoqqBz2Rf9vqr9Nl+ltnds4s3miW9xydFSPTScqdiIZR4sLC/NYvNgS7LJI3Fzbdkj75ZzpNeV50S0buOziMQzKmJSHxJqBG4gFXgVaS745o2ph/Jn7LrLo81jlqsvd32/1HvFF+O1Qe5Co4FlXUox3RX23xN9fh5Q9NLZ7rpnUsON57o1mOuAhurCdJyp3AHFMiub3PmY0zia25Mrv/X7SwR1cCWtSPP6iQknxIM1AgfiQecBVozivd9pNGZh4h4IElSaeTHmc4j29PXzvN/Wty1jtZJ3t/v91/ogt4WyeJB4/AKjh2tCP6802+y+uw2Hd4i+faqR1LT4a7wip+w6WcHhK4aZrJnUAcUxIXVxU23W6uGGmuGNEQn9VXFjZ/Prfr27ldj+V3P5bbZX3Q/qclH9xG8j/2I/GAqyQe6Co3/bz/DDr2M9S93HqHPUczeaczwxp3vYmQljHWtCWvmur+fbNhEz3j3/T+aov/ZBe31Kp0S6k6ju3zKt/f4L9mqvv3wUa0eG5+p3Ph8VBnUIkqvfe75PSQw01oJncCcSyS2/2EsfqKhmAXJvnKZnPVOGP1ePwxi4K5+grJhzSWCObq8RIPuEpiTqrc8mPgeNZcYa69xtxyu8W0Avsm2IqdjmnGdLphWjRbcT5508wu1zd+b2rxfPytjtc2WbMZHx55vXPvPMa3oDX7vMqPtkavm94l2V2jtqqRk7xfmOdbdDahl1ZypFIp+tCgzOAIFuPxOPluA50w5xXIyKDIXnPjjebK5gbiWINMp/0ZxspmY/0NsZ5D5Mlu3H1gL9PKbDYL9riiqh1BZfqh4O2z3N+kYHiL55Mzun6+QzmrsStvyAiswDFFVfd3KN/b4LcI5vZ9sObitm2zT8UV+41mEViEKjSyEpn/QUw8AN2WjaLDPzRXjTeXj7z0GVgEjFXjY13sK50kHU2q8vk8SDNVVS8GlMn7g5+b3TWixeVn8637ZjO6Xt2pnNOod40XY8IjUMaxUFQ90KH8YFPgqmkd9SDYVxb6Zp6IRaD7YHJ6EEzlAiaSCHTbPFZIofButPafzRWjBnZ4XTq6sfLy3PYHinfbbU9uyfua1EpGznmf8vd9wS/N99WDZte+3fWL3ep5rUC/sBWPQCHHAlF1nzf6ky2BsW+6v3X2iBbPPQuKBEvBj4HJ6UEAlQvYiQT0snmyAx37xaXxPeAIWATb+tXE+UXMiaLtC7HcbYAkHznnfcrUD/B9M5dns2EtnsumdP5mn3ZWzWdK73iXcQwT7GfbAk2T3A5lomd4i+f22d2zTsIzGIZNTg8AWkhFnIho1mtkpFFwK1p3/YCPsH/wAIyVl+W33JM88zbdcUSGehjQkfai85dgsvD2sdht79blsc7hk73/fkA7o+azRZrhYIB5LKyo73dELYLV5z7YJ2d0zj4ZDwtmMAwbQQqkBwAtpKKdyPzE29CJ3/6Dj++BT3/FmPzmLyRPvQ4+3F3tPIa7HqQZQihsrQKJ//P0LtfXsg+b6Bk+uePfD2itWj5v9m4gB3DsSLfy6vbg8HoQbKLnsje9i6m3q0DUsHRyeoisGD3jhKdZsb2JfOvR+k8N/CD7x77WUth0R+r066oCXATH/ch0rqjIdDpPM2yoZozFZxNj33D/XtSwiZ4Rkzt+s09rixVwMCzHDnYpP94aGD/V/d9gxRvN3iWtiWjKKJ2vioBiOcbQQ2hmr2DgxkUadKt5/EJxEhttvjfy0megEECbP5c69aYW7gS7DCvtfSss8R7oHifzoWGiaMqi2TXT3L+gP2yi54ppnf+6Rz3cbS2psHHscKfyypbAx97udP0q4vAWz40zOt4uLvatSDB+HmPoIQTYXsHDzfkxUedStPnOgRpbl45rvjcSbboDtb+jBy+IzhJxr9n7VlgCO52mGbG0aJY25p6K3zijDr/NWjwfn9H12vbA2QDFsYii/sfe0A2z3D9JHdHiuePdzsnvBy5a27aRHGUCiBSZzWSWVJ3ISdlPvB0d+6W5YtylsT5QCKANN6G2t1CqR04wMv9Q3QuLok4nNKPNTBNFUsb0Y7HPzu6pxwX9m97t+vP7ofI89l5r9EuLeka4/TNsRIvnc7M7/7Y30Oa30qczlMgipDA9Km66hD1LnBT9qKZ3Adp690ANr3/04y4fhdZ/Cp2bhFLdCJmSzsL0kIwWuqoGP8FkYcpRvfggjMtX0UdO9t67pKfMsec3+F3/GYYJ9te9gXM+68RU13XZXmsUVBKkVFWNxWLgbnuUA0uUO9H9p3MHfmSuvPwffawPyA/R5aPN9Z9GZ/6M0gFkWvdI5Z2laVoqxa5gZLobF+V+RCMwkCi8cUS/a677s9lVb3X0ciwcVT83r2u4q/utWvfBZnUSguHkNU3rOz0wzSrOZlK4leSZGflNX7xEsAFAwCLYTej471BOxwSryDHclU62Q5V2ulUpGoH+ROHNo/pn5/S4ux3q8EneXo5FUoXb3+2ubV0vbNXi+dTMrmnHYsGkba0k+S0kxwL8iiJKbEvOsEWuSHtAyEbRgZfNFePNZSMvffoVgfdGGWtuyBz4mRbuojsO6CO7ypWRg8ksGjnnfcrE/cHrp3fCQ3pija/R6+XY6XD2lllucqx5Sud/H4t7k+xFRBfoQZ1XiMDCR7H3kb3UuczcfFe/jq1LZLYQaDZWXZfd/wp/md7ePUDJlZFDJkxw5CiqetKv/seBcPObbtKsl2N5E31+vq/JpSXJI1733r4v/liHsTqBdPuCRPLVBSZJagGMKRVpJv9uoyzsopFDe54wV1x+iWP9jcDKqzMHfmat9+19Frfck/YeAkqkaV9GDuEYOHK6VW1ZJPm4N3/7vrhbazCaWkrnigihr68MjXqjr7eem1o8o6Z23r4vfr+nMKEHvRxE78WRRtGMIAUmSWoBjCkVaYYFEeiUBSWaBdSz1txwm7msub9H2D/4VLbyyszB12LdR8jmP3Q/Uj0Ei3RjUY87uXAt8tOlagsjqZcDxoQedL+ncNveuCuz2ag3Stc8/v+Ch1cP6te+06enMJtaPGOmd31md+x+j/FAD3rQhx7yoR+E0FKKZnSGEprBMJe0jBORn1Jz+q+J8km09ylz5RWXCNavCCwfnznw81jnPjUa4ruvWm6IerxmP12qNi+c+kGg8LDPGrcPWDQzbt2pj3mrT4wYNtFz3czu3nNFhNCOcP7Ly4MjXq/xFkFTi2fcO9237NDv8xQeLAaK/3/Ih35E0YzHF/xOomnBy7wTEHTe0HqCPbDFXHO9+d6ofh1h/+Az2PJx2f2vxDp20e/UZToR6Cy7imkP9ngNHFNVtVvT54dTPwwUHqLG7YM+dN/Fws3btLEzumteOtz8Zsc31pbuQSOEkgb676OxT73bU8NFlaYWz2Uze27ert130UYwQrMfhtCKBIoZCG+Jw+DF08wOL1tizEmR8cOaIROlfOj9l8zl4y4RrP8QeG9Mds9LsY6dWjRAeooXuM5iFbwJSDPWjCvTfhRV7Va1RcUZjCEYHrpfay/ctFUb905NNGvx3LHQN7U1WZ7HEEIn1fyPd0Svfbu6iyrWDDaz++Zt2tfaAYIRmr0cROsSqFPRwJXVlehhg4qGiZFpPzYbhKxXMfi3oBVXm0ubzaUjL33qj0CzueLK3I7HYx17VCnBapt/cNfTPV6VH0VVu1TtvUjyX/wGSLBemrXlLZrNqO6qe1OL55Ozuv5wSO9KmzaOIYR2+bMvbYleOc0pzZpaPGNndN+8XZcQDMc6wYeeDaCVkaTXAc1YetjLDK+YIgHdbmSieBs6/JP6D6xL7C0hsOIqtOexWPchvIU4001M0d5ZQIlpTxdJjzvnWFRVOxRtTST5rJRgJZoVbt6qjXnb6W8za7PQGZ0/3x06Hbcu97EcQwjtC2Zf2BId6+wa46hpnbfu1MFTRBwf/f8EH3rMZ66OJDsUTX7SCGBMqWh8QRmDTlkga9sp33q08upLHOsnBJaPRzsfRtpJsIN4pa2zoAJvQmsIzSBTm856kZKqdqra2kjyCb85wf4bjB6utHxfe+GW7fqoKY7mniumdby2J3ywp3d1bi/H6HBVVd3pUZ5cH6j4w2zE697b9sTv9xh0NBXlx/1oYwrFoAX4+Xxe13UmGL5owwwqZLNZxirWfTCz/5V+Gl6XTkSXNee3fiPu3eZkYkkmk0xngUWon8s6wzBisRhoyCgRQgkTbUuhJwPWJUTnn/s9hc/sig2vtPvG8Mne3x6JnVXT5Lgwx0JRdY9XeXFL6KPi9SMWwfbG77tYwJfpncc6wYe+E0SrkkiDaJbJZCrSrAytWEqlUuS7TVUiyda5xurrL3GsXxBozm17JN6+Bl9FFHdRb41pmvF4nIxIkVDRTz6fd0Iz3UBrk+ilIHI4g5GB/UAPuq+98JndMpoNn+z9zZHY+VghbyIyAmGOqaoaiKp7vcoLm0OjuKv51o3maZ2f2ROrgWA44gk+9L0Qei8B00yySx7ugIpw4wbkulOs+3DmwKvm0tHmkpGXPvVGILftW4nzy7RIj/POMk3Zsy3O/RiGUf5ihcjaqWgrEtY9W8lFDkIqXsA0u3VXrBk6aRw3pePXh2PnYoVsadEFDkHIMVVVg1F1T4fy0ubAFdTWA9ZFjuldt+zQyY1mPhQnGuu+WRgtE9CM0AMCqrqH0DRNi3s2Z3c+Ve+xdcm/uWRkbttDiXMLtVAH6TjnX4jEBBSc+xHRrFPR5odTr9RKMDyqLZpdLNy8XWcugVw7vevXB/RzsWr2V8R5RhV1p1f57pbAdTOsiyr4RvPN2+D7YE6oRbfBNANnM3x0EVjO4cZ+4p17MntevsSBeiOQ2/KNROs8LXSRJkm1nUXb0nJVfviR06VoC8KpH/rZG830gHQu4/tmY0sX9D/xTvdre9WzsQLz6wfHL5vHSIY7OtRXdiqfeKd73Mzum7bK7oM5jxK3xIutViWtSyB0fOTQPFhOfkbj/ig7CbalTk3Lb/iiseoG+mOu/pSTD20Cyk6cmKs/BdrSStbPimsGz/ltc37jPcmzcxiC1dBZpNcYoSqO0edB1o1mRVsSTn3PJYLhofu1tvyNm9Wx73RfP7P71d3qcTXPR4hTcMQxVVUPRfL/ul/76m79PvGN5moJRmj2Usi60qgZqHQea3sqlqcZnwyooTtJ959OnZmZPvQ7+oNO/MnJhzYBZSdO0Ik/0baZQ7+ni1i2+Tn+B7TtAbRsXL0nHxf8Lx2TX3dH8sxMLeSlMccy2DW8kjdkNLwJqKGtNM1a8NCpaCvDyRcd3AerdgB/rS3/lV3ar97XPoAIRtb4O+UYQqgja76jmc8Fq7jc6TDoCT7rQurWNFJLNKORor+TsB4El1cyTvgibwJqeENGA1rxSsaqwndHshsd/rm5pOGv0ywdU1j7meSpqVqkuGELk6QbO7hglzyeoIY+vkUwVV8bST7pc3ofzOGIxc2eC6J3NLMjS5+B2YLCwVTBMYRQsIDmx9FjVd5YcBj3YwG0uTibmdRTmAQyekTa8hAXiK1IEJvaakTmRG9rLS6Q9kSgk7KfVpnmxXnmprtdmGTqeil16ajCmltSH/yFZMQLYjxsNbwho7G1FheIlbVUSrFuND/uMx2OwKqaPRawuBC0PeXPhoWDqY5jZpFmi+PoIb/7s9mDPvR0AK1LWY91EqRogYxINhVBmbYFZYEdqwZtaSVrICjTJkQmSdk4llXR+983l441F49s6M+6z6SO/l/R4yo4RwEYrJoAIhJYA0GZmHep2opI8un6EOwhP1pcJJhwCiuGh4OpjmMIoQJCgQJaUh+aTfChfwmhlUnkVTUCFi3gESmAl1XThqDMGgjKoC2tFNixatqElgnNiIE1iW38YkOza/FIc90d5pmJ/EUOOjXbFwdJDxIYK74IGQE6bNipaosjqRcDRrU3mp1MZRP81vgPFCwuyP/hYKrmGKHZwnjVq1GcJPCQD/0wjOZFUl4VXlQl2leIz5bvJ0ZTcWcr7JOx4ov8oUENb0g0tu+OrIr2Pm++d6W5uLlxPxbB/o6Stn1vSDq0YDrbtpY2AWUQUl6pqmqHqi2IpL7PPQ/mZPhVbPOE33w3ku7OFCoSrOprHrFYjM7HQChUQHNi1qqoimFV28C6oB8ozIukJTRzZRswXdcLDrACu5xWMuDQQNEybcLLmqYlEgmEkOldZq77bOOya3GzueYWdOp/UfyifO9RnKOu605oxgNCa6yFBPE4DaZI7iwSjH/gstpBCLZ/zm9MD6fbFF3RNOcjsHceE0VM9OR8hs78nKJPC2de8Fe3JhiMnlE+5EOvhK3HOum9QEgw/JVGOioik/YiwS0/IDgkDCKIwiB6Xde0cHdu+xPGsqsalmPGyk+lD/7O2pajuO8NCV4kkPTlgsicT2sWzgAAIABJREFU6J2A3KVqq5LWyKltqRQzCJniS0E0K4b8xfmrqpHjlGMip62KPiVUL5p9P4TWcLenyRRcEXTSPSJB3uukVmRO9CJwiAcskPYiQY0GExdWGiuub1SCjTKWfyLz/i/17qNkYylRLkTPgCAqkvYiQQ6yoqo91q5Sqe/3bakUwytctC4TBNHMGOopnSDiLByOwCo4JkryrKJPDWeer89s9kKw94I+uT1NOCaKh/SiqLeInrSUC6S9SKgKcZETZBp64Hxu62PG0vHmouaG+ywebbx3bXbvK7rvFP2WMGE6pQo5tqS21Fz4VwJy8T6YtiaafD4ge6IZ5E9F5QQferE4gxGCVTsCq+OYaFi3Kvpb4fSTfvdvRFiPdQbQNur2NJ2hKB7cH8LuKlWQDpYLpebCv8Rc/sUmtMcVhWS8bQ1aPKbh2GURfpTx3rW5nc9qYQ+ZwRoEZPzA5fpo8tuOH7isyCu6wTMBNC/G3gcjPe5kBFbNMZHTC4r+Tjj9SH3umz0WQJuK983waKQzFMXj5Kox40dUrMAN+x1zCc0q+Il7sjueMReNakCOGcuuym1/srh7Nvv8eoWk7OCIEK62s2iQu1RtdZFgNDHckh8p3gcLl04RSbJMInQ8dBVuXwvHwGEdVdXzir40jh6uA80m+NBzAbQ6YS22YuYxnBKYJEFEJNBwSGSROdEztmAwFYZRIYV8m80ljXiWaCy7Orfjed13kpnBcNYEBJHAgCMqisyJnjHEIHcWf4M9V5/7YA/7ra1Bg4XyMlpRMCAjSI/XyDHQaURVAwUrrEfrQ7PvBtHyBIpWWgVCOoMgIhJIS7kgMid63hykGWkPCNpZ88ArDTmDXZ3d9XKscz+4uS8ZRkBGJRUPDqgpNRf+5a06NX1RJPXd+hDs0SLBRDea+WBARuBkaucY6BSvAlkYR88Eqn6Wu+L8jrdDXRZHHkV4e5pOXthdpQq6sUQuNRf+BW15mgnt80nkXYZW3tBwHFt6ZXbXy3HPNsnGUsKkShUgOLyy1Fz4lzHx1u0+2AQfetpvLpSu5GCCIUWm03EyfeIYTzOErIkV355+sfotE5zQ7JUQmhdOOaGZsLtKFQQauVBqLvwrMgcRB7woJ9GBn5gLmxvrs2R8ducL8fYNks19B2oe6yjuTf+jOqzksDab8Rtvh9Ih6BSR9J2oxxlG4PZ95RjoFBXXNM7SrbsKri8Ye8iHvu8vLAynOhTZmsaB6n4GfZpmpIdsQiGF2ueaq29tMIJdntv2dLxtneiJFZKmLReoQFrKBcjUpiPmeC1iPVZyWJfp/ca0UOa8otuOzRVIMKBAOh3bucAxmmZ0MP48mqnXsgFQxdlsgg+95DeWhlOiXYdx5nQwoAwCxCtBW1rJm9AaBnHa0JK1M+jATxuLYIvHoR2Pxds3VCRYP3+R4a2zl0eSL9fnPtgLfmNqOHOu+EuE7SZ7me5fUMadjo16OQa2o5X2Q7Al0zTBXfKsxVahzLN+95c/W7sO+9GWVPmxTjqmQqFARjadBSPTJqCcz+cZE7AI2hKlaZqpVAo0VKOh1PHXC6tuayCOLR5XWP/luGc7KqRJCqDgCjgIoUwmA4Nj1xrIWli3I42eD7q/VGqCz3L7bgz15IyKWw86+WahR6A7HLN+hhkGSLMLij49lH68PrenH/WhzUmLZvxjPLlcriLNwKHDKJ2MAMaELxqGAdJM7z6a3fmdhiKYseaOWMdeNRrks+A1/F6xdl5YJd6K16TT5R0/eQ94Z1/NQFtT1oIE1399POhDjwfQ3NKN5nw+X3G/Rz4FXkNGoGscQwiZpskPa0VVLyj6rHC6HvfNHvShx/xofVK4dBjsMKLkcQE1pL1IAK0YJbiFYOqDvzfQJLZoTGHt58lVRCZ+UVGECdGLDBk9aQ8Knaq2KYmerMM9oQd91h3dhfYHLivu08gELyriXNzkGL47zNMsoqrnFH12fWg2wYdeCKCVCaTQKxqLSYO9RStF0DB62gSUmfaiImOr+05ltz1lLhpnLmge+M/CMfn1X01cWEHeYCTKgtEzSfFFpr2oyBsSjbe4q9RL9ZnBHvZZTzT78uwDl/RVBhIJEURZMHrc3n2OgcFFVLVV0WeF0o/V4atogg99v/hS3Kh9zQtBRCQwiIiKInOiFxkyetIeC6kPJlqTWEMQbHR+49cTZ+cXV0v1hskELyoySfFFkSGj5w2xxqPoC61t29z/SY9PgpYUCZbnfmzgo/MTBtYzwYuKuHFdOCai2XlFnxOz3pDk+in1hOLbOpfFEU0znKHkfxE0jF7iAVcx7UVF2o8eOJfb/C1z8fiB59jCUfmNX0+enqWFPHSEoiwYPW0Cykx7URG09Si6ixuP0ter8eq8eTHrXq79m7k3QBIPSDNRFoweO6kXx0CaKcXFVjN19EId7ptN8KFXQmh5vHzSSGASCQwioqLInOhFhoyetFdVJXliWmHFjQNPsAXN+XVfTp58Swu2UeFZIhO8qMhY8UWRIaPnDTsUbWE49SNXNx7FNMOPq7yrWwTjJrDeuOh4eJoxwYuK2EkdOQbSDCHr3Pedut03+0EIrSo+PQ1uIEcDN2DDSIlqwbb8xgcaYRIrrLkrdXyKHjjHIDNg4BTjwI+rLA2nvl8fgr0UtEZgAJy/SnRhAGFoVmpV4S92Ul+O8TTDQQUKVpIv1Oek8cUg2pC0NpADX4pLY1cBoVI1bQLKpYYV/mJbLeJLnpljLL12wCcxY+UtqRNT9MD5vicFesDKCqCUqomH3p19I8mX6vAbDF8hq0iwis92lKKu8BcnVXeOMTQjQQUK6F3d2lCRPkt2RZ7gQ0/4rXspHYKX4pLuJMHIBdJeJMjNSW3RPKr7TufX3WcuHGfObx6wz4LRxpLrUife1ILtbiQl8mHpSfpyAbuwZrDiK2Sfqs/Ovk/5zHcrzWA4TjAlMpvJcyG12El/cIymGTk8Ki4dnhdDj1TzLkPnJHzEh1aEk52CNY04eToYiQzCTSsltnSVhUO4K3Fu8YBRi7B66cdSx97Qwt10FoxMRy6RGSu+KLGlq7Bhl6KtjiQfrtuQmFFc7EsfVyTzidAakRWjxyb9xDFCMzoIA1m7/CyKozph+rTfXBJOeQUPwqiq6mTjN/C0gYa7qq/qWNeh/MaHBphjy29Ap/6qhXvAZy5Javk88CISuvuwTNqLBNPx/oodivZeOFWnnX0f9qF3w+lzis7dRuVzsjSidLA+l8vBZnYtbuyUY5qm2c3hkjwyfpe8PEI9+XrRDC8dXhBOXewbzeRJ4a8PGA67Vgt5k6feMRZdOZAcW3GzeeyPKB2smJSqqs63EJR7c0Izr6IvCqfq8RvMWslRJFirokcd79Moz0hV1XS6wnpOQtRejtkHA1CqeEjcALC0q3g/+Pb0O6F0Pfb+n+BDPwyh9+IoAl1E4oMBNfYMgBJoxStR5Aja+fQAEqyw/Mb0/l/p3ceczL18/KAGgMOuAq0YpUfRVyTQj0J1uXH6hB/Nj1lXs/GNZubQoqI9CbYksmL02GzgOaaqaqS4prF+K/R/HIZpxiAiKrIAc2WRIa3XQl50fpa57OMDxbHCe59O7/tFrPN9HBWXBKugg5fIrBlXltjiKnyj+cf1IdhzAevSWpC60VwxHtyAy8OmqMpJQ3AML6y+oOhvhjLfqc8V21dC1q7Din02qwopG8b2ghM/8Yvb0O6XBoxgyz6Z2ftqzLubhGrPACiRlnIBsLSr5OYdirao+ArZeiz9eTGIZhSvItI3muXxkFp7EmyJNJML2KxROIZjPafor9eNZtauwwnrvhlBXA4QqWUB5sqkpUjQwt2po383l91gzmvu/4+x5OOZ3a8UCVbeuY1LglWIcmH0rBlXZtqTIr5Mvyyc+m59vlVfKhIMb51NB0UCkAu0CS/LbUktNmwsjqnFFfpvhDLP1ef29AtBtKn4IAy+uESwkAs8xIxGbq6qatyzPbv12f5nlzmv2Vh4ZXbHy7GO/cxVRCYFvlgxKdyAN2Q0oB98o3lFOPm8z/3FvtaeHAHrGXzwBXxgPLySyYIp8u1BDbZqOI6pxX0aZ+ro8fqs0H/MjzYWaeZksRUGjsGXL4L4lpVKJH3oT8bS6/udY6PMBeNymx+jt6cnUfFZMBrSUi4wVnyRN8cz2OpwvXb2fdKPZhcX+/LBkGt9fFSMBrQlSqaxqIjbNyLH8NLhubF63Td7NIDWFWkmgobRE2RFAtOeKca8e3ObnzDnjepvji24LL/+G3rPSXBrRFEuRM9kISqS9iKBN+wqvgT923V4NP5BH/qWDy2wP3DJBMbHA2oYK6YImvBKbNWIHLPuDhfvmy2IWZA5X9vhvOXzQWvpsOS+GY0Xgy9fpBvzcvrAH4xln+5nghkLr8xvfFjvOSbaGpHPgtHwiYAaxoovMlZeRV8aTj1fh99gmGCL4shHXUWsGA8THinyhrSGNJML2KRBOYaQdTeju3h7+ls+92+bPOhD3yvu09guvj1N4KPBBWXSkhdinQdyGx8x548z547qt4+x8Orc5sdinh2qKlwXDSZCK/lcQA1tAsq01cXijeZ67Ow7oTiDzQqne/JIvj6Fjkcig7kQpcSQrsLtG5djFs2Q9Z00L4ae9rtPM+vp6UBhbjjVVolmBFmRQMPKyOkD/2EsvbHf2GUdaMFVuU2Pxy+sBU8RSXiiXIietJQLpL1IIOYX8QOXgUI9LtM/5TNnhKylUnKCXfo9RrqjvFgb7zo8U7euFNWjb6yX4oZT8tlMNHqIvhy3TVL0nmP5tV8z51/WfxxbeFVu02OJ1mVqNGSLhSuQ4EUCZwErROZEj83wlgE/qg/BnvcbU0OZNkWPOljmD6fBaUn8oMA1hxXYtnceg5tQWvBItLLi9l3YGW3Cy6ZpgttuXVD0N+p23+yH+PY0tFYU3EyKQqVX5BOxNEYOnZpkLr2h/wg2f3xu4yOoc618a0TTNF3ZQtA5OIphvXPnlfqs5HgxiKYXL9ODu+s57axSF5qmGYvFeCtGU2ou/Evv0eYaxxBCbu22B4J1vkizevxWnuBDL+OX4lK3pwl4TkYSaVwWzAJKdKM1X+q/SWz+Zfm1X0+cXYzyqXIYAqnGpDhvFf0oqhozrBcOf7c+BHshgN6mngdzZTNM2Z6zJapxSAAKAo6bHHNysgvEAqlKudj+ni8utnq6Pk/vPRPsfY0gP5/ZgoAKQAZZHZ2dbi68qp8msXljCqu+mDi3XIv4gGAgFZSHTQcZATqbjb2A74NtSqFngu5fHLY2ig70LpWiw7KHAJToxhIZsKRUEkO6ClsMJo6pqtqm6G+FMt+uzwX9h/1oYwrFOJJR2MIiDWtRNlH8Ilp5pzlvbL9wbLSx5Pr4hbV4e3ouGFgBZ0JpYTNOS1mwYpeirYok67R37bd91tbZIfsC1Hp/y5MMORhgBW7f6BwjT3fjcKPFxVbz63bf7OmAtUkBQzOCrEhgAU5H0LlZ/USweWOMpTfEz68pPtRsLUdkgxGURbkQvcCOVZP2jNCjausjyad87r8iHN8Hsx5XgV5fxITBF9kEBGXekNYIjFg1Nml0jpEHqEmGEVXtzqP58bpsUjDBh16LoNNZG1jk0CLB1hqZKPIBWn9ff8xg88Yay29PnF1Ev6nZHoywJMqF6IWW9grSnhEORuOvBfOuXwq2COa3VnJ0C+6DMWHwRXv4whJvSGuEZvYKbDIIOMbTLG+irrz1EoBv1+GC/qN+tDON6EfJaXBB2QZsOoha3zYXXFl3jlm/we5KnpxBE6xB5rGoqm6MJlxfLTXBZ71TYkECdRd6H7i0IV8sgB1EK3kTUEOb8CMQNOGV2Mng4BiTJF4F4sujWTH3X4r7cJFj9K1MBm6+SIFrouA+tOXRuhNs7pjCqi9Z+94EbZv7Ng7HNkUS7q6Dsy5yBNEc6Stk6/p7jP7ZQvW4TBxkHKNphtMykPXwwttu355+LYJOZcvPmFXXbZkIOvOmueja+nJs3pjCyi+kjvyd39y3QTimquqBaPxVf8H5ClJ5S2tfxCB6J4bChvUyZMk//huQ0Uhs6SrGChcJzeiWEhlbDZp5jE6SzipQQNM011aBPBuwbuYwr4AB4aaVpXhM5N+Jtj9ZX4LNHV1YcUf68F90/1k6BiKXgqnwl7QXCRXsS9Uic7yw40k3FtcXnwcz3o6hkJxexZBE8RB9KfAKf0l7RsA0q2Bcqsa2g4xjeDYrpdD7119AUzXUx8c6JxRf9Pa6BjzYx6DMF3vjyMXQib/VexJDy2+yCOY7w4eBNQw4oqLInOhFhoyetOeF84r+51D28b6tNbVe/uA3JoczAQcEq+6kg8nEXuTTIRqHe7SRYJxyzDAcpUjiAAVN00zHu+2BHrAynU4zfgIFNCOGnqr1Eoi1tXAA/V8VRaGlHpJIcFUvOP5daFt9JzG0+Bp0+g3d3yoJKZlMMuDYB09vSeIBV2UyGdCQUUr8KKrqUfX/Vswn+tAvT/rNqeFMm6o3+AhkYMFFDI5Tjqmq6iRJCeK4Std1V0ZAIpGg/ZjIOpGYG0eP1vT09BMB9D8qSpu2n2EEtYpJWeAU8uiDP6LF19XvRBHNG4VOv4GSfmbXAD68eDxOg0MSoQXeitc430KQt8Ua63FbVftzkWbyX1xg7aN+c3o43abqiqpqmubKCIzFYhXBIVOQKC9VVZ18l2HzXo7R6IOy5GB0FWhLK+nGEpk24WXQEO/TODOcfrTK3wBP+c2/hLLtxY4EPfMBMBprx462TbkND5vzxtSJY8aCK9IH/tM6RVQizNGZIpgCr2Ss+CJvAmp4Q0ajqGq7qv8llH2qyn55tHgfrKf0wCV4dF7JHJ0v8iaghjekNaAJr8QmQ4djqqqGVfWMEquKZs/6zZZQ9rQSK+/YxEFFgwvKqhLJ7PmFsfj6ehFs8SfS+3+j+07hh5rBGIiSCx9WkPYiATbjtCJzoscb+51WYi2h7LOOaYYJZt0HKznijgwrSs2Ff2EzTiu0L1ZwzWEFdjKkOIZpdlbRp4fTj/vNiosMrB/TocwxKcGcXA2PX9yeX3OfOXesOWeU6x9jyQ2Z3a/q3R+oSu/3gIvdL3EFjxpOK/GAq7CFoqrHlNjkUOY5vwGeFhIl/m08N1680Ux5544MKygLWITNOC1sXNJyzWEFbj7UOIZ3HT6v6FPCmeekb+t8PoAmhzJHo7IZDCNXAlbw1yxk9vzSWPxJ19llzhlVWPzJzM4fxbx76T4UxNGrpltKZLkTJz9IHIFDvZxBUdWjUYtmz4ppZl1FLN4HC5ROEUmcklzoKtJeJNCNJbLIHOslhnQVbjwEOYZPTtpU/S3xS3GfC6CpOvqg0gyG8ZLBbRaQ2lpY8YV6TGLGon/ObP9erH0r3W0V51WmsagoS6pYJzJk9FX5UVT1A+ukMfMMdNKIbzS/pVuXr8g+s8Q/c1xRkbQXCSJDRi8yx3qmsaiIGw9NjuGcg4ZFJObd0xN81vKrKTrqyCPJbzAaNRnc+SQ6+idj4XWuT2LGwo9ltr0Ub9tER4JlWTzUvMEb0hq5k3rMY/joiqqeVGJ/D2WfttMME2yajoKCm0R08BK5f/KSBEBX4WCGMscQst75O11HLwatxdoPFZdsPxdAb+q9r3Gh4ZDIwm4z8khvQ8tucX0SM+Zfkd3yXKxtMxiVMJ5iBWjCK+VO6scxHMlFRf97KPuM38SvnnvEZ/XRDMHOvjhUPgVQ0z95gYfmlTiYIc4xhFDctJ68/EXEOtF/LWJtq5gtnYjwoIAaYbelw+j4X815l7s8ic0dk9vwrVj7NjCYQX2uSGcUVLVFkdTLAeNRv/mKv7AhafWU5B9tK5ElHnCVxJaukvuhW0pk7GToc8xEFqnihvU2ibiBMtSNZgk6dBUMt2kg5RRaerM5Z7S7HMuveyB2cbtkYyk4npKWjlwil5oL/0ps6SqhfamCbkzLiqoGVc2j6ieUWJuiZ6l+KZna/tK2EtlmAxUktnQVZFrW0S0lMjZoLI45XNcsyYquKkMikOjGEhm2TvrQyYkunyXOuyy/5r74xa141wAmpMEEDgUZkwVTVIp3Nfttzza3zoGZLERFDINrHHO4HlkUDdE78UMaSwQnCzcl5nQVNWBKollAgb1o9T1uzmDzr8yv/Ua8bSNIMBzP4ACnBBL+SyMpke1GQEli6xwcJxxzHeRejlVMAEjarnKy8VvF3xIIoWQy2fdgEEKxWAyDJfFmzwAugU5035n0wf9285dYkWCoayMyycIGIB5wVzwmQcCMU8XjcTAv2hVnBChc2afRMIyKwTgZOU42fnPiJ5FI0DiAMoAFp9J1HeflGsesZ5Pz+YpgcZEAikwmI/cD2EAqtbiQFMQIKyEjQMd6UKKJcyuthR1ureqYf0V+3TeSp2YjQ0YwHFk2m21ocFiwHO3hYxgGZ8cqgI7hVI05At3kGJ6I+2EEcNjCCtxLknhgM07L9LbuP5c+8J+uTWLzxufX3p88MUONhrgjwwr5dwdsw2nrBA6DlZN5A4fGGzIaLgNYIQenqnjcGjnuc0yeJAwMp5WPAK45rCCdJAILNuO0xE9RUBJnl+bXfdOdSWzeZflV9yaPT1ejgaq6XwIyFz6sIEm5Cg7xWhbgw3PasoFA4ixgBbYWJTUgINeFY/UeATC6nJbuLBB0zgJW2PyEuzL7f2vOH+8Cx+aOKSz/bPLEO1rUjw8BH57TknhcS0rTiE8icIeFFaS9SIDNOK3InOg5C1hB2oPgVMsx0UiGj81pcTD14pgrweEQebC4XGAFgdtFP/Gzy3IuTWLGkhuSp+ZokR4SJ5wGpyXtQZC55rCCduKiH8ZtDWOa94A1cBqcljbnR05t8fB+uMPCChxMHTnmYs8xScIJcVoabiz30Y8W8Wd2/8xccHXfJzFj0fXJU7O14EX6oWYuA1jB5NXHpIg3t/wQh1iAc+C0jBVf5CxgBWPIJFUbx/iRDB+b0+Jg6suxPgZH40WDxeUCK2hzIvfFT7x1efE5sb4t7Jg7xlj8ieSJGVrggqbaliXDaXBakgsR+pIUccJ0FndYWEGbgzJsxmlBW1rJWcAK2gTLNDg1c6wv4NSdY30JjsGLgAWjy2kZc1KszY8WDWR2vmIs+nifJrG5Y42lN6Y+eEMLtKmK9SJZEkxfup/2w8EAKwgajEDigc04LWPOFzkLWMEbMhrYjNMyVrhIkhoQkPuDY66PAA5YWAHCTYMOm3FabBK/sCG/6kvm3DG1c2zumMJ7n0kf+h8t5MUEo4PpY/cTkLnwYYW74Ei8wYfntBIPuIqzgBUiP4RmsBmnlfvhmsMK7KSfOObuCHCyP1HFVTPVbESnqNFgZsePjIV9mMTmjiks+0z6/f/Qgu18/+ERAHcUp+XNicbh5k2ugkMODgtc+LACNqa0sBmnpSxYcaBAdsqxvu+2h2mWy9Fva+AQKilYeOzleDyez1deEmE3AkpOtu+yhqMSjnn3GUtuMWePNmePqukzGr13a2bfb3QfvLkvBiebtb8wpoQG8xfIhFLFYjFXwEkkEk6+y6gjw2IqVfm9nk4478oI1HXdrRFYKHDvPmP6qfS8rFOOqarqJDgYZkqr67rz4Cg7VozH4xVHAGsDlR2MAFMLdWR2/MSYf3VN7Bplzh6NFt+AjvyX7hdu7otD0zTNFXrEYjFXwHHyHQSByuqc0IO1gcqugNP/I7CXYxwDWQWUMqBjzbgyOWkEjCkVZ2dT4IbkDJuys4k2G6hgay0qRMNIbUXzr6l9Ept3RWbf7/Se01AINl0DgtNPIDt4NaEr4OAJs2JSFX8b48FS0Q/u3QHgmBOwbEOPKxA6yJPk7FgF8SMRdH+reeh35pyxtU1iaM6YzP7f6F1HVSXKHp4rV9VznHWvguTiFjhu+SGBgYIoHaJ3BRxyUipPyiHHKo5kHPzAcMxhcARfRqA7SQIWY8UXaT+wHA3F2zahJTfWNomhOaMz+/4t1nkQP9TMB8BoSAySpJx3vxxk5tB8kQTjoh/aJyPzATAa0r4v4BCOyZNyF+RaOCZJksGFLxKk5EnyhrSGdiLxQ5uAMuOHL+rdJ9J7/82cM6aWSWzOuMzuV2Md76vRIPYMxkAr6QBqBpl24iI4onjo+EGZiUdUBG1pJW0oCqYiN2iOScCp6IcORuIHx18Lxyo6paFh5KqCY2xJkXEiioe0Fwm8H5smGkq0rii899kaCGbMvya744c0wSp2G9P9oqQq+rGlUCyAI1KECdHXzw/vuWJSboHjlh8+BQnINXJMNAJID4mEqoJz7gSMR2RO9HwwtMaaxPb9roZJzFhwXXbri7GOfaoSoR2S44oEujGWJT3n3ImL4PDxiMIgej4pUEPaiwTeig+mBq6C4FT0wwcD+sG51M4xiVMRTPy3CI6VB0viQeSEj0fuROLHiioaTpxemF95d7WTmLHwuuyW5+LtW6tNShRPtX7A7ncRHCaePoFMxVqbHyaYitwYEJD7xLGB6jmqa1iRBr22bsMedd/pzN5fVXs50TpF3Px0vG09dkIHU3P3VwsyiwhVpuPpCzhu+aFCq7wlAd2YlulgGhPkvnKMGQH903M0xLxMQK89GCWaODUnv+re6iaxuZdnNz4eP7eGDokE05furwpk+ui8TOKpHZyiU7f8kAj7Eg8JpjFBdoFj9AjoC1LO/ZCOEQkY9JqD0YKezK6fVvtLLLf2wXjrCvp5MBweGQE1x1OVHxEmRN9HcFz3gx32Dziic0UmqYpcJe1FAg2yOxwj9OgjUqqq4u3E5H5EidF6XdflTiRwJ06+m1/15aomsdzaB+Kty0VbI9KIS6Ki4wflRgCHDsyVTSz7ExxJp5O83AKZgNPLMXIAkSAZGbgql8u5stteOp3GoIsiqfgdg+NJJpM1+slqaO+PrYednS//Xf9N1LkB5YSsLhQKroBTcVe8uoNjHwfxeFzSTbjKbgGUTNOMxWKuHVCzAAAKZElEQVR999NoIzCRSOAR6BrHEEKFQqHGYW1HPpfLyf3YmwtLZHYV9R9s6VlprnH8S2zO2PyqL6OONSirwd5K2n7bQrB0wAp/awSH8/r/2ruaH7mKI/5/sMbGfChYShxziEAKQjI5cOAWceQAF5BwxMcNDijHnHCUm2/Jrm38AcYgJUh8eY0RtiMbAXFEEBiEE2exccy8Nzvzxm9nXne025N6/fqjurpfzdvBROJQXd31e1W/qt/M7Jrt8XELfivC4RBCwHmf4QizXHM4gb1ej1Nj6o24A3lY3Lodvm6B3xFW5vLUU+Lw3aQ3sQO3TV7fPfj7QbnWd0BZLsaxRki2Hut2KBK4cIBS23A/3vLagYbHinA75pBkfo3hRbqJsbyKX98EWMfdDqNJ9tIKE/Jfb8vj99MEtn38xq+KT/b1rl+1cNwOvCjixzz4iYKLHC4cm17lcXNheX3h4Lci3A513lfUppA8E40hMnMTY3mBWSdZ1nG3A0B8RjNMyPFQnHxCHPpJWGPr72APFh/9off9tdi2zSE5HZLcpFxb+XoEfu0sZsJ5Z1FczcIy0PZUMrPSmG+StAQwE5hy4mCR2p4O4rS1s1JOSnn1nDyyUyzeEvhvaevktQeKcy/BV4Q1cPwLPQfnBPhDGzs4TuOof6GDdEcyOR8jvQRtOIviwvHX0dhRVcxQY84iGyn4FwbFxkT64xo7Boi9bJweXRPLT4gDtwcEtrgweeXe4txeEFha2+aQnC5IbjDeWNjdMTyN0/6FEWUUxdUs//MbOyqZ2WrMnqRGCv6FwZSB449r7Ngghqc+PRnJq2fE/tvE4gKuserIPcX532ff/VOHqnFQSw9RtjEBaHS9iePU51DLBpk5yfH56Emi0fWmHqLsTSd55hpj7ByQVTOKWjbdhqeO7n8jP3wOV5dYvKU6srM4vzf/9nPjf+aocVDLeLo9AWh0vYnj1OdQywmiNwuNrjd9OOCvj6IWnPcZaHS96QyHyUl+H1OwgFM/D7VUVBcaY+ycKhKtq9500q07p0cnhbz8jjj6c1xj1aGfFedfyv99Qb8aUaHVj0Qt/dG6ndY5HUHZXORw4aisUErqTbscw1MfRS0jCpabSHJHGgOZofzUm0CNbWRZRrnZCn7HbSOAZ3p5U/aFPPsCJrClherQjtFff7chsMafhCmoOm/UgufaBtdYE2+2CpLDdU9jr9cTQqCsTDdtTgwPBQSvi5HkqAkkaSzLssFgQCnS4MVY5nk+Go1YcChXERpPt5d5nlflQH59XBy7z6uxpS3V4Z/eOP1ivvKZ8TeXALi6utq+qCzLhsMhCw7LXWt5nrPctdbv9ykyAzKdxhxOIP0qRJLGVNksncuyjJ6ck27lpNySh4TDVrHysTj7PCIwcXTXjVPPZVe+sj8iAkiv16O8dujnfTbXa0dQHr4EdH+Hl1hK/bk+e64msN/vB9/NVCFTjQVfPn1lG34KDnwyNmL1JY6jTgZxcJD1zxXXvxv+7Y+TY7/0aGxLdXhnufwbWVyREvvAo2eO2OF8ml8x4YPCcdjI2QBiINlXRtOPF6U+BAaTofxKA35saT7fXOH5qNPBfBTIJmiMUiSlwiAODiKlzC9/euPksx6BLVQv7yiX9+Tf/iOIY/bHsybiEDvnQ4OH4zi+cPCz4wCg04Dn+gwVhRdF1FhwcoI4UAKej6plczQWLNJHtPJDhTgODiKlLD7ZN3ntfrfG9m8rl5/KVy4E6dZ/zqYwjmQFdbXBAZCW5MwCR8c0bIQWo+ltyOFqlp48ko/KPEVjQVCEr6jkfDg6CDJJvvCpf/VSeeJJsX+rQ2NL28rlp/vfnFG/5Ajg/O+rA4ys7GUUTjLJxnN9OFHJpJM8Z+ToGkOKCr6wRpGcojEkuW46Z1ToyyeQzOd/mhx/wCWwreXyM/2v30+7e9SXTLBtRvuTcXjIcWnDKdcAyS4cO8POyNkUkhM15puABMYTOudsko2DJVP25ak91YE7TI0t3Vqe2LP61Qn91gAMZ2PPzsdOJmGM0ki2k3HiJBTFhbOJ5NgacxYVbFYUyekacybXTeecFdr5YMlcOSP+8rApsMWFtXceX78a8T8r+iMwnI09/TDY9iR1gwMJGIaRT1oycSTPHzlOjdlFpWnMxlEkt9KYDxTpn9F4WEZNAETZho6DpCE/3Ste/UVDYwe2r735yOrFdw2BBen2te0HTI5fG4pwKskojg5yc5PcVmPGJGFjjTIehWNLS/dA87Bk3ntMHLxzqrH9W6sju8q3Hl29+K7+FyuAieHwFYVotWtyQkUBM220EVUUFzlcODoDtm1MIIPGdLLajCMdx67K8KgikWTEnx9a/zOWpS3Vwbsmx3ePTv82v/KlAQJLBEdtwUmnYTCOoDnDwUnEgfM+I0gOpSgAR8qh4BCLwrVBnxwuHCjfZ+gkTzXmOwp+nEohxGAwgMOIgeNw3ZE2Ho+hec5kxm/+Why8Sx7dJU/tkSsf+LIqy9IZbjh94covhBgOh0aIc4njVFXFckdakByVG56MlHJtbc1ZheEM4oxGIyPEucRxqqqiXEQXfOPlmkD9bjUejUkpq6qiyAxnSko5Ho+DkxQEkVKWZYnIrH/pzOCzw/L6BTkeygr7+vaiKJwt153BfBjJCU5SMJkgOao0Cg5FHkEc4mtQEGcymQTJCWpMvXawTCBchsmmMSmlEAIZa3rnqqrCcYJ0qwP6RwhdEuv29avZtcuyKilQZqy1poBwXSHYBTkbBVKKCn70osy0mhyLVNNBySdIDjGf4D2NlGQUOVmWcWoMQE16tHVUclpcw6SDYDIjfM+3elDj2a5FVD4ugKmPjoO8BtFBfoTkEDUWnOQokvk1xtg53yRFVYjkE4vjk0cUjq+oqPYzFuXLJ6ooHzOxRXHh+IqKzceHE0XOTDQ26wmIqlC1zUlWAo5zCGJxnMnEtt9HcmwyjDgs5DhBuMjhwokieVYaY+ycPZFRFULPuHAAEIyEfOxkEtrvJDkhGUYc4ASMtHwgHIwEnDkheYYaY+ycQVYC3apVXDjQeGWk5WMkk6Yxm+S0ZBhxWMgxQLjI4cKJInm2GmPsnD6RURXa3QLPpuPoRSW33yC5TVF6Pm1wgOE2RekgbXD0orhwosiZucZmMQFRFRqt0pfzgKNPQJt8AKcNiN6sljjA8zzgADltNJZMThcaS04O+gSGImse2gYptWzbHJLzf5KRf/dLIKcjjcEktZcH8WYrhCaQx/R+xVBOcN5nhACm+75wXnIoN1sFyWG8xFLcjPcrUu5WA5KpGqN8vTKA+oaJ65Y8rrvWiJPkKwf8XOSw3NPY6/WKogjKHpL3GcTXMl84+LMso8gMzjuNLMu4SGa5KTTLMvpFdFONBVuif6J1sqCc3eDACz+SCeUjHB4Ou8Gi4CRuBHFYSGYkh5JPsCicE9gN4lCSoTSdBSeKZKrGokARvoBT3EAQ4N0ySBYOAjh4JpS2BRHUAUo+waKC+TAmQ4GiFMWF054crqarioL5KHIiNEaRWTeMQ8/wIrtJhqttgIMX9WPW2A90Av8LDwvnwIp7PwkAAAAASUVORK5CYII=;" vertex="1" parent="1">
          <mxGeometry x="840.5" y="740" width="119" height="119" as="geometry" />
        </mxCell>
        <mxCell id="syM0QQwry6lKTLaRATjQ-38" value="" style="endArrow=classic;html=1;rounded=0;entryX=0;entryY=0;entryDx=0;entryDy=0;" edge="1" parent="1" source="syM0QQwry6lKTLaRATjQ-20" target="syM0QQwry6lKTLaRATjQ-37">
          <mxGeometry width="50" height="50" relative="1" as="geometry">
            <mxPoint x="670" y="820" as="sourcePoint" />
            <mxPoint x="720" y="770" as="targetPoint" />
            <Array as="points">
              <mxPoint x="880" y="550" />
              <mxPoint x="840" y="550" />
            </Array>
          </mxGeometry>
        </mxCell>
        <mxCell id="syM0QQwry6lKTLaRATjQ-42" style="edgeStyle=orthogonalEdgeStyle;rounded=0;orthogonalLoop=1;jettySize=auto;html=1;" edge="1" parent="1" source="syM0QQwry6lKTLaRATjQ-41">
          <mxGeometry relative="1" as="geometry">
            <mxPoint x="730" y="230" as="targetPoint" />
          </mxGeometry>
        </mxCell>
        <mxCell id="syM0QQwry6lKTLaRATjQ-41" value="" style="shape=image;verticalLabelPosition=bottom;labelBackgroundColor=default;verticalAlign=top;aspect=fixed;imageAspect=0;image=data:image/png,iVBORw0KGgoAAAANSUhEUgAAASkAAAEdCAIAAADfEAZuAAAgAElEQVR4Ae2dCZgc1XWo/X0YY8dxFq/ZcOw4diIJJHZkgwPOR4zJ4xFIbMc44dnJS0IS4hji+BkNElpYhFklDGaxI7AlhDVCu0BIyBIwElqQ0IL2bbRrtMxUdXdVdVfXcp9rbs+Z23c5VV1d3VM9U/3NJ506955zlzp/3+qqe2+95z3veQ+J8NEifCK4IRHcaKF+EnFCSDKVSZufrHPw+Emkf+p38h76wetKU+svLEE/qapMxh4eP4PyZNXfqIy98D7EAyvBL5SkGA5vkhZ+ZZFUZQarn/o7eTCz5/t+KDb192CLsjdkOyep74IokYN38mBmz3XdjD1ViJTL5UQ6Bw+vFH4xNZM9PAIr7OXzedVJAj1+qlzX1XU9l8tBfpWA+7FtO4of3AkhxDRNwzB0XVdVg+pD/eTz+UKhgDvRwi7hPM/Tdb3+Ti6Xy4l0TrFYNE2z/s4xDKP+ziGE5HK5+jvHcZwonRN6skqlkt77wU96aOSERmCFPU3TQhsfWhjtxFD8ovgpFAq4nyhONE0rFAp4hEX0k1TnJOInn8+nqnNC8YvSyVG+m6L4Ce2cUPZoKUlFDuKnn71Q/KK0nDrBIyyiHxy/iE5C8YvuJ5FGhX7BR6wPHmERnSTYOTh+EesTil9EP3jnRGQv2c6RDgBV7OH4RWx5KH7R/SD4RXeCd2JNfhD8ovvB8YvuB4mw6E4S7BwEv+j1wfGL7gfpnOjsJds5In48ewh+0VuO41eTHxV+NTlBOrFWPyr8avKD4FeTH1WE1eQkwc5R4VdTfRD8avKj6pya2KOdI73Cr6ky1A/3A1LCnqrxtRaW7/1w5dXaclXja62MKsJi+JHiV6sfFX61+pFGWK1OEuwcKX611mcQRyCLg4Q9TdOkja+1B1WjXww/4ugXw4k0wuL5EfGL4UeKXww/In4xnCTYOSJ+MeoziCMQ8JOzJ8UvRg9K8Yvnh8MvnhMxwmL74fCL50fEL56ftHUOh1+8Ron4xfMjXn/F85NgJ1P8lOyJ+MWrsYhfbD9s42M74fCrxw+LX2w/HH6x/aStc1j8YjeKwy+2Hw6/2H4S7GRN0zD2OPxi15jDrx4/0Ph6nLD41e+HfofV44fFrx4/g7JzWPzq6RwWv3r8JNjJIeyx+NVTYxa/Ov3QxtfpBPBLxE+MG0hw0U8FwK/O+gzKzgH86uwcwK9OP0l1cjh7FL9CoeA4TmiluZDiDun8LHySGy2CM+QOC4WCbdue5+H14azEw0KhkMi0xkT85HK5QqGQqs6xbdsPm48u9iqnSaRzdF1PYQTW2TmR2NM0Ldf7CcWP63fx0Oj9hEaYaChqLMvC8RNNpBrbtutkmH49hWIsLZ1VFno/iXSOaZqJdE6pVMIjjK0/ItffOfTSoP4IpNMsE+nkYrFYT+dU2MODjxDi+z7Ss5AU6sdxHMiMCKF+EFtICnWS1JT2pPy4rguVR4TQdiG2kBTqJKlGJeXH8zyoPCKEtqtcLiPmkBTqB3IiAu4kKntJ9WBSfpAGQxLecpoKmRGh5fwgbYGklmtUUpGTlB/oSUTAOzljD+m6ShLegzQ13EvYOqME/aSqMknFetr81N/JGXvhfZixh/RRy3VOUgwjfQJJeOdk7EFHKQW8B2mq0phJaJofpkyl2LTKJBXrafOj7FkmAe/kjD2mqxQi3oM0VWFapW6an6pSFQdNq0zamEmqPop+rVLjnZyxV9VZ0gO8B2mq1JBTNs0PV670sGmVSSrW0+ZH2qucEu/kjD2uuySHeA/SVImZoGqaH6FkiaJplUkbM0nVR9Knggrv5Iw9ocMEBd6DNFUwkiia5kdStqBqWmWSivW0+RF6VKLAO3kws4fPOUghM0mFlyQKBBU+62UQd04zOxmPwMHMXui8oaROQ9r8CKBJFKGTvCI2Cg+vQcywpE8FFR6BFfYMwxAMeQU+gHqeR6cj8mbCMe6nXC7DMg3BtF+BOyGElEqlRLagtCyr/s7xfT+RrSwdxykUCuy6wf4eYaTQzrFt27Is6TYkjJvwfeOLxWL9nUMISaRzXNdNVQSGboJaYU/TtNBODD2jdH9OdtEkeyJBjuJH3AcBzKkQxQksFOJs2cPoflgrUY7ih07GF21ZTRQ/sBaGNWTlKE5o5+D4RffDli7KzfRDl4OIdWA1UeoTOgBEcYJHYD97ofhFLCy08RH94PhFdII3vqZ1d/h3SsT6hOIX0Q+OX0QnofjV5IcNbk5usp+kIhDHr6ZGiRsEStatI6Nf9MLwxkf3g+AX3QmOX61+uKiCw+h+cPyi+0Hwi+4Ex69WP9AbnBDdT1Kdk1QEIvhFb5QqAqvGPdplqi/4mgpDGl+THxV+NTlRNb6mcY92juq7qab6IBFWkx8VfjU5QfCL4Yejjh7W5CepzkkqAlX41dQoaQRK2KP5xE6stTBV42v1I8WvVifSxsdgT3VlXmt9Euwc8dZLrZVR4RfPT/2Ro8Kv1vok1clS/GqtjBiBcvak+MUoTNr4GH5E/GI4ERsfjz0pfjHqk2DncPjFqIwUv9h+OPxi+NF1XbzEiOFH+hqpGH5E/GI44SJQyZ743ROvMDHC4vnh8IvnhGu8lD3XI6ZNchbpNnr/CuTAMV38O3LSZJXdBRL6x+an8sET+cMnDVYf6qRbVp9DXYVDXQXwE8/JgWP64ZPGwRP5RPyAkwPH9G4j6E/TJq56hx0OV613g2bu50+8ky7iF88Ph188J2wEKtkTGx+7MA6/2H5Y/GI7YRsvZW9vF5m6jNzyDBk9iVx4N7lgHBk1zlf89SddMC7Iif+pnSTsB68GTVVUxh8VtLdSn7r9BP12wTh/9KSgPx9/jew7qTxvInsJRiCHn7ISTIK0Pix+TF6lKHUCEYixxzVeWQKToCqMxY/JrhRVfgA/pSWToHICjefYW7WX3NlOrn2YXD4poGh4Gxk2JvtLoAeGtwX9OXpS0Ld3tpNVe5mT1CeqThZ7/dWXF/tf5YfFD7PvS1P5Afz6MmL/q5zQCAxhj8UPK6QvDSkM8OvLi/2P+KH4YcZ9aYgTwK8vL3mug3zz6SA+MuQa940zvC3o4b9/hvx8NXR8RUBOFuDH28iOET+An8yO1yF+KH68gewYcSJ5vifNTX/4lkolmf8qndQclLlczjTN+mcS5vN50zTxyXJRpiMWCgXTNH3f/583yQ1TyKixCXzHNy5wB43nUePIX00l//NmDZGj67ppmvVHYD6ftyyr/gikkRM6Hx0iXyqEj3vUjO7PGdp4aRms0jCMfD4f2njWRCUbhoHjpzJk9V2n9ZfW2dc9Qs6/KwOveT1w/l3kukfIwk2kVK4QyJ4UqZxUBJqmmWAE4vhJGwLKCntVX0Gyg6T250zVFpQlh6zekb/hMXdkNuI1/ZftyLHkhsfc1TvyJ0/r3A9vWQAmtkNseiIwKntRLuGi9GBSfuDLAxGkp5BVntDJuNmlEdk9laaDR6+fR7QF/b/7cK6ZkZOeCBy67NkOWbOPXDrBHzS/o1qxIZdO8F/bXDh1Jny9UlLMJOUH+dKHJPaLXpSHLnu7T5AftDfvF04rgtGcOt8xw96wJy+GpqiBmEYE0UrUIOaQJFpxGsiJCJwJdzh02Vu2LXiI3JzwykpBemDkWDJvncHFpfQQiXJIkhpySsiMCJyJeIjYQpJoxWqGKHtr95Nbn8vAS0sP/ONPymv3s2EplyGmEUFuWa1FzCGp2kJyBDkRQWLGqIYie116MGvssolpiTxkTBgiSZdO8KcuI106E5gyEYlySJLZ8TrIjAi8jXCM2EKSYFSlGIrsLdlKbn4qAy9dPXDzU2TJ1qrQFA8gphFBtBI1iDkkiVacBnIiAmfCHQ459g53k/HzyCUT0hV5Q2R8Q5p5yYTgvPzq7CAfJMohCTGHJMiMCJBZJSC2kKSypfrBzJ50zsGLa8kNUzPw0tgDN0wlL67FwhViGhEw+740xByS+vIq/4eciCCNQPBYYQ+xhySwEQXf9y3Lgpy4IJqDxnVdccWk1BuYSIVyuSzdT2HP4dyt08rZLBZk/BnApJFjya3Tynt6H7XXetI9z2uJCGTbVWGPW6TI5gBZGuWg9H2/WCzW78d1XcuyuIXYUAcQoFyVUC6XDcPg9sB7aHHx6sneAIZXVjTeA1dP9h5aXISzzAmqc031nuelPwLZFvWPe6HY4C2nqbDcgy2Dk6P4kY5arJ8oTjRNg/V+mqb1aNqNU1z83GepA94DN05xe9gzzchRTjosVWPseDGKn6QiENb78ZXQtH726JI2MQdootSYXe8HhpwQ0Q/e+IhOAL9TZ7S2WaXLJ2YzyNL4S48F/vKJftus0qkzXNQEhxFPeih+Ef0kFYEq/KrYw/GLWONQ/KL7gcWO4nmI7kTTtFPdhaWbzKsne9m0aTbK0ymPaCNXT/Zefadw4lSwvoH9RD/pOH7R/SD4RXcCC7XZtsjXzqouPmsqDLn4rMmPqvE1OdlzOPevzznZLZZ0wibWSnXTpaaTjuBXk59EIlCKHz/uUTSl+NVUY2T0q9WPtPHRnRw6ob+42rx0gp9tBiFGeTo1w9vIpRP9F1ebh05UDX3RTzoNYxV+tfqpMwJhuCsUCuzm8HL2pBeftdZYhV8MP7lcjrvzGd3Jut35bz3jpDPIslohPfDtZ911u/MQuNF/77EmUvyiBw+4EvGL4YTefQD8lOyJ+MUrTLz4jOeHa3xEJweP69NWWCOz/SAGaHUsglZo0six5Pk3SgeP9w99EU86AEMFEb94fuJFIFcZ9uITY4/DL16NNU3jGh/bD9v4KE5Od2uL3za+9qNs0Ev7vU0Vh1/7kfvKO8XT3ZUAjnLSxVgfwAiUVgbwC2GPxS92y7nG1+MH8IviZPvB3KS5JdV5zfQt0QOT5pV2HzFpEEc56apwZweAevzUFIGqylCswtkD/OqpMYtfnX5o46M4mfGmed3D2cP0Vh306FfDdQ+7L3RY9OZflJOOhDvgV6ef6BGIVEb+jEFqYBiGaZqhlZbagjKXy1mWFbrRYOiOGnS2iuM4SH22HyPfnW6fn21A1oK/9NgB+fyxwXlctzvYSdWyLOSM0yQINqmQy+WKxaJt23X6oRGIb1EZGsaVcS+0Kp7nSRvDKUP9lMtlzkR6GOpHasUqH19SvObB1v7KZ0NwKMvXPEiefZ0kFYG2bbNxopLrj8DQG7NR2Utqf86kelDVZVS/8t3Ct5/NHqYPkq+ekWPJP00jbx/w8ZNOU0OZaU4ERqlMVPZCB9AohdF+SaQHcScT55SuvDdbrzBI2Bs2hnzxfvLAYoKf9FRFYJTKDEL2OrYXbprqZlM3B9Nl6og28tUnSMf2Qih+oeNeUqNIaE0Su+ZMqsZJ+ZG2vKdHO3xCv+1n5WzH28EEHm3LZRPJbT8rHz6h96iWGPXGRMYe1gNSbDglZt+bxuWnh12n9TlrjS/cky0UGjxXm+yXyBfu8eesNbp6398gDYDQoYbGlcqW1ceLQNZDaGUGzzVnj6btOZK7/lE3e67Axutgks8fS65/1N1zJIeMfKHMNPTKa4iyd+CY/uxyK3uV12CCTWzL+XeRZ5dbB471T/KsKdyzcY/rLslh6LeXaLN+d75Bs1gumxS8knbsHPLwEjJl6RD6+9fnyefvSd3l63UPu+ur1zewwRAaOdm4x3aXRA7tQc5me2fugYXFRlxt3vo8aV9PNh0i+04Gu0ce7RlCf/M2kv+cQa68L134nT+WPLCwuL0zeHOY+AmNnIw9sdOqNKE9WJVb05a8U/jygwk/0BvRRm59nqzYQXST+P5Q/Fu1hzy/inxnOvmz+9OF35cf9Ja8I3/eEBo5zWSvSftzRpyqg9/8ib7PJ9vFnafJ5MUJB8d5d5GrJwfgFYpDkTr6XfPmbrJ4c/Bi9P+cETzdFn99DaBm8mLSebo/CnzfL5VK3Dey6rDfTJCi7/MpmFYpPM8rFArcgm+uPpX7nHgmalPlWzjwfd91XelmE1yRgmmVwvd9x3FC6wM2hRKZ8RZJfOrmxePJf80kujV0wfN98uZusnAzWbSZTOsI8Lvi3hThd82DwXkvlCAQSFIR6Hme4zihkdxfsELyPI/dopKjoGodQ/RwV5QVqMVV6mKRiDkk6bqO1wdybugMLooS/wK+4j4yez2x7Iw9smBTQODPVpHvzCCXp+nlTd+ZTjZ0QiBUhAQjEMePL1h2TJfOcRs0AxGVcY8eRwx3WSkVnWqPFigPv+YEz9QPUh+as+SQR14ll09Knr2rJpO39hLbydgL2KP4zVwTjH4X3k1SsuvU5ZOCs1+qXkmWbAQi+EGsIgIN+1zvh0WAylXs0b1cxExUg5QBSTQn/t0DmREB/Kjwo7av7yK3PJM8eMPGkC89QDYezNgLRjzKXoDfJjJnQ3CVcdHdDenzGBcvtzxDXt9VFUcQOYlgg1x/VZWqOKCVUY1+PHsIfgr/VWooDMGvykBxEOqH2t3ZTi4a35A4yNiD33vAHhXmbAhGv9ENuNaIwd5F48md7VUxFBo50a+8qCsVflWlKg6gMlL8JOyp8FP4r1KzhanwqzJQHIT6IST4Gr5hChnemHXZGXsq9hZuIjPXkO+m47nf8DFBDCzc1B9GoZFTK3uqnz/9RaoltjIifnL2pPipi+hP4QqT4tefWy2F+iGE/PvPGzXoZdec8IyBveaEAZDeevnujFQ897tofBAJ8AmNnBjsSfGDEhGBqwyHn5I9ET+kDEgSCxPxg8yIgPs5dUabuyF4/hbjKiWiSTbuqcY9SuDCzeS5DvLdF8hVKXjud/VkMncDKbtBQOGRQ1ORwIMkqR/27gPkRATRCcWPbo+Lscfhh5QBSdLCOPwgMyIgfk6d0Tbuzd/0OBnVyH2QMvZw9uidT4rfgD92HzWW3PQ42dMV4IdEDiQhgQdJkJkV2N9+kBMRWFtWzuVyuq6HsMfih5QBSWwBrMziB5kRgbVlZV3XD3UVHlxUHDWugYNeds2JX3OyF5/PrwpGvy8M9GP3UePI1GXkTEHOHnfRiAQeJLFRx8qAH+REBNaQk3O5XDh7gB9SBiRxBbCHgB9kRgTWkJVPndHe2GZceW/DX2ySjXuh4x5cfM54K8Dv0gkD+dxveBv54n3BYyHpi/toCCWFDfWDRC8ksaErypHYo/gVCgVwqhLEAliNrutW70dlDnrWipW3HMi1tTdjq+mMvYjs0YvP9vXBnc+Lxw8kfsPGkAnzyZYD8vUNNIpoBBaLRYg0lcBGnSjTH2zlclllTvWiIaupsIe7ICSx3RHr3J+zYw+5pDEP9Lh7MBl70dmjA+C8jeT2F8hlAzrp7OLxfseekFiOOOk/xIvspg7LFZVxJ1HZk95BqrUwWhXRStRIK73lcDC/uTkTmjL2amVvwaZgoePtLwzklOvhbUGEbDksDZ9+pRhvoqY/t0ISTUSNwrSibhn2ug3y0zeat4w6Yy8Gews3B2sLbn9hIJ/7ff6eIE66DSzsRUhEDWbfmyaaiBrcScuwt2IH+dZPGntvk73szNjzfbJ6b7CACO5qRhHoY/c7Zjb26St7pkT5Wz8JFl4iHxESUYOY0yTRRNTgTlqDveN6sDq2mb8lMvZ8n2w+TJa8Wxt78NzvjpnkqkZOfhCRA81lE4NoOa4rI1+ERNQojfsSRBNR05dX/n9rsDdvY7AtMXRuE4SMPd8nXTnyxu5gtmSUEY/Ns3BzsNnEHTMHbLX7V58g8zbKIz6pOxciaaJGWYPehBZg72SO3PEiafTDdI7njD36eH3bMbJ0W0z8pq8O8BuQnc5GjQti5mROHvwiJKJGbsloRRNRw2SXiC3A3rQO8pWHmzroZfNaKHi+T3Tb33w0wG/xljij3y/WBvhdMhCP3b/ycLDVhfQjQiJqpIasUjQRNWx+UU47e45Hbn6q2eBl7AF7vk9Mx+/s9t/aS17ZGtx6qekvIPad4L7/xU15KstdvNz8FHE8MeaV885YeCRm1So2s0qutuCPUs2e75OHlgzM/pDZNSfg5/lBBNsOKZVJsfa/QjG4Xzog912uvC+IH9/ng16FCqvnbYRjNrNKFoyqFOllr+ySd4+S6x4h592VjXstvG2M7QTTLL/0wACcxPPuCuLn3aOV5UUQ+CpUWD1kVglsZpWMvxS6wp5qKyXWqaoSVO+6Lp0tzppIZdwP3WVR1/XOY/rt0+0L7x6Ylwpl4x6Me3UKA8jesDHkwrv926fbndXvb8AjsFgsRolk3AkhxOj9SBGgygp7dEkfki/ial98Q0LqP7TShJATZ4x568zRk/yBeoVlxl6dyIH5wLI3oo2MnuTPXWcc6ep/fUqUCCwUCnTCtAqKKE5gDZDUST97ofhFLwwfRaP42bQvf+tzDvfTuZmHGXsAT53CwLJHY+ZfppU37csDAFEiUNM0HL+IThD8qtjD8aupMAS/UD85i7zQYV40fmCuNunZGmTs2S45YfkHCv6unLc75x0oeMct33D8OrmKYp4G9i4a77/QYR4+URn6QiMQnr8j+EV3QjEG8kHg2UPwq6kw5OIz1M+GTnLL0wM56A3sM4ayR3psf1/e29jt7cl5Rjn+jZZSL3JbNO+1Lvfx3eW7ttrffce+/R37rq32Y7vL8446G7u9w6ZfcuMXEYpfGtgbNiaIqNffrbw+JTQCgT1k9KvJiRQ/CXu6rktHrVoLU+GH+ymWyYtrB+CeGHdB2/xxz/GI4ZAzJX9nzpve6fz9W8VzF5jffKu4uccLjW8xg+cH3jZr3v3b7YuWWme3G2fN4v/OaTc+tdD87032ph6vUPZdryEEpoS9YWPItJUWfV80HoE0FUYnFX61OhHxk7DHbW4BlYhRmBQ/3M+SreRvfjQU2Tto+DM6nZtXF/9ggXl2u/HeXlS+viome7myP22/c96Sflcie1Tz3lnGJxeYT+wpdxUbcgmaHvZunOLOWWNEvGsIYU8F8eITD2Oayjnh8JOzJ8UvXmEifoiffSfJuLlkZCM3IOPGN9Vhc8Y9xyMHDe+n+8vffKt03hLrE/PND71kvI8Zo+Kx12P7D+wof26x+f7Z/FgnJfB97cYnF5oTttkHjThjrDjqspr0sDdyLPnBL+xN+/JIBEKSFBv2zifkRATRCYufkj0RP6QMSJIWxuEHmUXh56vJtU2fuinFr6HsGQ7ZqnvP7HO+va40+jXrs4vND881z2GQA0LisffMPueSZZbUIXjmhLPbjT952Xp4Z9lM+gZMetgbNob8xYPe08stMfBEjTSS2dFPNBE1UieAH8Yeh5/oWtSoCmPxE62oZusR8h/TUzHoNe5ey86cN22/c9uG0ldeL56/xPrIXJNjgDuMwd7q0+7/frP4oZcijXhscee0G9esLC4+5rKjVv1yqtgbOZbcOq289YgqBvv1qkgG/PqzqiWVE4pfCHssfuoi+lOQwgC//tzV0pSlAzPzqJnj3jP7ylf90vrtMOQAiRjsjdlif3KhBOnfXWDe1FH8r032f2+yv7a69EeLJXk+Md+8bUMpX8edVZHVVLE3bAy56n5vytLqyJMdIZFM8ZMZ8TrESdW7L5F8dGtNfHIaLRZxAhsNSl9CvfUw+eZTZKBmsYj4Neia8/9ttn9/gSToATZOqIk9zyeHDP/qXxY/UP0z772zjF+bbXxnY2nlSfeE5XdZ/lunvTFb7E/M52vy3lnGFcutVaeSHPrSxt6ItmBlzNb69lMqFArlctkXp2lX04fjED7uUftcLpfP50PxwwvTNM0wDNM0RfzGzhmYRZYidVTTiuw5HnnhoPMZYUA7p9248FVrm+45zFOEHTnvpo4ih/pZs4xPLTInvGuLw1dsTdrYGzYmmGV210vC6oZasKFxXiqVcPxwHCrsVZcrOfI8D3dEUyWW1Spxf87uHm37wdw1P/RUGAyIvgns0eHoY/PMTy8yPzZPfk+ypnGv7JHvbiyJo9mHXjImbLVPVz9C6C75zx9w6JMMlsDfnGPctKrIUhqbOmqYQvaGjSHX/NDbfjDX3aMM6uqwlRwpLZkEiRmjisoe+6Sfcc6LjGelyNr09Gidx/RbnnYuGDeQM8hEvBvH3rkLzQ/MNj70kvE7883PL7O+905p7hH3tg2lTy3irwDPmmXUxF7JJdeslNxl+fBcc8lx16h+f3XZI1s174MvVR4ksvidv8Q6U/I9P5lH7elk74Jx/i1PO53H9B4Ffsrw7Utgw1gl9+WV/z/A7B3p0md2mAO1UEhEDjQNYu/OLfaVy61vvFV8ck+5dzYJsRxS9sikd8ufqZu9okvOXWiKQ9lH55k7c54tTBw7ZPifXmSyjxMpgZ9dbHaccsvMBWo9Q1862aPLi2Z2mOz6BhYhOS6Mls2skpnsEnGA2duyP3fjFDc9t1gazV5X74TmI6bfU6qaRXnPtrL4O62mca/3Mb3/O8Ltk7NmGR+fb2q2ZBw7avqXL7O4GzNnzTL+aJG56JgjshqPwNSyN6KN3DjF3bJf/v4GCSvVKhVvrL7agj8aSPZ2Hco9+kpxVMquNil+DRr3VOFbP3u2S97VPfHH3lmzjE/MNwuyxwbHTP/K5RL2/nCROeOgk9QE69SyN2wMGTXOf/SV4q5DEvx4UIRjljGVLBhVKQaSvZVbC9c/4sJQkyqh5dgrumT1Gffj8yQ/Gmtl7w8Wmj/eOyTYGzaGXP+Iu3JrZX0Di1AVJbIDNrNKltn16waMvW2duQcWFAdkL5YokLcce5ZDVp50P5YEe7+/wHxsV7ko/D5UDdq4Ps3j3rAxwW5ADywobuvkh75+RBSSijdWrzCtqAeGveOn9Olvmtc+lNJBr3FzylRhWv81Z8ZelK9UaZ5rH3Knv2keP9W/qUSUtQ4sYyo5jeyt3Zm/Y4Yt7YiUKLNxb4iMezTe7phhr93Zv6nEoGWv67Q+dUnxi/el62E6x3zG3pBi74v3eVOXFOnKWjqI4UNWxMfd+KyXAbjmXLG18A/Plv/rrCQAACAASURBVLlYT9thxt6QYm/YGPIPz5ZXMDddEmEPn4NZYa9QkNzq4a5i8dq4rpvv/XBW4uE9C5v6Nq94VGfsDTX2LptI7lkYxLht27nejxi6rAbHgRBiWZZpmuxyW9a8ah1DKH6hhRFC6JRrrgz2cN4642tPpmi9gorMjL2hxt6INvK1J8mybZUwLxQK0l2LIJij4EDX6anwq4x71COOX8TCcPxu+1n5kgkDvx2LCjnQtxx7RZes73Y/LpvXUuvzvXMXms/uHyrP9+CMDxsTvC/p9pmVMKfYIPhFxAHBr4o9mg/I5oTohUnx6+7RfrHa/PMHUn2LBc5Ey7Fnu2RHLpl5LZ9aZM46PPjnlMG5ZoVrHiSLNhHPr7yrCBn9ouOgwo9nD8GvpsI4/M50BwuF/vbJ1K1XYPudlVuOPdcjXUX/d2Xj3sfnmSeKki0Aj5r+ha9a4n5Kn1kcrHsY9HOp2dMN8gV3k797mhztIWe6K0OPCr+acJDiJ2FPhV+thbH4HenSf7zMunhAt5qG/o0itBx7vk9KLvmTly1xXcJH5pkbezxxfuYhw/+9+ZJ1DH/ysrVZq1poq5oSEEWf8nktYjBcMoE810HY9Q1S/GrFQcRPzp4UvxiFUfxOndHW7Mxf80MvtTPIxBPQiuzZLrn+jeJvzOGndP7WXPPFg06ud4sDoKXskc093vtn8+v33tduXLrMypcl6x7Atiah5dg77y7y5YfImp35U2f6f3WJ+MXAgcNPyR7do6W/cE2LV1gul9t9xLhnXkmM7zRrWpG9skfu3GyLl50ffMm47e3ScSt40gt/XUV/6m6HXTJL5Q/PNW9+qwTZ6hdajj0alvfMK+2sXt/A4RcPBxY/JXuapnH4xS7sjW3G6EnpWpYein0rsud6ZOFR53Mv8+Pe2e3GJ+aZG7o99ifc5h7vC8sl+7V8brE5ZVe5fuTAQ4uyN3qSD+9vgBGIxS82DoAfxh6HX7zC1u3Kf+8FO4WrY3H8WpE9v/cdDNe/Ufx1YXPOs9uNL60ozjjodBreEdNfcNT9xurSr1VvZ0bHvatWFHfmktydukXZG9FGvveCvW5X1SRPig198BAPBxbjEPZY/OIVNntN6w16rbiOAcaZJ/eUh79iiReTH5pj/Okr1udfs76w3BqxxPqobI/QTy40x2yxk3qqTqvUouzR7cxm976/AYChAh394uHAugpnj+JnmqZt26Hlsa41TVu9I3/79FSvV1CNfi067vk+OWj4/7S+9FHZQj4RSFbzwdnG11aV1p9JctDzfdK67A0bQ26fbq/ewQ99dPSzLEvc6pIDhMOBO4zEHn0pXy6XC8WP8/7TFVbK1ysMPvZ8nyw57t7UUfot4YYnSxonv3+2cfWK4gsHHat6OzMYTmMLLc3eF+/zfrrC4qIaDqU7zbL4QU6pUGGPNZDKvu9L7Tkla3umQO5d2ALTx6T4te645/ukUCbzjrh/vaoYcfT70EvGn68oTjvgnKi+FxqbN9awpdkbNobcv4h0G2xcV2Qu8qWHEjNGFZW9iAuWGM9k7X7yr89n7PXf1mcjkpPrX7fOOSy55Jdd7j+uK4161frwXMnGgWfNCp7s/fpLxp++bH19dXH+Ebe7d5Nlzk/9h63O3m0/Jxs62biuyFLYOKXEjFE1kL3Fm8nf/jhjLxJ7P95T/vLK4oglwV0Q9u+/3rF31XHX8VTRn33Yvfmt4sgl1mcWm59caP7eguDv3IXBZtjnLbGue7341N5GvfWSctvq7P3d0+TVdxli+kQOM+lhX175/w1kr309+aupGXuR2CuUfc2W/CWyN7vnE932V550p3c6U3eXH99T/nmn8+oJ95CZ8G0V6SDZ6uz99Y/I3A0SeKSwcUqJGaPK2JN/OzT5957nB3PnxT9pNMdQen6w+3XJJcXev5IbHDboBetc9TL2GNyqxAayl11zclE4NA9bnb2WvObM7rUMTdi4Vrc6ey15ryV7xsBF4dA8bHX2WvIZAyFk5lpy9WT5DyrpU7X0KJv8e28QY9nS7P3ZZPLCmqofaXDA3VaRHkJmqdDA33uEkHePkh+0Z+xFutU5WPFrafa+P4tsPSIFp7KphBQ5UOKTzirsQW5EkFehV+t5nmmaUttsLvVghSpiu1qXvdGTfOlcahrnCA6w0WA+L5kLCphU2MN3KItSmOd5lmWJfrI1RBFjdLBma1H2VGuIgBycPYpfs/fnFPF7/d1CtnZ2sKIV2q4WZW/0JP/N7fJLuShDESUTlskCsaxQdc0pYsNmDQWdzvnM5XKcn52HctmeEaExOlgztCh798wr7T5iIBeNEXFA8KtiT9M0wzBY3lg5emEcftleSYOVqyjtajn22L2SkNccRMdBhR/PHoJfTYVx+GV7BEYJ00GZp+XY4/YIVOFXEw5S/CTsqfCrtTAWv2xvXClXnk9Mx9+V814/6S446vzioPOLQ86iY+6bp9xOI7EdMqVF+73TR03HP2L6yW4SwRXXWuyJe+NqmibFr1YcRPzk7Enxi1EYi1+2JzwblGWPHLP8l4+5D+4s//sG+6aO4p+vCDZT+fxr1l+sLP7NqtIdm+wn9pRXdLldRT+R1Qxs6bmyv1nz5hxxHtxZvn97+bDps6nJyq3FHrcnPPzmyufz3LsZYuDA4adkj+aDsqO8iVO6vpbFT9O07F0ovk9yZX99tzd5R/mLy4Mt2d87y+B2cKCHv/6S+ZdvFB/fXX5X9xIZms6U/G26t6LL/cl+51/eLl201Dqn3Rj+ivVOTwMXE7UQe9y7UNjgp6Mfi1889lj8MPY4/GIXxuKXvQMsXw5WlP/9mtI57XLkOA4/Otf8z432hp6Y+Dke0Wy/s+Bv0bznDjj/tK50/hLrgy/17+E57OWMvWDqFfcOMA48esiOfrFxAPxC2GO3x62nMBa/ofzuS8cLwPurDsmmtBxy7OEHXzJvWVPa3ON5zMbS+JWh4xHLIT22v7/gv3DQ+T9rSn+40BRfe3LWLCNjj84ihndf0jiXsseOfvXgQPELYa/+/TmhDYDf+gPkn59L+yTPBs2lPmz6315XkjLAwibKH5lr/tvbpXz1OxUQ/A4b/syDzjffKv3+fPOcduPsduWVbcYeZe+fnyPrD/QDBXErCnT068+qlkRbVhPOHsXPMAzLstSlVFJY16Kcy+Usy8qb9jMryZ+le31Dg9ibvKP82ZclG9eeNct4X7vxW3OM31Rs7Hd2u3HxUuvnBxyEN5q0/oz37xtKo5ZYv7fA/M05ktcMcWBn7A0bE0TjMytJqdwf4GL0spp8Pl8oFPDXqUtvf7BOKuz1l6mQPM9jzVSywrpfXS6XNU1buzN/x4xU75nbCPYOGf4NbxY/INuJ/S/fKP54b3l5l/vaCffRXeVLl0n4/O255jcivKXk+QPOJb03UTjGVIcZe8PGkDtm2Gt3Vs177g9ZhaRCgNUrTCvqqOzF2J9TWjBl+Pgpffqb5rUPuelZsMfVpBHsTe90zl8igWrkq1b7Yedk77MExyPHLX96p/PxeebZ1fc/z243LnjVWnvGw/dZUe0Jn7HHnWI4vPYhd/qb5vFTenRsQsc06kqKACijspdIYbRUWq1tnbkHFhRT+0a+RrB36/rSJ2Rbtd+5xT5kVD1hO2L6f7OqKL6r5NyF5gM7yuzrhMRLUBV771P85Bvi4955d5EHFhS3deZY8KI8UePySw8BM6kwYOxpmrZya+H6R1I69CXOXsklV/3Skl5wLu9yjeqd2DXb/8k+R/zt99tzza+vKtkuthiXZe8Ds41zF5qjX7Nu6ihds1K+TfUQZ+/6R9yVWwsiOVJaWKVoImrY/KI8kOztOpR79JXiqHFpfDVfsuy5Hjls+iOEC066M3RnoWrQ8/1gJ7+3u72PCIPk+2cbo5ZYBQd7KezTe8tXLi9+7mVr9GvWjR3FO7fYsw45O3TvZ53OeUIFhvgzhlHj/EdfKe6qfsclRUhEhdOIpIkazoQ7HEj2NE3bsj934xQ3hW/nS5a9skdWdLl/vLj/iTb99XVOu/HZxebh6gtO3w92zjxu+R8X2DtrlvG7882jFjbLbMFR955t5R/vcdad8XJ2P9UvHsrYq3qyNaKN3DjF3bKfv9ocKuwd6dJndpgX3p26oS9Z9myXzDvifHoRz977Zxsjl1hHZNMpC2Xyifl8/rNmGZ+Yb27Lefhlp/gj0PdJxh7cXKHChXf7MzvMI11Vt1hg7OLGKPEQciKCaMVqBnjc6+nROo/ptzztXJCyK89k2Su55GedzicX8ix9YLZxxXLrmIK9P1ggeYfJx+eZ68/EmV+Wsceyd8E4/5annc5jek+PnB0WEqksN6vWSg1BOcDsaZrW3aNtP5i75oce2zUDLifO3o/3lv9Axt6VCvYMh3xmsfU+Yc7nx+aZb5xyY7wlL2OPDaprfuhtP5jrVoA3+O9zst8R359pp2pPl2TZK7pkyu7y7y+QjHsIe3+sYG/lyYy9ql9uLFRR5NGT/O/PtNnwE2UYnVSCaCJqVLZUP/DjHq3x6h35rz/hpOemS+LsPbYrY68uYKJAFSXPiDby9Scc6ZucWXhwbCI+7m7G/py+75dKJbbqiKxq1ZSl5EsPpOL0DBsT1GTjweBd4dL7FrUqiy7J2IsCRhPyXHW/N2WpKgYJstMsF9JKF70JrutKV7uzTirjHrezGJsDZLww3/dt267Hz9Yj5D+mk5FjU4Ffxl6t3y+q/KlaOztyLLl1Wlm11TSNcM/zbNtGdiijROA4EEJc1y0UCuxyW0CJChX2uGWyXKaIhRFC2PV+Uif4r9ifrybXPpyxFwy2hkOy33uJD4N/8aD39PLw5TiEkFwuh+MXyh69LmWX23JE9LMXil/EwkLxQ/zsO0nGzU3F0Jf4uDc1u9cyZoC/VUeOJT/4hb1pXx6JQEjSNA3HD3IiAoVNhV8Vezh+SBmQRAvD8YPMUmHJVvI3Pxrgk5T4772SS366v3yu7BmD6vleNu4lPujdOMWdsybYflYaeJySRjKCH5dfeggDnRQ/nj0EP6l3TgmFIfhxJtxhsUxeXDsI2Ztx0PlDgb33zzYuWWYdVTxb/x3FvJZ3erwSOp1a+tMre743baXVdTqYxcKFnPQQIlmFn9SKU4ITdrMJUErYU+HH+ZUegl+62l1660VqyCo3dJJbnnYS/9qryWGy15y2SxYedf9INqds1KuSOWWuR04U5fM5f2e+uTvv48uIMvbEc33L087r71bWK7DBppLZSJbipzJk9awTET85ezQfZ8k6VcmciXT0U9mCPmeRFzrMi8YP5CTPZNkre2T1aU/cLeJ97cYnF5rc4j3fJ7ZHduW9jwpzqd87K1gT1GNj6xik4A3x+ZwXjfdf6DAPn6hM3YRIQwQukkX8EFtI4pxQrHS9Ug0leyJ+4BERxMJE/BBzSNq0L/8v08rit1fTNMmy5/mky/JHvWpxW3HSNUQ7c/xSdMshb55yPzKXnwfza7ONz79mxbjgHOLs3fqcs2lf/5YQEGaIIEYyhx9iC0miExY/jD0OP/CICNLCOPwQc0g60qXPXWf86uWDAzXTJVn26Fh07evFD74k2ZNz4VGX24Csx/af3FsW185+dJ75f9eFrJ3Nxj32C3pEGxk9yZ+3zjxxpv8lPxBmiCCNZBY/xBaSpE4AvxD2WPzAIyKoCmPxQ8whSdOC9Q23T7cHanlRI9j73iZbnNJ51izjPzbYe/L9Q5/jkd1578aOkrjI/Q8XmU/sKcfbIn5o3mu58G7/9un2r2IpRgRKgxnwg1hFBKkHqszn8+HsAX5IGZCEFAaNh8yIoGkafXPYlx/yBmRPl0awN/eIe+FSyV5Jn15kPn/AOVDwe+zgb0/ee3Z/+Tfm8AuI3tduXLLU2lTLDrnsGDgE2et9m5e3Zmf+1JkgMGuNQFUwU/yQ6IUklQeqj8QevfNpGAY4VQl4YbquW5ZVLBZV5qCnfnp6tHvnl664dwCWFzWCvXzZ/+pq+R6Bn15k/scG+/kDznMHnH/bUPqY8EvvrFnGx+aZ/7iuxOJUkzwE2bviXu/e+SV2hR6NwFKpBJGmEvBIzuVyuq47jqMyp3rcSYU93AUhwRxT3BFNDfVD9+cMdQV+fnUBdvNTA/C4rxHs+T6Ztt+5SDb0vXeWcU678f7Zwd85ig3FRr9mvXLcrYk3NvMQZO/mp4jjQShVBNsOWT0UMZJDYzj0QWJU9iIumuAbKhzH2OdzWgf5StMneTaIPd32x2y2pTsFqvbPpPrPLrbu3VbmtjNj0QqVhxp7X3mYTOsQ4o+QGBEo8UJI67EXg+GTOXLHi2TUuKaOfg1iz/fJph7v3zaUPjxXcsNThd+5C83/3hTcjwkFDMkwpNgbNS6ImZM5KTUJYBMjjMWqNHvci1fpeRvJV58YJOxZLll/xvvvTfanhGkuUvZ+9VTw3u3lbboXYy4Li+KQYu+rT5B5G8Vor2jqH7LihTFXodZg77hOJi8ml01sHn6NG/eCaSsu2aF7U3eXb15TOm+J9ZtzzLOr92U5O3gvinnhq9a315am7Q9ugbIUxZPbDzsXLw3evMf9XfCqtXlwvfvysolBtBzXuVDvP8zYw3qgv5/6pBU7yLd+MkjYo/AYDtnY4/14b/l7m+y/W1O6aVXxf71R/Ms3ijetKv79mtL3N9k/3e9s1z0zobXzG3u8+7eX/3Ojzf3dt92WblIYj3DRqvlrZ7/1E7JiR1/cyP7HIq8vTWZXpevLiP1fZSActMa4RwjpNshP3yCfv6dJ+DV03BMDtKvo7857G3u8Dd3e7rx3spjAQCeWMiCaJrP3+XuCOOlGH4dhuPSlCaTwir6M2P+8TfVxy7BHCNlymPzXTDK8rRn4NZm9AaGiOYU2k73hbUGEbDlcHePCEYZLX5pgxCv6MmL/8zbVx63EHiGkYw+5ZHzGXjI7OA0+9i4e73fsqQ5w2RGGS1+azK5K15cR+7/KQDhoMfY6T5MJ8zP2MvbkMdDWXuo8LcS4oMBw6UsTjHhFX0bsf96m+rjF2LPdYOu+L97X8CvP7JozqVGxOdecw9vIFfd6b7xbsN3qAJcdYbj0pcnsqnR9GbH/8ZdCV9iD9XyIp6qShQPHcRBbNkkw7Vf4vl8sFtnMonzgmP7gouIFDX7UnrHXWuxdMI489qp34FhlWaoYNqymP+AEKUoEUleCaZXC9/1CoYDvdNbPXih+Vb5lB77v5/P5pPywncXKp85oG/fmb3qcjGrkTp4Zey3E3qix5KbHyZ4uYjtBBLLRIpVlwduv83s/0u1OWG/9BgrJ931d1yPtz6n3fljvnKwookoN6wI5W/awykBxoNozhvo5dUabu4FcPVl+0c8unYwtZ+y1EHtXTyZzN5By79VmcyIwdJ40jWu6cEmFX2XcozGt935YTlhZgUmVmubHR78qA8UB9YN89xBC/v3n5KKG3fPM2GsV9i4aH0QCfJoZgVCoSqCVUY1+VexRTFUXjaoCWD0tDP/uYfOrZPBTKBSk9SGELNxEbphChjdmx9WMvZZgb/iYIAYWbuqPI4gcZADoz62WwI9qAFCb9qeAEyl+PHsIfv0u1RIUhuCntu5PYf1I8aNZ72xv1NCXsdcS7F00ntzZ3h823BRnFX5VBooDNgKlvyEVdlVq1gnd6JrVSNhT4VflVXHAulbhpzCtUnN+RPxo7td3kVueacivvoy9lmDvlmfI67uwyJHiV2WgOIgYgQrrippzwuEnZ0+KH14MTRULExsfzw+HH3VScsgjr5LLJyWP31WTyVt7E3sHWFJx3Ip+bIes3kuuasCNscsnBWe/VL1vQ+MikIvkeGHM4qdkj+LH3qKJXVhSlWbxg8ps6CTfmZ48e1fcR2avJ5bdSjNI0kmmZQc9ecV9yZ+j70wnGzohECqCyJ54/cXbyI5D/ciMeJ3UCeCHscfhxzuWHasKY/GT2fE6lR/ADwwKJTLjLXLNgwmf2ovHB7NydStjr94e0C1yx0xycdJ3pK95MDjvBWHTI1XkJBWB4AciEBFUlaH4hbDH4oeUAUlIYUlVmuIHJRJCOk8HayVjP8qTGp53V/D8cMUOUijWG3zpHI6aU6tCMejDqyeTxDd6nLw4OO/ipwkRSCNZLFrUIJXRNC2cPcAPf3k0LRgvjL4Jyfd9sZacBvdTKBQ8z2P9dOwmX3kkYfxGtJFbnye/3EE0M8MvTg9oZtB7tz5PEt9c/CuPkI7dXMhUDvHISSoC8/k8F4HS2uCVicQeHSJpedIyQIkXpmmaYRim2fvOK7CRCaF+NE0rlUqA35FuMmVZQ16a+c/Pkfb1ZNMhsu8kOdxNjvZkfyE9cLg76KtNh4J+++fnEv5CHDYmOMtTlpEj3bK4ibB9mGmalmVB5Mi9RPCjaZpt27gfPIwr7KlqAPqB2p8TKsAJYqvW785f97ArvYCsU3nZJPLNp8nYOeThJWTK0uwvpAceXhL01TefJpc14P7zsDHkuofd9buVkza5OBEPh+7+nNzTTxEhqhG7jNOIhgeO6c8ut86/K/kv2jrRzcwT7IHz7yLPLreQ9QpcnEgPxeARNVJDVimaiBo2vyhHHfeSYiYpP2I7ezRtz5Hc9Y+65zdyfUOCYZS5qrUHzh9Lrn/U3XMk1yOe/j6NGOKipi8v9r9oxWkw4740zoQ7HDzsaZrWdVqfs9b4wj0D+dLMWuMpyx+9B75wjz9nrUHf29wX3vz/XHxLD3kb2bHUkFXKjHgdm1+UBxV7PT3a4RP6bT8rXzohw2+wXXtfNpHc9rPy4RM6+24TPthrfJe6aA4aERVOAzkRgTPhDgcVe7QXOrYXbprqJn5fO/rXc5Yz8R4Y0RZsTN6xvfLC9NjhTqMfMYckjhPxEHIigmjFagYhe5qmTZxTunIg3hyWeMxlDmkPfPF+8sDiZN6j0Lg7DiKELGmiPDjZW/lu4dvPOiOzmy6NWdzY5G+EkWPJP00jb3dm7Il0MxoRblHDZFeKohWnUVr2JTy+pJj4JM8mx1xWHO2Bax4kz74enP++c4v9z8WJ9BCz70uTGrLKvozY/2x+UR6c456maet25b//i4bMdMmQaGYPjBxLvj+LbD8WhC4W5n1pYoiLmr682P+iFafBjPvS8Fkvg5Y9TdNeetu7/rHBdruvmXGfhrKufyzYB4l++kIa+58jRHqI2felSQ1ZZV9G7P9I+3NKV8VzXtmCRdl1XfoOeM5KPBRtWY1t29LNLTg/rIlUtixrzzFr0rxSGgIoq0PsHpg0t7T9YI6efemJBmVSEVgqlRKJQNM0DcOQ7jZEm1MZ9+j6Qi6+uUNoJCJEwQ8xh6RCocAu2+VqEnGHttPd2ivvFL/2o4ZM8owdTJlh9B742o+cxW8bp7sr5x/CAxHyvR8xYFgNYg5JiUQg3epShV8/e6H4QbUQAVY8sE3lZMQckmilEfwgJyJomnbwuP78G6Xshmf0cE9PzpF3kWkrrIPH+7eaRs41JNEwxq/jIDMiJBWBCH5V7OH4IRWFJIoZ/t0DmRGB+kG+exBbSKJO1u3Of/vZbOhrvd+933rGWVe9XgHOLCKkMAJV+PHsIfghDYYk2nL8uwcyIwL4UeGH2EISdXLohP7iavPSiX5zXtyXnnGjdWsyvI1cOsF/cbV56ET/oBfxhwZEDjIAQIQgAvipPwKpK9juBDxL2FPhh1QUksAvgh9kRgTWj7TxiC0kgZM9h3O3TitnV56tQuPIseRfn3P2HK7cYoHzCGcWESBzqiKQ1orDT86eruviFTPSYEhiW65qPGRGBM6PiB9iC0ng5MQp/dV3CldP9rJJnunHb0QbuXqyt/Qd41Q3P3sTziwiwEmngnT0Q8whifNTZwSCNxY/OXuapon4QbUQAcoAQWw8Yg5JYA4C13jIiQhgq2naqTNa26zS5ROz9Q1p/+F3+US/bVbp1JnBFoEQjbDJvJI9ET8kyiEJCmAFDj/IjAisOcgsfogtJIEhFXo07cYp2U2XtLN34xQXlsZyAwCcWUTgTjo9TEkEQt0ofhh7FD/AFGkwJIF3TmAbD5kRgTOHQ8APsYUksALhocXFqyd76b/uGrI1vHqy99DiqpefsvjBmUUEONeckJIIhFoVCoUQ9lj8kAZDErgWBWg8ZEYE0Rw0FD/EFpLABITspkuaqR45ltw6rSzeYgH84MwiApxrUUhDBLK1CmeP4mcYRrlcRtpMk1jXopzP5w3DwCe5RfFTKBRKpVLofqFiBTRNm7bSuv7R7MozjVee1z/qTltpSc+aruuGYThO9bsXZOEoNQdlGiIQKhOJPTpbJZfLheIHflWC0fsJxU9lzuoty8LxYzODvK0zN2aWffH47KZLuvC7eLw/Zpa9rZN/rgAnjk5XDMUP8qsEOs1yACMQKlZhT/YNUqXzfR9sEKHKRnbgOA5iDkky0yod5ESEKgPmYMlWcvNT6Yq8NF8KNqduNz9FlmxlTpIgJrVDbBoikDYuKnutuHpKOH0VRZdOpi4jl03M8EtLD1w6wZ+6jHTpqjNW0SPfs5AU4qI3GTIjQqgfxBaScCdDkT1CyNr95NYGbFfenCFi8JXyjz8pr92PB2qQCjGNCOFeEvKD1AGS8MoMUfYIIcu2kVHj0vLFP/hwit6ikWPJvHUGHqY0FWIaEZrmB6kDJOGVGbrs7T5BftCesTfwPXDHDHvDnjwephl7wLNSaFoPKmvAJOCVsR2yZl8wXz76N3SWM/EeuHSC/9rmwqkzGn6yMvaYuFaITetBRflV6tDKnNDJuNmlbIJ14kRFdDiiLej/3b3rFUJPVvZ7ryq4xYOm9aBYtKgJrUzJIat35G94zM2WF0WkJcFsI8eSm6a6q3fkT54OFumFnqyMPTHCqzRN68GqUhUHUSrTdVr/xWrz2oe87OVhCXIV6ur8u8i1D3ntb5nwYpMoJ0txnqvUTfNTVariAK/MYL7Xgs96of1CO+3JpcFEv0fM/AAAC9pJREFUs1Hjst9+zbj1Mmqcf/2j7pNLq6aP4WHKnixFnFfUTfODV4Om+ujrzQcze6HzhtjLmGeWW9940rk821qikdvID28jl0/0v/Gk88zyKvAG6zUnHoEV9mChEEIz/o3ieZ5hGPX7cRwHFgrFrgwhpFQqmaaJ7HRGnbONWrWX3NlOrn2YXD6JXDCOZPu7hF46RswwvC3oz9GTgr69s52s2sv2eiCbpll/5Lium0gElsvlBCNQtUGgpmkV9uhWSkisR/xmyuVyoZ3Id7zsOJ/P49jIjHhd6DZv0kbt7QpmnN3yTBArF94dBM2ocf6oyr9+ryz594JxQU78Lzk/wawAVU1GjfPxatDUvsok5UfSJ7SGF4zzR08K+vPx18i+k/w5guNBHIEq/PrZC208dBMi0BUPOH6IOSTRvV4Q/CAnItCvEnaHDPHLRTR3PWLaJGeRbqP3r0AOHNMPHNMPnzSoIP23u0BC/w4c0zuP5xLxc6ircKirIK3JgWN6aE26mUYdPJGv38+Rk6bKSVAfI+hP0yauJ/Z3RQMnSzxHoFEaMwktFIFV7OH4MQ1UirSb8NFPacwkUD/I6MfkVYpwzhD8lMZMAusHZE5gsitFaqLrOvLdpDRmEqgfWAnK1UQ6mDPWFRGskOsr0UrUgB/DMEDmBNFK1FCTpDqnJSKQZw/BT+wvUQOdjmwOL1qJGvCjwk80ETXghDZKOvSLVqKG88MegixaiRrIjESYaCVqwI8KP9FE1IAT2jnSSwzRStRwfthDkEUrUQOZk+ocBD+xdFED9WlcBErYU+En1k/UQI2RzeFFK1HD+pE2XjQRNawTFX6ilagR/XCaWocadicOzpVYuqhhTaT4iSaihnWiwk+0EjWiH04zgJ2jwk9shahhW9GgCJSzJ8VPrJ+oYWuswk+0EjWcH7Hxoomo4ZxI8ROtRI3UD6cUrUQNZyL9ghetRA3nR8RPNBE1nBMpfqKVqJH64ZSilajhTJLqHCl+YumihqtPIyJQyZ7YeLF+ooarsRQ/0UrUiH64xosmokZ0IuInWokalR9WL1qJGjY/lcXIEK1EjeiHw080ETWiExE/0UrUqPywetFK1LD5qZxgBHI/sMXSRY1Yn8QjUMmeeF0k1k/UiDUW8ROtRI3UD9t40UTUSJ1w+IlWogbxA0milaiBzKzA4SdaiRrWHGQWP9FE1IAhJ7C3XkQrUcOZwyEb7qKVqAFDVuDwE61EDWsOcoKdDD+MxaJFDVSAE+jNP4w9Dj/RtajhyoBD9taLaCVqwJATAD/RRNRwtuwh3PkUrUQNa8jJEGGilajhbOGQjQzRStSAIScAfqKJqOFs2UPAT7QSNawhJyfSOSx+YumihqsDHCbYyRQ/sWhRA6WLQlP35wT8xCqKGrGuoKH4iSaiBkykAsVPtBI1UnNQ0ggTrUQNmIgCRIZoJWpEc9BQ/EQTUQMmUoHiJ1qJGqk5KBPpHMBPLF3UQNGikGAn53I5sWhRI9aB1YSMezSrruumaZZKJdE7p2Fdi3Iul7MsK3SjQXaapeiEPnaPss+n1JZVFgoFwzDwCa+hldE0zTCMYrHIdYV4yBYtyrlczjRN27ZFQ04j2rKafD5fKBTq30uPdk7ofHS2aKlsGIZlWVwTxEOpLSjTFoG0c/DpmqGRE4k9+ptN1/VQ/KCzVIJhGPl8PhQ/lTmrLxQKeOPZzIhsmiaOH2ILSbquh+IHmVUCHW1C8VOZs/pQ/NjMiGwYBo4fYssmheLHZpbKud5P/RFommZSERg6AEgbAsoKe+L3EKdJan9O13WhbETgShcPEVtIEq1EDWRGBNFK1CDmkCRacZqktqCEEhGBK1p6iJhDktSQU0JmROBMxMPBF4FR2QsdQGm3il0mapATAEmiFaeBnIjAmUgPEXNIkhpySsiMCJyJ9BAxhySpIauEnIjA5lfJiDkkqWxZPWRGBDa/SkbMIUlly+ohMyKw+aUyYgtJUkNQZuxBRykF6CxEUBozCYg5JDHZlSJkVglKSyZBZcvqmexKkc2vkpXGTILKltUz2ZUim18lK42ZBJUt6Jm8ShEyS4WMPWXHQYK04zglZEYEzkR6iJhDktSQVUJORGDzq2TEHJJUtqweMiMCm18lI+aQpLJl9ZAZEdj8UhmxhSSpISgz9qCjlAJ0FiIojZkExBySmOxKETKrBKUlk6CyZfVMdqXI5lfJSmMmQWXL6pnsSpHNr5KVxkyCyhb0TF6lCJmlQsaesuMgQdpxnBIyIwJnIj1EzCFJasgqIScisPlVMmIOSSpbVg+ZEYHNr5IRc0hS2bJ6yIwIbH6pjNhCktQQlBl70FFKAToLEZTGTAJiDklMdqUImVWC0pJJUNmyeia7UmTzq2SlMZOgsmX1THalyOZXyUpjJkFlC3omr1KEzFIhY0/ZcZAg7ThOCZkRgTORHiLmkCQ1ZJWQExHY/CoZMYcklS2rh8yIwOZXyYg5JKlsWT1kRgQ2v1RGbCFJagjKjD3oKKUAnYUISmMmATGHJCa7UoTMKkFpySSobFk9k10psvlVstKYSVDZsnomu1Jk86tkpTGToLIFPZNXKUJmqTCY2cMnZNDuUHYbkyDtOE7JZFeKnIn0UGnMJEgNWSWTVyniU4KoN6Uxk4BPCYruh62/SmaKVYoqW1avNGYS2PxSmcmrFPEIrLCntGYSpDWgSt/3LYvfcZExrRIRP3Sbt6rcigPECSHEcRyY1K9wUFHjfmzblu40IfpE/Pi+XywWRROpBvHjeZ5pmlIrTok4oZ1DpyNyVuIh7qdcLudyuSj9g/splUpi0VIN4sfzvFRFYLlcDo3ACnuw3EPaZqpEWk4I8X2/VCrV78d13WKxmM/nkZpE2YbAcRzDMGC1lcob3ihCiG3b9Tcqqc7xPK9YLIbWJ7RRSXVOuVw2DCMUv9D6JBI5ETsnNHiaFoH94179Z5QQAss9VLEe2nJ6nmDBkcpP6Omkk+BgvV+dftLWOXh9mt85OH4R64M3KmLkJBWBoaNWxEYhEdjPHl3QrYrRiC3nlttKvUWsNI5fRCfJ7vMpbQ5VRqxPaGRE9ANL0aRViugk2c5B8IteHxy/iH4S7GTk+itiZcSdOOCUVbGH4xe9MLzx0f0g+EV3gkdYTX6QyIjuJ8HOUdUnemXS1jlpi0Bk9Kupk2ErAACvak940CZyRpEIq6nSKvxqcoJEWK1+0tY50vrU2ijVdVGtfqSViX7FlGwEIpcGNbVLhV9NTuh3CndpwI97tP3STqy1MBV+tfqR4lerExV+MfykrXPE+sRolBS/GH7EysRgTzX61VofFX61+pHiV6sTGoEsfnL2pI2PUZgUvxh+RPxiOJHiF8+PGGEx/CTYOVx9YlQmbZ2TVARK8YvRPyJ+MZxw+CnZExsfrzAxwuL54fCL50SMsNh+Egn3BDuHrU/sRnGjX2w/bGXijXvS66949RHxi+eHwy+eExY/jD0Ov9iFcREW2w+LX2wnHH71+GEjLLafBDsH6hO7MkOhc+r5LmDxq7OTdV0PYY/Fr57C2Airxw/gV48T9runTj+JhHuCnUPrU2ejYPSr0086O6ce9tiNnuvsnHw+H84e4FdnYRBhdfqh+NXpBPCr308i4Z5g5xQKhfobRfGr308KO6dO9gC/+jsnEnt0C0rTNEPLg9vEUkHXdcuyQrd5C92XiW4XV/8WlPQSInQ2sLQtrJJOj6y/c0zTDN1oMGLn1L8LI8UPnw0cWhn6HZfP5+vvHMMw6o9AukNsSiKwwl5o1yS1fV25XGajViWH1kdlyOpDnUQJnfq/JqFKofVxHAcyI0KoH8QWkkKdpK1zkopA27ahExAhtH8QW0jCnURlL6kzkdQui9A8RMBbTlMRc0hqmp+sc5CuTqpzkmIYwgMRkOYQQprNXlIMIw2GJLzlNBUyI0LL+UHaAkkt16ikIicpP9CTiIB3csYe0nWVJLwHaWq4F01rmp9UVSapWE+bn/o7OWMvvA+bxkxS4RXepCZ+ESTVqLT5qb+TM/bC+zBjD+mjluucpBhG+gSS8M55z3ve8/8BBtG9GOPe6+gAAAAASUVORK5CYII=;" vertex="1" parent="1">
          <mxGeometry x="820" y="-43.639999999999986" width="107" height="102.68" as="geometry" />
        </mxCell>
        <mxCell id="syM0QQwry6lKTLaRATjQ-43" style="edgeStyle=orthogonalEdgeStyle;rounded=0;orthogonalLoop=1;jettySize=auto;html=1;entryX=0.529;entryY=0.916;entryDx=0;entryDy=0;entryPerimeter=0;" edge="1" parent="1" source="syM0QQwry6lKTLaRATjQ-37" target="syM0QQwry6lKTLaRATjQ-30">
          <mxGeometry relative="1" as="geometry" />
        </mxCell>
        <mxCell id="syM0QQwry6lKTLaRATjQ-44" value="Blob storage" style="text;html=1;align=center;verticalAlign=middle;whiteSpace=wrap;rounded=0;" vertex="1" parent="1">
          <mxGeometry x="823.5" y="59.04" width="100" height="30" as="geometry" />
        </mxCell>
        <mxCell id="syM0QQwry6lKTLaRATjQ-45" value="Esto es un sistema de arquitectura &lt;b&gt;SINGLE TENANT&lt;/b&gt;" style="text;html=1;align=center;verticalAlign=middle;whiteSpace=wrap;rounded=0;" vertex="1" parent="1">
          <mxGeometry x="-15" y="660" width="230" height="80" as="geometry" />
        </mxCell>
      </root>
    </mxGraphModel>
  </diagram>
</mxfile>
